<svg xmlns="http://www.w3.org/2000/svg" width="75" height="75" viewBox="0 0 75 75">
  <g id="Grupo_2106" data-name="Grupo 2106" transform="translate(-1411 -396)">
    <g id="Grupo_2047" data-name="Grupo 2047" transform="translate(-3980)">
      <rect id="Rectángulo_1638" data-name="Rectángulo 1638" width="75" height="75" rx="8" transform="translate(5391 396)" fill="#eef1ff"/>
    </g>
    <g id="Grupo_2048" data-name="Grupo 2048" transform="translate(-3980)">
      <path id="Trazado_4740" data-name="Trazado 4740" d="M5428.5,415.333a12.431,12.431,0,0,0-12.087,9.582,1.419,1.419,0,0,0,2.749.707,9.577,9.577,0,0,1,18.676,0,1.419,1.419,0,0,0,2.749-.707,12.431,12.431,0,0,0-12.087-9.582Zm0,0" fill="#8e9fff"/>
      <path id="Trazado_4741" data-name="Trazado 4741" d="M5417.43,443.151a4.263,4.263,0,0,0,4.258-4.258v-5.677a4.263,4.263,0,0,0-4.258-4.258,7.1,7.1,0,1,0,0,14.193Zm0-11.354a1.421,1.421,0,0,1,1.419,1.419v5.677a1.421,1.421,0,0,1-1.419,1.419,4.258,4.258,0,1,1,0-8.515Zm0,0" fill="#8e9fff"/>
      <path id="Trazado_4742" data-name="Trazado 4742" d="M5439.57,428.958a4.263,4.263,0,0,0-4.258,4.258v5.677a4.266,4.266,0,0,0,2.839,4.014v1.663a1.421,1.421,0,0,1-1.419,1.42h-4.218a4.258,4.258,0,1,0,0,2.838h4.218a4.263,4.263,0,0,0,4.258-4.258v-1.562a7.1,7.1,0,0,0-1.42-14.05Zm-11.07,19.87a1.419,1.419,0,1,1,1.419-1.419,1.421,1.421,0,0,1-1.419,1.419Zm11.07-8.516a1.421,1.421,0,0,1-1.419-1.419v-5.677a1.421,1.421,0,0,1,1.419-1.419,4.258,4.258,0,1,1,0,8.515Zm0,0" fill="#8e9fff"/>
    </g>
  </g>
</svg>
