<svg xmlns="http://www.w3.org/2000/svg" width="50" height="50" viewBox="0 0 50 50">
  <g id="Grupo_1614" data-name="Grupo 1614" transform="translate(-2925 -2391)">
    <circle id="Elipse_46" data-name="Elipse 46" cx="25" cy="25" r="25" transform="translate(2925 2391)" fill="#fbe3e7"/>
    <g id="Grupo_1613" data-name="Grupo 1613">
      <path id="Trazado_3707" data-name="Trazado 3707" d="M2959.091,2408.127h-18.182a.909.909,0,0,0,0,1.818h.909v13.273a4.55,4.55,0,0,0,4.546,4.545h7.272a4.55,4.55,0,0,0,4.546-4.545v-13.273h.909a.909.909,0,0,0,0-1.818Zm-2.727,15.091a2.731,2.731,0,0,1-2.728,2.727h-7.272a2.731,2.731,0,0,1-2.728-2.727v-13.273h12.728Zm0,0" fill="#e54560"/>
      <path id="Trazado_3708" data-name="Trazado 3708" d="M2951.818,2406.309h-3.636a.909.909,0,0,1,0-1.818h3.636a.909.909,0,0,1,0,1.818Zm0,0" fill="#e54560"/>
      <path id="Trazado_3709" data-name="Trazado 3709" d="M2950,2422.309a.909.909,0,0,1-.909-.909v-6.909a.909.909,0,1,1,1.818,0v6.909a.909.909,0,0,1-.909.909Zm0,0" fill="#e54560"/>
      <path id="Trazado_3710" data-name="Trazado 3710" d="M2953.636,2422.309a.909.909,0,0,1-.909-.909v-6.909a.909.909,0,1,1,1.818,0v6.909a.909.909,0,0,1-.909.909Zm0,0" fill="#e54560"/>
      <path id="Trazado_3711" data-name="Trazado 3711" d="M2946.364,2422.309a.909.909,0,0,1-.909-.909v-6.909a.909.909,0,1,1,1.818,0v6.909a.909.909,0,0,1-.909.909Zm0,0" fill="#e54560"/>
    </g>
  </g>
</svg>
