<svg xmlns="http://www.w3.org/2000/svg" width="307.334" height="269.262" viewBox="0 0 307.334 269.262">
  <g id="Grupo_201" data-name="Grupo 201" transform="translate(-6946.333 -7556.42)">
    <path id="Trazado_541" data-name="Trazado 541" d="M7023.36,7649.38a5.57,5.57,0,0,1,.318,1.865,5.785,5.785,0,0,1-7.764,5.428,5.778,5.778,0,0,0,11.2-1.989,5.649,5.649,0,0,0-3.756-5.3m-7.5-16.361a5.859,5.859,0,0,0,1.016,1.741V7633.3a6.052,6.052,0,0,1-1.016-.279m-3.3-3.09h-18.345a1.014,1.014,0,0,0,0,2.028h19.845a5.819,5.819,0,0,1-1.5-2.028m14.118-1.409h-3a5.847,5.847,0,0,1-4.744,4.778v3.013a6.043,6.043,0,0,0,1.375.425v9.364a5.79,5.79,0,0,1,2.062,1.554v-10.918a5.847,5.847,0,0,0,4.745-4.779h22.76a1.014,1.014,0,0,0,0-2.028h-22.76a6.038,6.038,0,0,0-.439-1.409m-3.291-3.083a6.162,6.162,0,0,1,.292,1.055h1.488a5.86,5.86,0,0,0-1.78-1.055m-6.515-10.429h-21.936v2.406a1.013,1.013,0,0,0,1.031,1.031h20.905v-3.437m16.227-9.833h-32.559a1.031,1.031,0,1,0,0,2.062H7033.1a1.031,1.031,0,1,0,0-2.062m0-6.67h-32.559a1.035,1.035,0,0,0-1.031,1.031,1.058,1.058,0,0,0,1.031,1.031H7033.1a1.057,1.057,0,0,0,1.032-1.031,1.034,1.034,0,0,0-1.032-1.031m0-6.67h-32.559a1.031,1.031,0,1,0,0,2.062H7033.1a1.031,1.031,0,1,0,0-2.062m12.378-5.811h-2.407v27.952a1.013,1.013,0,0,1-1.031,1.032H7018.9v3.437h1.41v3.7a5.819,5.819,0,0,1,2.028,1.517v-5.221h23.139a1.012,1.012,0,0,0,1.031-1.031v-30.393a1,1,0,0,0-1.031-1m-20.388-8.836h-2.407v5.4h3.438v-4.4a1.027,1.027,0,0,0-1.031-1" fill="#efefef"/>
    <path id="Trazado_542" data-name="Trazado 542" d="M7000.539,7607.237a1.031,1.031,0,1,1,0-2.062H7033.1a1.031,1.031,0,1,1,0,2.062h-32.559m0-6.67a1.058,1.058,0,0,1-1.031-1.031,1.035,1.035,0,0,1,1.031-1.031H7033.1a1.034,1.034,0,0,1,1.032,1.031,1.057,1.057,0,0,1-1.032,1.031h-32.559m0-6.67a1.031,1.031,0,1,1,0-2.062H7033.1a1.031,1.031,0,1,1,0,2.062h-32.559m21.111-20.147h-29.121a1.006,1.006,0,0,0-1.032,1v39.229a1.013,1.013,0,0,0,1.032,1.032h24.342v6.738a5.81,5.81,0,0,0-4.745,4.746h-21.351a1.014,1.014,0,0,0,0,2.028h21.351a6.093,6.093,0,0,0,.433,1.409,5.8,5.8,0,0,0,3.3,3.09,6.052,6.052,0,0,0,1.016.279v12.377a5.683,5.683,0,0,0-4.745,5.57,5.776,5.776,0,1,0,11.552,0,5.555,5.555,0,0,0-1.307-3.591,5.79,5.79,0,0,0-2.062-1.554,5.865,5.865,0,0,0-1.375-.425V7633.3a5.847,5.847,0,0,0,4.744-4.778h22.76a1.014,1.014,0,0,0,0-2.028h-22.76a6.162,6.162,0,0,0-.292-1.055,5.9,5.9,0,0,0-1.049-1.771,5.819,5.819,0,0,0-2.028-1.517,6.045,6.045,0,0,0-1.41-.437v-6.7h23.139a1.013,1.013,0,0,0,1.031-1.032v-30.393a1.006,1.006,0,0,0-1.031-1h-19.357v-7.839a1.028,1.028,0,0,0-1.031-1" fill="#a3a4a8"/>
    <path id="Trazado_543" data-name="Trazado 543" d="M7210.195,7731.367h-2.877a.844.844,0,0,0,0,1.688h2.877a.844.844,0,1,0,0-1.688m-185.789-30.941-.1.058.1-.058m.405-.222-.3.162.3-.162m175.262-8.359h-4.605v35.809h26.577v-22.506a20.555,20.555,0,0,0-7.378-4.833c-3.6-1.355-7.672-1.672-10.825-3.884a11.445,11.445,0,0,1-3.769-4.586m-148.243-16.914-.24.112.24-.112m26.073-5.806a61.692,61.692,0,0,1,9.943.813,61.582,61.582,0,0,0-9.943-.813m-.018,0h0m-6.086-42.412a3.381,3.381,0,1,0,3.389,3.387,3.383,3.383,0,0,0-3.389-3.387m54.8-15.348a4.34,4.34,0,1,0,4.351,4.35,4.345,4.345,0,0,0-4.351-4.35m-107.351,171.259a1.726,1.726,0,0,1-1.41-.73,25.818,25.818,0,0,1-2.124-3.455,1.724,1.724,0,0,1,3.112-1.486,23.31,23.31,0,0,0,1.828,2.951,1.706,1.706,0,0,1,.315.921,1.5,1.5,0,0,1,.143-.077,1.751,1.751,0,0,1,2.323.8,21.2,21.2,0,0,0,1.816,2.944,1.732,1.732,0,0,1,.315,1.123c5.29,5.185,14.368,11.628,28.719,14.946a1.724,1.724,0,0,1-.045,3.369q2.229.67,4.654,1.234a1.724,1.724,0,0,1-.391,3.4,2.053,2.053,0,0,1-.391-.045c-16.142-3.725-26.008-11.269-31.435-16.947a1.72,1.72,0,0,1-.406-.679,51.547,51.547,0,0,1-4.2-3.914,1.727,1.727,0,0,1-.42-1.651,21.437,21.437,0,0,1-1.34-2.288,1.775,1.775,0,0,1-.169-.673,1.717,1.717,0,0,1-.89.25m-28.771-64.509a.86.86,0,0,1-.609-.253l-3.129-3.129a.861.861,0,1,1,1.218-1.217l3.129,3.129a.862.862,0,0,1-.609,1.47m4,0a.862.862,0,0,1-.609-1.47l3.129-3.129a.861.861,0,0,1,1.218,1.217l-3.129,3.129a.863.863,0,0,1-.609.253m-7.126-7.126a.86.86,0,0,1-.608-1.469l3.129-3.13a.861.861,0,0,1,1.218,1.219l-3.129,3.128a.86.86,0,0,1-.61.252m10.255,0a.86.86,0,0,1-.609-.252l-3.129-3.128a.862.862,0,0,1,1.218-1.219l3.129,3.13a.86.86,0,0,1-.609,1.469m-25.2-3.5a1.237,1.237,0,0,1-1.264-1.258v-1.652a1.266,1.266,0,1,1,2.532,0v1.652a1.24,1.24,0,0,1-1.268,1.258m149.8-34.7c-.048-.022-.1-.046-.143-.072a32.778,32.778,0,0,0-3.727-1.844,1.726,1.726,0,0,1,.621-3.335,1.684,1.684,0,0,1,.616.116,34.546,34.546,0,0,1,4.184,2.058,1.727,1.727,0,0,1,.656,2.349,1.767,1.767,0,0,1-.152.226,36.574,36.574,0,0,1,4.1,2.025,1.685,1.685,0,0,1,.355.265,1.726,1.726,0,0,1,2.2-.052,59.535,59.535,0,0,1,7.393,6.929c9.836,8.792,20.294,23.99,20.211,48.869a1.718,1.718,0,0,1-1.725,1.7h-.023a1.7,1.7,0,0,1-1.7-1.725,70.985,70.985,0,0,0-2.436-19.239,77.99,77.99,0,0,1,1.279,14.658,1.726,1.726,0,0,1-1.725,1.718h-.006a1.725,1.725,0,0,1-1.718-1.732c.072-19.822-6.871-33.136-14.6-41.8-.834-.74-1.664-1.432-2.48-2.076a1.677,1.677,0,0,1-.651-1.16c-1.33-1.268-2.66-2.41-3.957-3.432-.047-.038-.091-.077-.133-.118a1.727,1.727,0,0,1-1.977.2,32.558,32.558,0,0,0-3.728-1.844,1.726,1.726,0,0,1-.729-2.684m55.012-7.562,4.616-4.614a1.149,1.149,0,0,1,1.625,1.625l-4.615,4.615,4.615,4.615a1.149,1.149,0,1,1-1.625,1.626l-4.616-4.615-4.615,4.615a1.15,1.15,0,0,1-1.626-1.626l4.615-4.615-4.615-4.615a1.149,1.149,0,1,1,1.626-1.625l4.615,4.614M7071.8,7635.264a5.171,5.171,0,1,1,5.179-5.164,5.17,5.17,0,0,1-5.179,5.164m.244-22.958a2.078,2.078,0,1,1,2.079-2.078,2.081,2.081,0,0,1-2.079,2.078m7.815,0a2.078,2.078,0,1,1,2.078-2.078,2.081,2.081,0,0,1-2.078,2.078m7.815,0a2.078,2.078,0,1,1,2.078-2.078,2.081,2.081,0,0,1-2.078,2.078m-15.258-17.8a.858.858,0,0,1-.609-.253l-3.13-3.129a.861.861,0,1,1,1.218-1.217l3.129,3.129a.861.861,0,0,1-.608,1.47m4,0a.861.861,0,0,1-.609-1.47l3.129-3.129a.861.861,0,0,1,1.219,1.217l-3.13,3.129a.861.861,0,0,1-.609.253m-7.125-7.125a.862.862,0,0,1-.609-1.471l3.13-3.128a.861.861,0,0,1,1.217,1.218l-3.129,3.127a.856.856,0,0,1-.609.254m10.254,0a.857.857,0,0,1-.609-.254L7075.8,7584a.861.861,0,0,1,1.218-1.218l3.13,3.128a.862.862,0,0,1-.61,1.471m6.971-19.027a32.551,32.551,0,0,0-7.644.9,34.174,34.174,0,0,0-23.346,20.269c-3.689,9.3-3.052,19.712-1.766,29.636,1.935,14.948,6.77,38.749-8.007,49.357a12.42,12.42,0,0,1-7.41,2.427,20.648,20.648,0,0,1-9.448-2.743c-7.845-4.137-14.363-8.422-23.511-9.237q-1.68-.15-3.372-.149a39.685,39.685,0,0,0-10.647,1.467c.074.071.147.143.22.216a.7.7,0,0,1,0,.968.688.688,0,0,1-.968,0c-.253-.254-.512-.495-.778-.726a39.373,39.373,0,0,0-6.08,2.538,7.366,7.366,0,0,1,.732.639.7.7,0,0,1,.1.843,7.348,7.348,0,0,1,.964.809.7.7,0,0,1,0,.967.687.687,0,0,1-.969,0,5.894,5.894,0,0,0-3.534-1.7,34.307,34.307,0,0,0-10.211,9.8,32.721,32.721,0,0,0-3.829,27.91v-4.909a1.266,1.266,0,1,1,2.531,0v10.533a26.711,26.711,0,0,0,2.5,3.545c6.458,7.738,16.82,11.857,22.907,19.649h3.568a1.44,1.44,0,0,1,1.438,1.44v1.294h.384a1.441,1.441,0,0,1,1.439,1.439v11.784a1.442,1.442,0,0,1-1.439,1.44h-.089c.032,8.205-1.913,16.913-1.653,25.2.7,22.34,18.805,41.682,40.123,48.4a74.239,74.239,0,0,0,22.384,3.322c14.629,0,29.428-3.832,42.891-9.8a79.81,79.81,0,0,0,13.01-7.178,134.111,134.111,0,0,1-11.344-12,70.624,70.624,0,0,1-89.339-87.255l.036-.133.053-.124a65.193,65.193,0,0,1,109.79-22.129,65.646,65.646,0,0,1,18.741,67.867,12.221,12.221,0,0,1,2.536-.259c4.919,0,10.071,2.742,13.774,6.275,5.185,4.946,8.9,11.376,14.583,15.744a27.883,27.883,0,0,0,17.168,5.541,35.941,35.941,0,0,0,13.607-2.75.583.583,0,0,1,.153-.291,6.143,6.143,0,0,1,4.1-1.791c.094-.053.186-.107.279-.161a5.063,5.063,0,0,0-.928-.087,4.973,4.973,0,0,0-3.534,1.465.571.571,0,0,1-.407.168.577.577,0,0,1-.408-.168.589.589,0,0,1,0-.816,6.168,6.168,0,0,1,6.6-1.371,34.86,34.86,0,0,0,4.022-3.011,12.209,12.209,0,0,0-14,2.319.565.565,0,0,1-.4.166.573.573,0,0,1-.405-.981,13.356,13.356,0,0,1,11.924-3.661,12.209,12.209,0,0,0-12.01,3.088.568.568,0,0,1-.4.165.581.581,0,0,1-.41-.17.575.575,0,0,1,0-.811,13.359,13.359,0,0,1,17.14-1.446l.2-.2q1.414-1.411,2.672-2.943a18.225,18.225,0,0,0-22.564,2.537.577.577,0,0,1-.814,0,.584.584,0,0,1,0-.814,19.394,19.394,0,0,1,17.589-5.261,18.234,18.234,0,0,0-17.668,4.686.577.577,0,0,1-.814,0,.585.585,0,0,1,0-.815,19.385,19.385,0,0,1,25.374-1.736c8.063-10.716,10.81-25.112,9.643-38.624-.625-7.233-2.759-14.925-6.908-20.7v24.311a4.22,4.22,0,0,1-4.219,4.219H7197.1a4.22,4.22,0,0,1-4.218-4.219v-45.562a4.22,4.22,0,0,1,4.218-4.219h1.428c.045-.812.129-1.616.251-2.4.9-5.858,3.364-11.413,4.027-17.3,1.318-11.706-5.614-23.694-16.005-29.027h-12.775l-8,10.259a.949.949,0,0,1-.713.326.6.6,0,0,1-.3-.059.881.881,0,0,1-.564-.833v-4.2l-1.4,1.792a.95.95,0,0,1-.713.327.586.586,0,0,1-.3-.06.878.878,0,0,1-.564-.832v-6.72h-1.458a.876.876,0,0,1-.892-.891v-2.082h-2.081a.879.879,0,0,1-.721-.356,31.623,31.623,0,0,1-8.4-1.733c-6.13-2.253-10.909-6.732-14.781-12.076a6.648,6.648,0,1,1-4.68-7.545c-.8-1.491-1.561-3-2.28-4.5-4.8-10.017-8.946-20.857-17.3-28.179a34.23,34.23,0,0,0-22.376-8.3" fill="#f5f5f5"/>
    <path id="Trazado_544" data-name="Trazado 544" d="M7175.585,7666.847l-4.615,4.615a1.15,1.15,0,1,0,1.626,1.626l4.615-4.615-1.626-1.626m7.054-6.577a1.141,1.141,0,0,0-.812.337l-4.616,4.614,1.626,1.626,4.615-4.615a1.149,1.149,0,0,0-.813-1.962" fill="#a3a4a8"/>
    <path id="Trazado_545" data-name="Trazado 545" d="M7171.784,7660.27a1.149,1.149,0,0,0-.814,1.962l4.615,4.615,1.626,1.626,4.616,4.615a1.149,1.149,0,0,0,1.625-1.626l-4.615-4.615-1.626-1.626-4.615-4.614a1.141,1.141,0,0,0-.812-.337" fill="#a3a4a8"/>
    <path id="Trazado_546" data-name="Trazado 546" d="M7126.6,7620.046a4.34,4.34,0,1,1,4.351-4.331,4.336,4.336,0,0,1-4.351,4.331m0-10.98a6.648,6.648,0,1,0,1.868.267,6.647,6.647,0,0,0-1.868-.267" fill="#a3a4a8"/>
    <path id="Trazado_547" data-name="Trazado 547" d="M7071.8,7633.474a3.381,3.381,0,1,1,3.389-3.374,3.377,3.377,0,0,1-3.389,3.374m0-8.552a5.171,5.171,0,1,0,5.179,5.178,5.176,5.176,0,0,0-5.179-5.178" fill="#a3a4a8"/>
    <path id="Trazado_548" data-name="Trazado 548" d="M7069.285,7589.658a.861.861,0,0,0-.609,1.47l3.13,3.129a.86.86,0,0,0,1.217-1.217l-3.129-3.129a.859.859,0,0,0-.609-.253" fill="#a3a4a8"/>
    <path id="Trazado_549" data-name="Trazado 549" d="M7076.41,7582.534a.861.861,0,0,0-.609,1.47l3.129,3.127a.861.861,0,0,0,1.219-1.217l-3.13-3.128a.858.858,0,0,0-.609-.252" fill="#a3a4a8"/>
    <path id="Trazado_550" data-name="Trazado 550" d="M7072.415,7582.534a.857.857,0,0,0-.609.252l-3.13,3.128a.861.861,0,1,0,1.218,1.217l3.129-3.127a.861.861,0,0,0-.608-1.47" fill="#a3a4a8"/>
    <path id="Trazado_551" data-name="Trazado 551" d="M7079.54,7589.658a.86.86,0,0,0-.61.253l-3.129,3.129a.861.861,0,1,0,1.218,1.217l3.13-3.129a.861.861,0,0,0-.609-1.47" fill="#a3a4a8"/>
    <path id="Trazado_552" data-name="Trazado 552" d="M7223.513,7612.5a.862.862,0,0,0-.608,1.471l3.129,3.128a.861.861,0,0,0,1.218-1.218l-3.13-3.128a.857.857,0,0,0-.609-.253" fill="#a3a4a8"/>
    <path id="Trazado_553" data-name="Trazado 553" d="M7230.638,7605.377a.862.862,0,0,0-.609,1.471l3.13,3.128a.861.861,0,0,0,1.217-1.218l-3.129-3.128a.859.859,0,0,0-.609-.253" fill="#a3a4a8"/>
    <path id="Trazado_554" data-name="Trazado 554" d="M7226.643,7605.377a.86.86,0,0,0-.609.253l-3.129,3.128a.861.861,0,0,0,1.217,1.218l3.13-3.128a.862.862,0,0,0-.609-1.471" fill="#a3a4a8"/>
    <path id="Trazado_555" data-name="Trazado 555" d="M7233.768,7612.5a.856.856,0,0,0-.609.253l-3.13,3.128a.861.861,0,0,0,1.218,1.218l3.129-3.128a.862.862,0,0,0-.608-1.471" fill="#a3a4a8"/>
    <path id="Trazado_556" data-name="Trazado 556" d="M7237.509,7752.387a.861.861,0,0,0-.609,1.47l3.129,3.128a.861.861,0,0,0,1.219-1.217l-3.13-3.128a.857.857,0,0,0-.609-.253" fill="#a3a4a8"/>
    <path id="Trazado_557" data-name="Trazado 557" d="M7244.634,7745.263a.86.86,0,0,0-.609,1.47l3.13,3.128a.861.861,0,0,0,1.218-1.217l-3.131-3.13a.861.861,0,0,0-.608-.251" fill="#a3a4a8"/>
    <path id="Trazado_558" data-name="Trazado 558" d="M7240.638,7745.263a.863.863,0,0,0-.609.251l-3.129,3.13a.861.861,0,0,0,1.218,1.217l3.13-3.128a.86.86,0,0,0-.61-1.47" fill="#a3a4a8"/>
    <path id="Trazado_559" data-name="Trazado 559" d="M7247.764,7752.387a.856.856,0,0,0-.609.253l-3.13,3.128a.861.861,0,1,0,1.217,1.217l3.131-3.128a.861.861,0,0,0-.609-1.47" fill="#a3a4a8"/>
    <path id="Trazado_560" data-name="Trazado 560" d="M6987.345,7713.263a.861.861,0,0,0-.609,1.47l3.129,3.129a.861.861,0,0,0,1.218-1.217l-3.129-3.129a.859.859,0,0,0-.609-.253" fill="#a3a4a8"/>
    <path id="Trazado_561" data-name="Trazado 561" d="M6994.47,7706.139a.86.86,0,0,0-.609,1.47l3.129,3.128a.861.861,0,0,0,1.218-1.217l-3.129-3.13a.864.864,0,0,0-.609-.251" fill="#a3a4a8"/>
    <path id="Trazado_562" data-name="Trazado 562" d="M6990.474,7706.139a.862.862,0,0,0-.609.251l-3.129,3.13a.861.861,0,0,0,1.218,1.217l3.129-3.128a.86.86,0,0,0-.609-1.47" fill="#a3a4a8"/>
    <path id="Trazado_563" data-name="Trazado 563" d="M6997.6,7713.263a.862.862,0,0,0-.609.253l-3.129,3.129a.861.861,0,1,0,1.218,1.217l3.129-3.129a.861.861,0,0,0-.609-1.47" fill="#a3a4a8"/>
    <path id="Trazado_564" data-name="Trazado 564" d="M7198.881,7608.6h-2.111v21.556a.869.869,0,0,1-.862.892h-19.825a34.724,34.724,0,0,1,5.242.89,26.176,26.176,0,0,1,5.475,2.083h12.081a.869.869,0,0,0,.862-.891v-23.638a.87.87,0,0,0-.862-.892" fill="#efefef"/>
    <path id="Trazado_565" data-name="Trazado 565" d="M7176.083,7631.043h-5.031l-6.6,8.466v4.2a.881.881,0,0,0,.564.833.6.6,0,0,0,.3.059.949.949,0,0,0,.713-.326l8-10.259H7186.8a26.176,26.176,0,0,0-5.475-2.083,34.724,34.724,0,0,0-5.242-.89" fill="#e6e6e6"/>
    <path id="Trazado_566" data-name="Trazado 566" d="M7166.086,7613.471a3.692,3.692,0,0,0-.8,7.322,3.679,3.679,0,0,1-.06-.661,3.777,3.777,0,0,1,3.836-3.688,3.9,3.9,0,0,1,.774.078,3.8,3.8,0,0,0-3.748-3.051m10.674,0a3.692,3.692,0,0,0-.8,7.322,3.592,3.592,0,0,1-.061-.661,3.778,3.778,0,0,1,3.836-3.688,3.833,3.833,0,0,1,.776.079,3.8,3.8,0,0,0-3.749-3.052m10.109,0a3.694,3.694,0,0,0-.772,7.328,3.656,3.656,0,0,1-.061-.667,3.752,3.752,0,0,1,3.806-3.688,3.983,3.983,0,0,1,.776.077,3.78,3.78,0,0,0-3.749-3.05" fill="#efefef"/>
    <path id="Trazado_567" data-name="Trazado 567" d="M7161.478,7631.043h-2.35v2.082a.876.876,0,0,0,.892.891h1.458v-2.973" fill="#e6e6e6"/>
    <path id="Trazado_568" data-name="Trazado 568" d="M7165.284,7620.793a3.692,3.692,0,0,1,.8-7.322,3.8,3.8,0,0,1,3.748,3.051,3.516,3.516,0,0,1,.057.636,3.775,3.775,0,0,1-3.805,3.717,3.914,3.914,0,0,1-.8-.082m10.674,0a3.692,3.692,0,0,1,.8-7.322,3.8,3.8,0,0,1,3.749,3.052,3.587,3.587,0,0,1,.057.635,3.776,3.776,0,0,1-3.806,3.717,3.914,3.914,0,0,1-.8-.082m10.139.006a3.694,3.694,0,0,1,.772-7.328,3.78,3.78,0,0,1,3.749,3.05,3.656,3.656,0,0,1,.057.637,3.757,3.757,0,0,1-3.806,3.717,3.894,3.894,0,0,1-.772-.076m9.811-15.177h-38.861a.876.876,0,0,0-.892.891v23.638a.9.9,0,0,0,.171.536.879.879,0,0,0,.721.356h4.431v9.693a.878.878,0,0,0,.564.832.586.586,0,0,0,.3.06.95.95,0,0,0,.713-.327l1.4-1.792,6.6-8.466h24.856a.869.869,0,0,0,.862-.892v-23.638a.869.869,0,0,0-.862-.891" fill="#a3a4a8"/>
    <path id="Trazado_569" data-name="Trazado 569" d="M6979.317,7661.783a7.311,7.311,0,0,0-5.166,2.134.7.7,0,0,0,0,.969.69.69,0,0,0,.969,0,5.905,5.905,0,0,1,4.2-1.74,5.973,5.973,0,0,1,2.019.351,7.338,7.338,0,0,1,1.4.328q.5-.281,1.012-.547a7.315,7.315,0,0,0-4.436-1.495" fill="#efefef"/>
    <path id="Trazado_570" data-name="Trazado 570" d="M6983.753,7663.278q-.51.267-1.012.547a7.262,7.262,0,0,1,1.841.935.7.7,0,0,0-.1-.843,7.366,7.366,0,0,0-.732-.639" fill="#e6e6e6"/>
    <path id="Trazado_571" data-name="Trazado 571" d="M6979.312,7647.071a22.929,22.929,0,0,0-16.255,6.72.7.7,0,0,0,0,.969.688.688,0,0,0,.969,0,21.538,21.538,0,0,1,15.288-6.33,21.757,21.757,0,0,1,5.71.762,22.871,22.871,0,0,1,10.685,5.375.687.687,0,0,0-.135-.776,22.938,22.938,0,0,0-16.262-6.72" fill="#efefef"/>
    <path id="Trazado_572" data-name="Trazado 572" d="M6979.317,7654.217a15.794,15.794,0,0,0-11.2,4.629.682.682,0,0,0-.005.964.69.69,0,0,0,.487.2.672.672,0,0,0,.476-.2,14.514,14.514,0,0,1,14.27-3.67,15.758,15.758,0,0,1,7.3,3.491.7.7,0,0,0-.126-.79,15.8,15.8,0,0,0-11.2-4.629" fill="#efefef"/>
    <path id="Trazado_573" data-name="Trazado 573" d="M6980.378,7663.435a7.3,7.3,0,0,0-5.166,2.134.7.7,0,0,0,0,.967.687.687,0,0,0,.968,0,5.937,5.937,0,0,1,8.4,0,.687.687,0,0,0,.969,0,.7.7,0,0,0,0-.967,7.348,7.348,0,0,0-.964-.809,7.262,7.262,0,0,0-1.841-.935,7.293,7.293,0,0,0-2.363-.39" fill="#a3a4a8"/>
    <path id="Trazado_574" data-name="Trazado 574" d="M6980.374,7648.721a22.933,22.933,0,0,0-16.256,6.721.694.694,0,0,0,0,.968.686.686,0,0,0,.968,0,21.634,21.634,0,0,1,30.58,0,.684.684,0,0,0,.968-.968q-.453-.453-.925-.875a22.871,22.871,0,0,0-10.685-5.375,23.172,23.172,0,0,0-4.65-.471" fill="#a3a4a8"/>
    <path id="Trazado_575" data-name="Trazado 575" d="M6980.378,7655.867a15.793,15.793,0,0,0-11.2,4.631.681.681,0,1,0,.958.968,14.486,14.486,0,0,1,19.7-.726c.266.231.525.472.778.726a.688.688,0,0,0,.968,0,.7.7,0,0,0,0-.968c-.073-.073-.146-.145-.22-.216-.234-.224-.471-.439-.714-.646a15.829,15.829,0,0,0-10.267-3.769" fill="#a3a4a8"/>
    <path id="Trazado_576" data-name="Trazado 576" d="M7171.92,7782.706a2.078,2.078,0,1,0,2.079,2.078,2.08,2.08,0,0,0-2.079-2.078" fill="#a3a4a8"/>
    <path id="Trazado_577" data-name="Trazado 577" d="M7171.92,7790.52A2.078,2.078,0,1,0,7174,7792.6a2.081,2.081,0,0,0-2.079-2.078" fill="#a3a4a8"/>
    <path id="Trazado_578" data-name="Trazado 578" d="M7171.92,7798.334a2.079,2.079,0,1,0,2.079,2.079,2.082,2.082,0,0,0-2.079-2.079" fill="#a3a4a8"/>
    <path id="Trazado_579" data-name="Trazado 579" d="M7219.95,7635.264a2.078,2.078,0,1,0,2.078,2.079,2.082,2.082,0,0,0-2.078-2.079" fill="#a3a4a8"/>
    <path id="Trazado_580" data-name="Trazado 580" d="M7219.95,7643.079a2.078,2.078,0,1,0,2.078,2.078,2.081,2.081,0,0,0-2.078-2.078" fill="#a3a4a8"/>
    <path id="Trazado_581" data-name="Trazado 581" d="M7219.95,7650.894a2.078,2.078,0,1,0,2.078,2.078,2.081,2.081,0,0,0-2.078-2.078" fill="#a3a4a8"/>
    <path id="Trazado_582" data-name="Trazado 582" d="M7122.379,7561.971h-4.852l-6.484,8.347,6.484,8.372h4.852l-6.508-8.372,6.508-8.347" fill="#a3a4a8"/>
    <path id="Trazado_583" data-name="Trazado 583" d="M7140.753,7561.971H7135.9l6.507,8.347-6.507,8.372h4.852l6.507-8.372-6.507-8.347" fill="#a3a4a8"/>
    <path id="Trazado_584" data-name="Trazado 584" d="M7136.679,7556.42h-3.291l-9.572,26.456h3.292l9.571-26.456" fill="#a3a4a8"/>
    <path id="Trazado_585" data-name="Trazado 585" d="M6975.867,7597.519a1.14,1.14,0,0,0-1.139,1.14v24.963a1.144,1.144,0,1,0,2.288,0v-24.963a1.146,1.146,0,0,0-1.149-1.14" fill="#a3a4a8"/>
    <path id="Trazado_586" data-name="Trazado 586" d="M7243.847,7711.365a.952.952,0,0,0-.95.951v20.808a.954.954,0,1,0,1.907,0v-20.808a.955.955,0,0,0-.957-.951" fill="#a3a4a8"/>
    <path id="Trazado_587" data-name="Trazado 587" d="M7243.847,7700.47a.953.953,0,0,0-.95.952v7.559a.954.954,0,1,0,1.907,0v-7.559a.956.956,0,0,0-.957-.952" fill="#a3a4a8"/>
    <path id="Trazado_588" data-name="Trazado 588" d="M7087.673,7608.15a2.078,2.078,0,1,0,2.078,2.078,2.081,2.081,0,0,0-2.078-2.078" fill="#a3a4a8"/>
    <path id="Trazado_589" data-name="Trazado 589" d="M7079.858,7608.15a2.078,2.078,0,1,0,2.078,2.078,2.082,2.082,0,0,0-2.078-2.078" fill="#a3a4a8"/>
    <path id="Trazado_590" data-name="Trazado 590" d="M7072.043,7608.15a2.078,2.078,0,1,0,2.079,2.078,2.082,2.082,0,0,0-2.079-2.078" fill="#a3a4a8"/>
    <path id="Trazado_591" data-name="Trazado 591" d="M7212.456,7776.434q-.651.418-1.321.809a4.964,4.964,0,0,1,.767.208,6.137,6.137,0,0,1,2.734,1.064.587.587,0,0,0-.082-.71,6.143,6.143,0,0,0-2.1-1.371" fill="#efefef"/>
    <path id="Trazado_592" data-name="Trazado 592" d="M7210.207,7776.01a6.151,6.151,0,0,0-4.349,1.8.589.589,0,0,0,0,.816.577.577,0,0,0,.408.168.571.571,0,0,0,.407-.168,4.973,4.973,0,0,1,3.534-1.465,5.063,5.063,0,0,1,.928.087q.669-.39,1.321-.809a6.161,6.161,0,0,0-2.249-.424" fill="#e6e6e6"/>
    <path id="Trazado_593" data-name="Trazado 593" d="M7221.9,7767.548c-.125.168-.254.335-.382.5a19.4,19.4,0,0,1,2.486,1.888.576.576,0,0,0-.113-.653,19.571,19.571,0,0,0-1.991-1.736" fill="#efefef"/>
    <path id="Trazado_594" data-name="Trazado 594" d="M7210.2,7763.628a19.3,19.3,0,0,0-13.68,5.656.585.585,0,0,0,0,.815.577.577,0,0,0,.814,0,18.234,18.234,0,0,1,17.668-4.686,19.241,19.241,0,0,1,6.51,2.636c.128-.166.257-.333.382-.5a19.319,19.319,0,0,0-11.694-3.92" fill="#e6e6e6"/>
    <path id="Trazado_595" data-name="Trazado 595" d="M7217.92,7772.092c-.175.172-.352.341-.531.509a13.3,13.3,0,0,1,2.35,1.6.584.584,0,0,0-.107-.664,13.348,13.348,0,0,0-1.712-1.446" fill="#efefef"/>
    <path id="Trazado_596" data-name="Trazado 596" d="M7210.207,7769.642a13.292,13.292,0,0,0-9.427,3.9.575.575,0,0,0,0,.811.581.581,0,0,0,.41.17.568.568,0,0,0,.4-.165,12.209,12.209,0,0,1,12.01-3.088,13.3,13.3,0,0,1,3.792,1.335c.179-.168.356-.337.531-.509a13.314,13.314,0,0,0-7.713-2.45" fill="#e6e6e6"/>
    <path id="Trazado_597" data-name="Trazado 597" d="M7211.1,7777.4c-.081,0-.163,0-.244,0a6.143,6.143,0,0,0-4.1,1.791.587.587,0,0,0,0,.815.581.581,0,0,0,.815,0,5,5,0,0,1,7.066,0,.581.581,0,0,0,.815,0,.587.587,0,0,0,0-.815,6.154,6.154,0,0,0-3.545-1.744,6.286,6.286,0,0,0-.8-.052" fill="#a3a4a8"/>
    <path id="Trazado_598" data-name="Trazado 598" d="M7211.094,7765.017a19.3,19.3,0,0,0-13.679,5.657.584.584,0,0,0,0,.814.577.577,0,0,0,.814,0,18.178,18.178,0,0,1,25.736,0,.578.578,0,0,0,.815,0,.579.579,0,0,0,0-.814q-.382-.381-.78-.737a19.347,19.347,0,0,0-12.906-4.92" fill="#a3a4a8"/>
    <path id="Trazado_599" data-name="Trazado 599" d="M7211.1,7771.031a13.3,13.3,0,0,0-9.427,3.9.573.573,0,0,0,.405.981.565.565,0,0,0,.4-.166,12.169,12.169,0,0,1,17.231,0,.578.578,0,0,0,.815,0,.588.588,0,0,0,0-.815c-.254-.254-.517-.495-.786-.725a13.347,13.347,0,0,0-8.639-3.171" fill="#a3a4a8"/>
    <path id="Trazado_600" data-name="Trazado 600" d="M6952.127,7618.834a3.511,3.511,0,1,0,3.52,3.519,3.515,3.515,0,0,0-3.52-3.519" fill="#a3a4a8"/>
    <path id="Trazado_601" data-name="Trazado 601" d="M6971.977,7571.252a5.028,5.028,0,1,0,5.039,5.038,5.033,5.033,0,0,0-5.039-5.038" fill="#a3a4a8"/>
    <path id="Trazado_602" data-name="Trazado 602" d="M7124.254,7672.281a1.726,1.726,0,0,1-2.055.5,1.726,1.726,0,0,0,.729,2.684,32.558,32.558,0,0,1,3.728,1.844,1.727,1.727,0,0,0,1.977-.2,1.723,1.723,0,0,1-.152-2.306,1.688,1.688,0,0,1,.223-.233,1.685,1.685,0,0,0-.355-.265,36.574,36.574,0,0,0-4.1-2.025" fill="#e6e6e6"/>
    <path id="Trazado_603" data-name="Trazado 603" d="M7026.268,7790.9a1.72,1.72,0,0,0,.406.679c5.427,5.678,15.293,13.222,31.435,16.947a2.053,2.053,0,0,0,.391.045,1.724,1.724,0,0,0,.391-3.4q-2.426-.56-4.654-1.234a1.75,1.75,0,0,1-.341.034,1.618,1.618,0,0,1-.391-.044c-12.622-2.915-21.408-8.163-27.237-13.023" fill="#e6e6e6"/>
    <path id="Trazado_604" data-name="Trazado 604" d="M7152.387,7763.488a28.722,28.722,0,0,1-33.971,44.2q-.7.516-1.423,1.014a28.712,28.712,0,0,0,35.394-45.217m-7.457-8.553a11.263,11.263,0,0,0-2.216.715q.866.434,1.7.923c.036-.115.067-.222.091-.316.148-.441.289-.88.426-1.322" fill="#efefef"/>
    <path id="Trazado_605" data-name="Trazado 605" d="M7112.065,7803.854a29.065,29.065,0,0,0,4.928,4.851q.72-.5,1.423-1.014a28.716,28.716,0,0,1-6.351-3.837m-34.034-10.957h0m-9.614-.75a61.456,61.456,0,0,0,9.555.75,61.47,61.47,0,0,1-9.555-.75m-.541-.087q.193.033.387.063-.194-.03-.387-.063m-6.738-2.081h0m-3.622-.565a10.935,10.935,0,0,0,3.52.566,10.931,10.931,0,0,1-3.52-.566m44.007-1.193-.135.055.135-.055m-67.313-8.7a64.94,64.94,0,0,0,26.659,17.713,64.918,64.918,0,0,0,44.78-.526,28.809,28.809,0,0,1-2.666-5.365,65.228,65.228,0,0,1-68.773-11.822m52.282-8.57-.242.335.242-.335m1.181-1.688q-.582.85-1.167,1.668.587-.819,1.167-1.668m5.5-1.333h0m-1.408-.206a4.635,4.635,0,0,0,1.347.206,4.635,4.635,0,0,1-1.347-.206m5.763-2.9c-.018.053-.038.106-.058.157.02-.051.04-.1.058-.157m10.441-2.01h0m-6.79-.318c2.317.2,4.546.316,6.62.318-2.074,0-4.3-.119-6.62-.318m-8.052-7.318a8.124,8.124,0,0,1,2.514.409,8.117,8.117,0,0,0-2.514-.409m-.027,0h0m-47.67-4.051h0m-1.365-.2a4.636,4.636,0,0,0,1.326.2,4.636,4.636,0,0,1-1.326-.2m-.08-.025.075.023-.075-.023m5.81-2.839c-.021.059-.044.117-.067.175.023-.058.046-.116.067-.175m60.464-28.645h0m-1.426-.213a4.658,4.658,0,0,0,1.345.213,4.691,4.691,0,0,1-1.345-.213m-.16-.053.1.034-.1-.034m3.559-.194c-.07.034-.142.066-.213.1.071-.031.143-.063.213-.1m-49.656-16.344h0m-1.619-.267a4.712,4.712,0,0,0,1.53.268,4.712,4.712,0,0,1-1.53-.268m-13.756-3.138c2.352,0,4.82.1,7.386.314a8.084,8.084,0,0,0,2.934,4.778h0a8.084,8.084,0,0,1-2.934-4.778c-2.567-.21-5.033-.314-7.386-.314m-.011,0h0m-.072-3.454q3.457,0,7.216.291-3.753-.291-7.216-.291m-.016,0h0m7.86-.767c-.013.034-.027.068-.039.1.012-.034.026-.068.039-.1m14.115-3.4c-.062.087-.122.173-.183.26.061-.087.121-.173.183-.26m.23-.325-.222.313.222-.313m-6.786-1.415a8.026,8.026,0,0,1,2.591.434,8.031,8.031,0,0,0-2.591-.434m-.014,0h0m63.685-2.778a65.5,65.5,0,0,1,13.714,64.592c-.07.275-.195.657-.324,1.039-.121.335-.229.629-.361.923-.047.152-.117.334-.175.5a28.628,28.628,0,0,1,3.671,1.528,11.263,11.263,0,0,1,2.216-.715,65.646,65.646,0,0,0-18.741-67.867m-31.307-15.015a10.856,10.856,0,0,1,3.626.6c7.176,2.527,11.263,12.864,11.265,27.673,0-14.809-4.089-25.146-11.265-27.673a10.831,10.831,0,0,0-3.626-.6m-.008,0h0" fill="#e6e6e6"/>
    <path id="Trazado_606" data-name="Trazado 606" d="M7138.3,7681.448a60.037,60.037,0,0,1,14.325,29.608,70.985,70.985,0,0,1,2.436,19.239,1.7,1.7,0,0,0,1.7,1.725h.023a1.718,1.718,0,0,0,1.725-1.7c.083-24.879-10.375-40.077-20.211-48.869m-5.575-.788a1.677,1.677,0,0,0,.651,1.16c.816.644,1.646,1.336,2.48,2.076-1.035-1.161-2.083-2.237-3.131-3.236" fill="#e6e6e6"/>
    <path id="Trazado_607" data-name="Trazado 607" d="M7021.863,7780.577a1.755,1.755,0,0,0-.754.171,1.5,1.5,0,0,0-.143.077,1.722,1.722,0,0,1-.728,1.482c-.033.024-.068.046-.1.067a1.775,1.775,0,0,0,.169.673,21.437,21.437,0,0,0,1.34,2.288,1.725,1.725,0,0,1,2.908-.739q.48.5,1.011,1.022a1.732,1.732,0,0,0-.315-1.123,21.2,21.2,0,0,1-1.816-2.944,1.743,1.743,0,0,0-1.569-.974" fill="#e6e6e6"/>
    <path id="Trazado_608" data-name="Trazado 608" d="M7110.221,7710.1a4.658,4.658,0,0,0-1.551,9.051h0l.1.034.059.019a4.691,4.691,0,0,0,1.345.213h.081a4.618,4.618,0,0,0,1.76-.363c.071-.031.143-.063.213-.1h0a4.652,4.652,0,0,0-1.213-8.786h-.022l-.022-.007a4.649,4.649,0,0,0-.751-.063" fill="#fff"/>
    <path id="Trazado_609" data-name="Trazado 609" d="M7062.506,7693.3a4.656,4.656,0,0,0-1.552,9.047h0a4.712,4.712,0,0,0,1.53.268h.089a4.657,4.657,0,0,0-.067-9.314" fill="#fff"/>
    <path id="Trazado_610" data-name="Trazado 610" d="M7115.536,7720.831a7.516,7.516,0,0,1-4.852,1.985,141.613,141.613,0,0,1-5.027,17.955,139.828,139.828,0,0,1-7.032,16.551,8.131,8.131,0,0,1,2.551,5.171h0c2.317.2,4.546.316,6.62.318h.17a28.687,28.687,0,0,1,27.641-9.633,9.168,9.168,0,0,0,.445-.922c.119-.266.2-.48.271-.692.092-.275.195-.585.278-.9a10.942,10.942,0,0,0,.338-2.717c.013-7.944-7.866-18-21.4-27.119" fill="#fff"/>
    <path id="Trazado_611" data-name="Trazado 611" d="M7108.349,7677.147c3.182,5.5,4.876,13.42,4.875,23.155q0,3.284-.26,6.835a8.1,8.1,0,0,1,4.9,10.312c-.074.212-.19.4-.28.6,11.069,7.478,18.47,15.52,21.389,22.984a61.3,61.3,0,0,0,.8-9.844,62.354,62.354,0,0,0-31.417-54.045" fill="#efefef"/>
    <path id="Trazado_612" data-name="Trazado 612" d="M7094.874,7672.053h-.183c-7.478.112-16.741,7.067-25.387,19.208l-.222.313-.008.012c-.062.087-.122.173-.183.26-.15.213-.3.429-.448.645h0a8.079,8.079,0,0,1,1.368,1.962,7.9,7.9,0,0,1,.764,3.424c0,.192-.005.383-.017.575a143.059,143.059,0,0,1,33.11,11.6,8.1,8.1,0,0,1,5.871-3.351q.235-3.3.234-6.368c0-14.809-4.089-25.146-11.265-27.673a10.856,10.856,0,0,0-3.626-.6h-.008" fill="#fff"/>
    <path id="Trazado_613" data-name="Trazado 613" d="M7045.414,7741.813a4.6,4.6,0,0,0-3.9,2.133l-.017.04-.039.037a4.748,4.748,0,0,0-.44.9,4.662,4.662,0,0,0,2.848,5.94l.111.037.075.023,0,0a4.636,4.636,0,0,0,1.326.2h.039a4.67,4.67,0,0,0,4.3-2.886c.023-.058.046-.116.067-.175l.017-.045a4.661,4.661,0,0,0-2.845-5.941,4.7,4.7,0,0,0-1.55-.264" fill="#fff"/>
    <path id="Trazado_614" data-name="Trazado 614" d="M7093.128,7758.614a4.675,4.675,0,0,0-4.389,3.113,4.705,4.705,0,0,0-.266,1.573,4.669,4.669,0,0,0,3.112,4.367c.059.021.118.04.177.058a4.635,4.635,0,0,0,1.347.206h.061a4.672,4.672,0,0,0,4.3-2.953c.02-.051.04-.1.058-.157h0a4.681,4.681,0,0,0,.212-.875l0-.027.013-.044a4.851,4.851,0,0,0,.038-.6,4.664,4.664,0,0,0-4.657-4.662" fill="#fff"/>
    <path id="Trazado_615" data-name="Trazado 615" d="M7069.619,7701.779a7.876,7.876,0,0,1-9,4.032,139.522,139.522,0,0,0-11.829,33.331,8.018,8.018,0,0,1,3.938,3.827,7.869,7.869,0,0,1,.774,3.439,8.294,8.294,0,0,1-.3,2.18,141.287,141.287,0,0,0,16.155,6.854,138.916,138.916,0,0,0,16.351,4.666,8,8,0,0,1,7.334-4.933h.082a8.117,8.117,0,0,1,2.514.409h0a138.754,138.754,0,0,0,11.631-33.3,8.085,8.085,0,0,1-4.976-9.068,139.664,139.664,0,0,0-32.674-11.436" fill="#efefef"/>
    <path id="Trazado_616" data-name="Trazado 616" d="M7100.788,7765.922l-.011.044a8.035,8.035,0,0,1-10.094,5.017c-7.467,10.972-15.419,18.228-22.807,21.077h0q.193.033.387.063c.051.008.1.017.154.024a61.47,61.47,0,0,0,9.555.75h.059a61.661,61.661,0,0,0,23.357-4.621l.135-.055.448-.187a28.556,28.556,0,0,1-.817-6.685h0a28.545,28.545,0,0,1,4.358-15.144q-2.291-.077-4.724-.283" fill="#efefef"/>
    <path id="Trazado_617" data-name="Trazado 617" d="M7077.885,7669.125h-.042a61.57,61.57,0,0,0-26.013,5.806l-.24.112-.36.172h0a61.409,61.409,0,0,0-27.153,25.4c.075-.044.151-.087.227-.13l.1-.058.107-.06.3-.162c5.42-2.9,13.009-4.445,22.25-4.449h.054q3.458,0,7.216.291l.329.026c.066-.27.1-.542.2-.81.02-.058.041-.115.063-.172.012-.034.026-.068.039-.1a8.117,8.117,0,0,1,7.506-5.141h.053a8.031,8.031,0,0,1,2.591.434l.085.03c.15.052.282.137.428.2,7.359-10.675,15.183-17.738,22.454-20.534h0l-.23-.038a61.692,61.692,0,0,0-9.943-.813h-.018" fill="#efefef"/>
    <path id="Trazado_618" data-name="Trazado 618" d="M7127.616,7779.019c-1.564,0-2.289,1.5-2.289,4.8s.659,5.006,2.308,5.006a1.751,1.751,0,0,0,1.659-1.142v-7.591a1.753,1.753,0,0,0-1.678-1.072m18-4.262a7.956,7.956,0,0,1,.086,1.16,7.784,7.784,0,0,1-1.777,4.958h.953c1.979,0,2.91-1.006,2.91-3.152,0-1.715-.792-2.757-2.172-2.966m-16.322,2.065v-7a1.725,1.725,0,0,1,1.725-1.724h6.861a7.829,7.829,0,0,1,6.959,4.252h.632a4.786,4.786,0,0,1,5.044,3.745,5.939,5.939,0,0,1-5.9,7.133h-1.07a.505.505,0,0,0-.5.506v6.719a.505.505,0,0,1-.506.506h-1.882a.506.506,0,0,1-.507-.506V7783.4a7.779,7.779,0,0,1-2.266.335h-.579v6.713a.505.505,0,0,1-.507.506h-1.882a.505.505,0,0,1-.506-.506v-6.713h-1.655v.025c0,.194,0,.385-.008.571v9.872a1.725,1.725,0,1,1-3.449,0v-3.235a5.568,5.568,0,0,1-1.727.252c-2.5,0-4.11-1.259-4.776-4v6.979a1.725,1.725,0,1,1-3.449,0v-6.829l-.812,3.2a.506.506,0,0,1-.491.381h-2.608a.5.5,0,0,1-.491-.384l-4.364-17.6a.506.506,0,0,1,.491-.628h2.059a.508.508,0,0,1,.5.4l1.738,7.818c.562,2.518,1.145,5.443,1.372,7.33h.055c.228-1.794.983-4.785,1.544-7.281l1.012-4.623v-6.168a1.725,1.725,0,0,1,3.449,0v2.615a.507.507,0,0,1,.205.544l-.205.808v6.9c.712-2.787,2.475-4.086,4.919-4.086a5.334,5.334,0,0,1,1.584.224m.6-20.768a25.294,25.294,0,1,0,25.293,25.295,25.324,25.324,0,0,0-25.293-25.295" fill="#efefef"/>
    <path id="Trazado_619" data-name="Trazado 619" d="M7122.791,7773.787l-3.449,13.59v6.829a1.725,1.725,0,1,0,3.449,0v-6.979a14.534,14.534,0,0,1-.348-3.4,12.774,12.774,0,0,1,.348-3.145v-6.9m-1.725-5.691a1.725,1.725,0,0,0-1.724,1.724v6.168l.71-3.243a.507.507,0,0,1,.494-.4h1.961a.5.5,0,0,1,.284.087v-2.615a1.725,1.725,0,0,0-1.725-1.724" fill="#efefef"/>
    <path id="Trazado_620" data-name="Trazado 620" d="M7132.743,7784.334c-.107,3.77-1.295,5.937-3.449,6.637v3.235a1.725,1.725,0,1,0,3.449,0v-9.872m-3.449-4.243v7.591a9.466,9.466,0,0,0,.573-3.841,8.857,8.857,0,0,0-.573-3.75m15.781-5.374h-1.529a.507.507,0,0,0-.5.507v5.145a.506.506,0,0,0,.5.506h.379a7.784,7.784,0,0,0,1.777-4.958,7.956,7.956,0,0,0-.086-1.16,3.5,3.5,0,0,0-.541-.04m-7.2-6.621h-6.861a1.725,1.725,0,0,0-1.725,1.724v7c2.256.7,3.452,3.03,3.457,6.916h1.655v-10.884a.505.505,0,0,1,.506-.506h1.882a.505.505,0,0,1,.507.506v10.884h.579a7.779,7.779,0,0,0,2.266-.335v-10.549a.506.506,0,0,1,.507-.506h4.186a7.829,7.829,0,0,0-6.959-4.252" fill="#efefef"/>
    <path id="Trazado_621" data-name="Trazado 621" d="M7047.187,7699.209h-.034c-14.676.007-24.915,4.03-27.509,11.155h0l-.04.1-.035.112a10.976,10.976,0,0,0-.57,3.559c.011,7.821,7.555,17.589,20.742,26.589a7.743,7.743,0,0,1,5.679-2.334,143.353,143.353,0,0,1,12.1-34.09,8.084,8.084,0,0,1-2.934-4.778c-2.566-.21-5.034-.313-7.386-.314h-.011" fill="#fff"/>
    <path id="Trazado_622" data-name="Trazado 622" d="M7016.928,7720.942a61.24,61.24,0,0,0-.825,10,62.075,62.075,0,0,0,31.472,53.958c-3.18-5.483-4.868-13.392-4.865-23.12q0-3.631.319-7.589c-.1-.031-.2-.043-.3-.079a8.1,8.1,0,0,1-4.954-10.336l.079-.17c-10.888-7.419-18.085-15.319-20.923-22.668" fill="#efefef"/>
    <path id="Trazado_623" data-name="Trazado 623" d="M7051.623,7751.655a8.137,8.137,0,0,1-5.158,2.84c-.205,2.548-.3,5-.3,7.334.011,14.754,4.073,25.021,11.244,27.547l.11.038a10.931,10.931,0,0,0,3.52.566h.1c7.392-.056,16.529-6.813,25.112-18.692l.242-.335.014-.02q.587-.819,1.167-1.668h0a8.022,8.022,0,0,1-2.63-5.771,141.84,141.84,0,0,1-16.831-4.8,144.5,144.5,0,0,1-16.589-7.038" fill="#fff"/>
    <path id="Trazado_624" data-name="Trazado 624" d="M7129.837,7674.148a1.724,1.724,0,0,0-1.133.423,1.688,1.688,0,0,0-.223.233,1.723,1.723,0,0,0,.152,2.306c.042.041.086.08.133.118,1.3,1.022,2.627,2.164,3.957,3.432,1.048,1,2.1,2.075,3.131,3.236,7.728,8.668,14.671,21.982,14.6,41.8a1.725,1.725,0,0,0,1.718,1.732h.006a1.726,1.726,0,0,0,1.725-1.718,77.99,77.99,0,0,0-1.279-14.658,59.206,59.206,0,0,0-21.718-36.537,1.719,1.719,0,0,0-1.068-.371" fill="#a3a4a8"/>
    <path id="Trazado_625" data-name="Trazado 625" d="M7093.126,7771.381a8.116,8.116,0,0,0,7.651-5.415l.011-.044q2.435.209,4.724.283h0a28.268,28.268,0,0,0-3.541,21.829h0l-.448.187-.135.055a61.661,61.661,0,0,1-23.357,4.621h-.059a61.456,61.456,0,0,1-9.555-.75c-.051-.007-.1-.016-.154-.024q-.194-.03-.387-.063h0c7.388-2.849,15.34-10.1,22.807-21.077a8.077,8.077,0,0,0,2.443.4m-4.653-8.081a4.705,4.705,0,0,1,.266-1.573,4.675,4.675,0,0,1,4.389-3.113,4.664,4.664,0,0,1,4.657,4.662,4.851,4.851,0,0,1-.038.6l-.013.044,0,.027h0a4.681,4.681,0,0,1-.212.875h0c-.018.053-.038.106-.058.157a4.672,4.672,0,0,1-4.3,2.953h-.061a4.635,4.635,0,0,1-1.347-.206c-.059-.018-.118-.037-.177-.058a4.669,4.669,0,0,1-3.112-4.367m16.13,18.049h0a25.294,25.294,0,1,1,50.588,0h0a25.294,25.294,0,1,1-50.588,0m-58.441-19.52c0-2.336.1-4.786.3-7.334a8.137,8.137,0,0,0,5.158-2.84,144.5,144.5,0,0,0,16.589,7.038,141.84,141.84,0,0,0,16.831,4.8,8.022,8.022,0,0,0,2.63,5.771h0q-.582.85-1.167,1.668l-.014.02-.242.335c-8.583,11.879-17.72,18.636-25.112,18.692h-.1a10.935,10.935,0,0,1-3.52-.566l-.11-.038c-7.171-2.526-11.233-12.793-11.244-27.547m-5.4-15.359a4.648,4.648,0,0,1,.263-1.545,4.748,4.748,0,0,1,.44-.9l.039-.037.017-.04a4.6,4.6,0,0,1,3.9-2.133,4.7,4.7,0,0,1,1.55.264,4.653,4.653,0,0,1,2.845,5.941l-.017.045c-.021.059-.044.117-.067.175a4.67,4.67,0,0,1-4.3,2.886h-.039a4.636,4.636,0,0,1-1.326-.2l0,0-.075-.023-.111-.037a4.674,4.674,0,0,1-3.111-4.4m-24.657-15.524a61.24,61.24,0,0,1,.825-10c2.838,7.349,10.035,15.249,20.923,22.668h0l-.079.17a8.1,8.1,0,0,0,4.954,10.336c.1.036.2.048.3.079h0q-.319,3.954-.319,7.589c0,9.728,1.685,17.637,4.865,23.12h0a62.075,62.075,0,0,1-31.472-53.958m82.522,26.376h0a139.828,139.828,0,0,0,7.032-16.551,141.613,141.613,0,0,0,5.027-17.955,7.516,7.516,0,0,0,4.852-1.985c13.537,9.121,21.416,19.175,21.4,27.119a10.942,10.942,0,0,1-.338,2.717c-.083.312-.186.622-.278.9-.076.212-.152.426-.271.692a9.168,9.168,0,0,1-.445.922,28.687,28.687,0,0,0-27.641,9.633h-.17c-2.074,0-4.3-.119-6.62-.318h0a8.131,8.131,0,0,0-2.551-5.171h0m6.933-42.539a4.651,4.651,0,0,1,5.414-4.619l.022.007h.022a4.592,4.592,0,0,1,.749.193,4.658,4.658,0,0,1,.464,8.593h0c-.07.034-.142.066-.213.1a4.618,4.618,0,0,1-1.76.363h-.081a4.658,4.658,0,0,1-1.345-.213l-.059-.019-.1-.034h0a4.676,4.676,0,0,1-3.112-4.369m-43.049-8.717a8.05,8.05,0,0,0,7.11-4.287,139.664,139.664,0,0,1,32.674,11.436h0a8.085,8.085,0,0,0,4.976,9.068h0a138.754,138.754,0,0,1-11.631,33.3h0a8.124,8.124,0,0,0-2.514-.409h-.082a8,8,0,0,0-7.334,4.933,138.916,138.916,0,0,1-16.351-4.666,141.287,141.287,0,0,1-16.155-6.854h0a8.294,8.294,0,0,0,.3-2.18,7.869,7.869,0,0,0-.774-3.439,8.018,8.018,0,0,0-3.938-3.827h0a139.522,139.522,0,0,1,11.829-33.331,8.027,8.027,0,0,0,1.891.255m-15.356-6.857h.045c2.353,0,4.819.1,7.386.314a8.084,8.084,0,0,0,2.934,4.778h0a143.353,143.353,0,0,0-12.1,34.09,7.743,7.743,0,0,0-5.679,2.334c-13.187-9-20.731-18.768-20.742-26.589a10.976,10.976,0,0,1,.57-3.559l.035-.112.04-.1h0c2.594-7.125,12.833-11.148,27.509-11.155m10.692-1.256a4.651,4.651,0,1,1,4.728,4.661h-.089a4.712,4.712,0,0,1-1.53-.268h0a4.667,4.667,0,0,1-3.109-4.394m55.379,2.349c0-9.735-1.693-17.659-4.875-23.155h0a62.354,62.354,0,0,1,31.417,54.045,61.3,61.3,0,0,1-.8,9.844c-2.919-7.464-10.32-15.506-21.389-22.984h0c.09-.2.206-.391.28-.6a8.1,8.1,0,0,0-4.9-10.312h0q.261-3.548.26-6.835m-18.533-28.248h.191a10.831,10.831,0,0,1,3.626.6c7.176,2.527,11.263,12.864,11.265,27.673q0,3.062-.234,6.368a8.1,8.1,0,0,0-5.871,3.351,143.059,143.059,0,0,0-33.11-11.6h0c.012-.192.018-.383.017-.575a7.9,7.9,0,0,0-.764-3.424,8.079,8.079,0,0,0-1.368-1.962h0c.149-.216.3-.432.448-.645.061-.087.121-.173.183-.26l.008-.012.222-.313c8.646-12.141,17.909-19.1,25.387-19.208m-16.848-2.929h.06a61.582,61.582,0,0,1,9.943.813l.23.038h0c-7.271,2.8-15.1,9.859-22.454,20.534-.146-.062-.278-.147-.428-.2l-.085-.03a8.026,8.026,0,0,0-2.591-.434h-.053a8.117,8.117,0,0,0-7.506,5.141c-.013.034-.027.068-.039.1-.022.057-.043.114-.063.172-.094.268-.131.54-.2.81l-.329-.026q-3.753-.291-7.216-.291h-.054c-9.241,0-16.83,1.545-22.25,4.449l-.3.162-.107.06-.1.058c-.076.043-.152.086-.227.13h0a61.409,61.409,0,0,1,27.153-25.4h0l.36-.172.24-.112a61.57,61.57,0,0,1,26.013-5.806m.063-3.467A65.432,65.432,0,0,0,7016.4,7709.2l-.053.124-.036.133a65.263,65.263,0,0,0,86.673,81.89,28.907,28.907,0,0,0,15.433,16.347,28.718,28.718,0,0,0,33.971-44.2,28.976,28.976,0,0,0-7.974-6.915q-.833-.489-1.7-.923a28.628,28.628,0,0,0-3.671-1.528c.058-.166.128-.348.175-.5.132-.294.24-.588.361-.923.129-.382.254-.764.324-1.039a65.5,65.5,0,0,0-13.714-64.592,64.649,64.649,0,0,0-26.535-17.666,65.411,65.411,0,0,0-21.748-3.744" fill="#a3a4a8"/>
    <path id="Trazado_626" data-name="Trazado 626" d="M7118.95,7667.532a1.726,1.726,0,0,0-.621,3.335,32.778,32.778,0,0,1,3.727,1.844c.047.026.095.05.143.072a1.726,1.726,0,0,0,2.055-.5,1.767,1.767,0,0,0,.152-.226,1.727,1.727,0,0,0-.656-2.349,34.546,34.546,0,0,0-4.184-2.058,1.684,1.684,0,0,0-.616-.116" fill="#a3a4a8"/>
    <path id="Trazado_627" data-name="Trazado 627" d="M7023.307,7784.066a1.725,1.725,0,0,0-1.243,2.92,51.547,51.547,0,0,0,4.2,3.914c5.829,4.86,14.615,10.108,27.237,13.023a1.618,1.618,0,0,0,.391.044,1.75,1.75,0,0,0,.341-.034,1.724,1.724,0,0,0,.045-3.369c-14.351-3.318-23.429-9.761-28.719-14.946q-.531-.519-1.011-1.022a1.72,1.72,0,0,0-1.245-.53" fill="#a3a4a8"/>
    <path id="Trazado_628" data-name="Trazado 628" d="M7017.265,7775.975a1.723,1.723,0,0,0-1.554,2.464,25.818,25.818,0,0,0,2.124,3.455,1.72,1.72,0,0,0,2.3.48c.035-.021.07-.043.1-.067a1.723,1.723,0,0,0,.413-2.4,23.31,23.31,0,0,1-1.828-2.951,1.731,1.731,0,0,0-1.558-.978" fill="#a3a4a8"/>
    <path id="Trazado_629" data-name="Trazado 629" d="M7122.507,7772.348h-1.961a.507.507,0,0,0-.494.4l-.71,3.243-1.012,4.623c-.561,2.5-1.316,5.487-1.544,7.281h-.055c-.227-1.887-.81-4.812-1.372-7.33l-1.738-7.818a.508.508,0,0,0-.5-.4h-2.059a.506.506,0,0,0-.491.628l4.364,17.6a.5.5,0,0,0,.491.384h2.608a.506.506,0,0,0,.491-.381l.812-3.2,3.449-13.59.205-.808a.5.5,0,0,0-.489-.631" fill="#a3a4a8"/>
    <path id="Trazado_630" data-name="Trazado 630" d="M7127.635,7788.824c-1.649,0-2.308-1.7-2.308-5.006s.725-4.8,2.289-4.8a1.753,1.753,0,0,1,1.678,1.072,8.857,8.857,0,0,1,.573,3.75,9.466,9.466,0,0,1-.573,3.841,1.751,1.751,0,0,1-1.659,1.142m.075-12.226c-2.444,0-4.207,1.3-4.919,4.086a12.774,12.774,0,0,0-.348,3.145,14.534,14.534,0,0,0,.348,3.4c.666,2.737,2.279,4,4.776,4a5.568,5.568,0,0,0,1.727-.252c2.154-.7,3.342-2.867,3.449-6.637.006-.186.008-.377.008-.571v-.025c0-3.886-1.2-6.217-3.457-6.916a5.334,5.334,0,0,0-1.584-.224" fill="#a3a4a8"/>
    <path id="Trazado_631" data-name="Trazado 631" d="M7136.794,7772.348h-1.882a.505.505,0,0,0-.506.506v17.6a.505.505,0,0,0,.506.506h1.882a.505.505,0,0,0,.507-.506v-17.6a.505.505,0,0,0-.507-.506" fill="#a3a4a8"/>
    <path id="Trazado_632" data-name="Trazado 632" d="M7143.546,7780.875a.506.506,0,0,1-.5-.506v-5.145a.507.507,0,0,1,.5-.507h1.529a3.5,3.5,0,0,1,.541.04c1.38.209,2.172,1.251,2.172,2.966,0,2.146-.931,3.152-2.91,3.152h-1.332m1.925-8.527h-4.818a.506.506,0,0,0-.507.506v17.6a.506.506,0,0,0,.507.506h1.882a.505.505,0,0,0,.506-.506v-6.719a.505.505,0,0,1,.5-.506h1.07a5.939,5.939,0,0,0,5.9-7.133,4.786,4.786,0,0,0-5.044-3.745" fill="#a3a4a8"/>
    <path id="Trazado_633" data-name="Trazado 633" d="M6999.943,7743.858v.725a1.441,1.441,0,0,1-1.438,1.44h-2.018v4.375l-5.05-3.626H6982.4l-2,1.437a1.436,1.436,0,0,0,1.128.548h10.694l6.094,4.375v-4.375h1.928a40.42,40.42,0,0,0-.295-4.9m-12.051-13.256h-13.1a.813.813,0,0,0,0,1.626h13.1a.813.813,0,0,0,0-1.626m4.675-.119h-.382v10.491a1.442,1.442,0,0,1-1.44,1.439h-10.7l-4.271,3.066v4.042l4.873-3.5h-.953a1.435,1.435,0,0,1-1.128-.548l2-1.437h10.171a3.067,3.067,0,0,0,3.064-3.064v-9.614h.083a1.444,1.444,0,0,0-1.325-.877" fill="#efefef"/>
    <path id="Trazado_634" data-name="Trazado 634" d="M7000.327,7734.094h-.384v9.764a40.42,40.42,0,0,1,.295,4.9h.089a1.442,1.442,0,0,0,1.439-1.44v-11.784a1.441,1.441,0,0,0-1.439-1.439" fill="#e6e6e6"/>
    <path id="Trazado_635" data-name="Trazado 635" d="M6956.19,7750.466c6.321,10.245,17.5,19.263,27.908,21.418a2.593,2.593,0,0,0,.528.055,2.393,2.393,0,0,0,1.693-.705,35.276,35.276,0,0,0,3.853-4.361,3.184,3.184,0,0,0-.712-4.507l-.481-.34a3.068,3.068,0,0,1-.628,2.114,35.451,35.451,0,0,1-3.855,4.36,2.394,2.394,0,0,1-1.694.705,2.639,2.639,0,0,1-.526-.054c-9.468-1.961-19.579-9.6-26.086-18.685m17.766-8.053h-1.634v1.294a1.442,1.442,0,0,0,1.44,1.439h.194v-2.733m-9.856-4.148a3.35,3.35,0,0,1-.225,2.986l-2.2,3.8c.6.838,1.256,1.68,1.947,2.517l2.077-3.586a3.36,3.36,0,0,0-.167-3.695l-1.431-2.025m11.711-.33h-1.019a.812.812,0,1,0,0,1.624h13.1a.812.812,0,0,0,.813-.811.769.769,0,0,0-.009-.121h-12.082a.81.81,0,0,1-.8-.692m0-3.666h-1.019a.813.813,0,1,0,0,1.625h13.1a.813.813,0,0,0,.813-.813.727.727,0,0,0-.009-.119h-12.082a.812.812,0,0,1-.8-.693" fill="#efefef"/>
    <path id="Trazado_636" data-name="Trazado 636" d="M6998.5,7731.36h-4.7v9.614a3.067,3.067,0,0,1-3.064,3.064h-10.171l-2,1.437a1.435,1.435,0,0,0,1.128.548h10.695l1.043.749,5.05,3.626v-4.375h2.018a1.441,1.441,0,0,0,1.438-1.44V7732.8a1.44,1.44,0,0,0-1.438-1.44m-41.9-1.475a3.068,3.068,0,0,0-1.871.636,35.344,35.344,0,0,0-4.36,3.855,2.4,2.4,0,0,0-.651,2.219,37.56,37.56,0,0,0,6.468,13.871c6.507,9.08,16.618,16.724,26.086,18.685a2.639,2.639,0,0,0,.526.054,2.394,2.394,0,0,0,1.694-.705,35.451,35.451,0,0,0,3.855-4.36,3.068,3.068,0,0,0,.628-2.114q-.01-.144-.034-.291a3.077,3.077,0,0,0-1.307-2.1l-6.322-4.469a3.36,3.36,0,0,0-3.695-.167l-3.8,2.2a56.985,56.985,0,0,1-10.2-9.627c-.691-.837-1.343-1.679-1.947-2.517l2.2-3.8a3.35,3.35,0,0,0,.225-2.986,3.553,3.553,0,0,0-.391-.709l-4.468-6.321a3.091,3.091,0,0,0-2.1-1.308,3.527,3.527,0,0,0-.534-.042m19.207,8.05h12.081a.813.813,0,0,1,.8.692.769.769,0,0,1,.009.121.812.812,0,0,1-.813.811h-13.1a.812.812,0,1,1,0-1.624h1.019m0-3.666h12.081a.813.813,0,0,1,.8.693.727.727,0,0,1,.009.119.813.813,0,0,1-.813.813h-13.1a.813.813,0,1,1,0-1.625h1.019m-1.019-2.041a.813.813,0,0,1,0-1.626h13.1a.813.813,0,0,1,0,1.626h-13.1m15.953-4.478h-18.806a1.443,1.443,0,0,0-1.44,1.44v11.784a1.442,1.442,0,0,0,1.44,1.439h2.017v4.375l1.823-1.309,4.271-3.066h10.7a1.442,1.442,0,0,0,1.44-1.439V7729.19a1.443,1.443,0,0,0-1.44-1.44" fill="#a3a4a8"/>
    <path id="Trazado_637" data-name="Trazado 637" d="M7207.318,7733.055a.844.844,0,0,1,0-1.688h2.877a.844.844,0,1,1,0,1.688h-2.877m-7.245-41.21h21.972v35.809h-26.577v-35.809h4.605m5.549-3.694a.844.844,0,1,1,0-1.688h.295a.844.844,0,1,1,0,1.688h-.295m3.4,0a.844.844,0,0,1,0-1.688h2.868a.844.844,0,0,1,0,1.688h-2.868m11.39-5.4H7197.1a4.22,4.22,0,0,0-4.218,4.219v45.562a4.22,4.22,0,0,0,4.218,4.219h23.313a4.22,4.22,0,0,0,4.219-4.219v-45.562a4.22,4.22,0,0,0-4.219-4.219" fill="#a3a4a8"/>
    <path id="Trazado_638" data-name="Trazado 638" d="M7248.266,7666.367a1.266,1.266,0,0,0-1.264,1.266v15.542a1.266,1.266,0,0,0,2.532,0v-15.542a1.269,1.269,0,0,0-1.268-1.266" fill="#a3a4a8"/>
    <path id="Trazado_639" data-name="Trazado 639" d="M7240,7666.367a1.268,1.268,0,0,0-1.268,1.266v15.542a1.269,1.269,0,0,0,2.537,0v-15.542a1.269,1.269,0,0,0-1.269-1.266" fill="#a3a4a8"/>
    <path id="Trazado_640" data-name="Trazado 640" d="M7244.132,7671a1.266,1.266,0,0,0-1.262,1.266v6.283a1.265,1.265,0,0,0,2.531,0v-6.283a1.269,1.269,0,0,0-1.269-1.266" fill="#a3a4a8"/>
    <path id="Trazado_641" data-name="Trazado 641" d="M7252.4,7673.312a1.266,1.266,0,0,0-1.264,1.265v1.653a1.266,1.266,0,0,0,2.532,0v-1.653a1.268,1.268,0,0,0-1.268-1.265" fill="#a3a4a8"/>
    <path id="Trazado_642" data-name="Trazado 642" d="M7227.6,7673.312a1.268,1.268,0,0,0-1.269,1.265v1.653a1.266,1.266,0,0,0,2.532,0v-1.653a1.266,1.266,0,0,0-1.263-1.265" fill="#a3a4a8"/>
    <path id="Trazado_643" data-name="Trazado 643" d="M7231.735,7668.682a1.269,1.269,0,0,0-1.269,1.265v10.913a1.266,1.266,0,0,0,2.532,0v-10.913a1.266,1.266,0,0,0-1.263-1.265" fill="#a3a4a8"/>
    <path id="Trazado_644" data-name="Trazado 644" d="M7235.867,7661.738A1.267,1.267,0,0,0,7234.6,7663v24.8a1.265,1.265,0,0,0,2.531,0V7663a1.264,1.264,0,0,0-1.263-1.265" fill="#a3a4a8"/>
    <path id="Trazado_645" data-name="Trazado 645" d="M6968.266,7696.367a1.265,1.265,0,0,0-1.263,1.266v15.541a1.266,1.266,0,0,0,2.531,0v-15.541a1.269,1.269,0,0,0-1.268-1.266" fill="#a3a4a8"/>
    <path id="Trazado_646" data-name="Trazado 646" d="M6960,7696.367a1.268,1.268,0,0,0-1.268,1.266v15.541a1.268,1.268,0,0,0,2.536,0v-15.541a1.268,1.268,0,0,0-1.268-1.266" fill="#a3a4a8"/>
    <path id="Trazado_647" data-name="Trazado 647" d="M6964.133,7701a1.265,1.265,0,0,0-1.263,1.266v6.283a1.265,1.265,0,0,0,2.531,0v-6.283a1.268,1.268,0,0,0-1.268-1.266" fill="#a3a4a8"/>
    <path id="Trazado_648" data-name="Trazado 648" d="M6972.4,7703.311a1.267,1.267,0,0,0-1.263,1.267v1.652a1.266,1.266,0,0,0,2.532,0v-1.652a1.269,1.269,0,0,0-1.269-1.267" fill="#a3a4a8"/>
    <path id="Trazado_649" data-name="Trazado 649" d="M6947.6,7703.311a1.269,1.269,0,0,0-1.269,1.267v1.652a1.265,1.265,0,0,0,2.531,0v-1.652a1.265,1.265,0,0,0-1.262-1.267" fill="#a3a4a8"/>
    <path id="Trazado_650" data-name="Trazado 650" d="M6951.734,7698.682a1.268,1.268,0,0,0-1.268,1.265v10.913a1.266,1.266,0,0,0,2.531,0v-10.913a1.265,1.265,0,0,0-1.263-1.265" fill="#a3a4a8"/>
    <path id="Trazado_651" data-name="Trazado 651" d="M6955.867,7691.738A1.268,1.268,0,0,0,6954.6,7693v24.8a1.266,1.266,0,0,0,2.532,0V7693a1.266,1.266,0,0,0-1.264-1.265" fill="#a3a4a8"/>
  </g>
</svg>
