<svg xmlns="http://www.w3.org/2000/svg" width="25" height="25" viewBox="0 0 25 25">
  <g id="Grupo_2121" data-name="Grupo 2121" transform="translate(-455.073 -28)">
    <path id="Trazado_4920" data-name="Trazado 4920" d="M467.573,28a12.493,12.493,0,1,0,8.841,3.659A12.5,12.5,0,0,0,467.573,28Zm1.6,17.318-.795.807a4.548,4.548,0,0,1-6.432-6.432l.807-.8a1.136,1.136,0,0,1,1.6,1.6l-.807.807a2.274,2.274,0,1,0,3.216,3.216l.807-.807a1.136,1.136,0,0,1,1.6,1.6Zm.409-5.216-2.409,2.409a1.141,1.141,0,1,1-1.613-1.613l2.409-2.409a1.141,1.141,0,1,1,1.613,1.613Zm3.614,1.2-.807.8a1.136,1.136,0,0,1-1.6-1.6l.807-.807a2.274,2.274,0,1,0-3.216-3.216l-.807.807a1.136,1.136,0,0,1-1.6-1.6l.795-.807a4.548,4.548,0,0,1,6.432,6.432Zm0,0" fill="#b2b3b6"/>
  </g>
</svg>
