<?xml version="1.0" encoding="utf-8"?>
<!-- Generator: Adobe Illustrator 28.3.0, SVG Export Plug-In . SVG Version: 6.00 Build 0)  -->
<svg version="1.1" id="Capa_1" xmlns="http://www.w3.org/2000/svg" xmlns:xlink="http://www.w3.org/1999/xlink" x="0px" y="0px"
	 viewBox="0 0 311.6 214.1" style="enable-background:new 0 0 311.6 214.1;" xml:space="preserve">
<style type="text/css">
	.st0{fill:#FAF9FB;}
	.st1{opacity:0.7;fill:#FFFFFF;enable-background:new    ;}
	.st2{opacity:0.3;}
	.st3{fill:#FFFFFF;}
	.st4{fill:none;stroke:#FFFFFF;stroke-width:1.441;stroke-linejoin:round;stroke-dasharray:1.441,2.881,1.441,2.881,1.441,2.881;}
	.st5{fill:none;stroke:#FFFFFF;stroke-width:1.455;stroke-linejoin:round;stroke-dasharray:1.455,2.911,1.455,2.911,1.455,2.911;}
	.st6{fill:#58D9A2;}
	.st7{fill:#E54560;}
	.st8{fill:none;}
	.st9{fill:#1E2335;}
	.st10{fill-rule:evenodd;clip-rule:evenodd;fill:#FFFFFF;}
	.st11{fill:#E8ECFF;}
	.st12{fill:#4262EA;}
	.st13{fill:#6D77A0;}
	.st14{fill:#2F364C;}
	.st15{fill:#E8ECFF;enable-background:new    ;}
	.st16{fill:#C5D4F9;}
	.st17{fill:#E9E8FF;}
	.st18{fill:#2F384A;}
	.st19{fill:#192235;}
	.st20{fill:#FFFFFF;enable-background:new    ;}
	.st21{fill:#30334D;}
	.st22{fill:#F4F5FF;}
</style>
<g id="Grupo_2087" transform="translate(-4981.374 -107.869)">
	<path id="Trazado_4749" class="st0" d="M5247.2,231.8c-7.9-10.5-22.9-15.9-24.7-31.6c-0.7-6,3-10.8,0.6-16.6
		c-15.9-38.8-70.9-10.7-94.7-2c-9.9,3.6-21.6,7.6-32.5,7.3c-12.5-0.3-24.5-6.7-36.8-7.7c-3.5-0.3-7.1,0.1-10.4,1.1
		c-11.9,3.8-21.6,17.3-24.4,32.2c-2.3,12,2.9,23.8-1.3,35.7c-4.5,12.6-14.5,21.4-16,35.9c-1.8,17.4,11.9,30.7,25.3,33
		c12.4,2.2,29.6,3,43.4-5.9c9.4-6,17.2-7.9,27.8-7.6c20.3,0.5,28.7,4.3,49.2,7.9c17.7,3.2,35.3,7.9,53.2,8.5
		c13.2,0.5,25.6-4.1,31.3-20C5243.8,282.9,5263.7,253.8,5247.2,231.8z"/>
	<path id="Trazado_4750" class="st1" d="M4981.9,173.1c2.7-12.5,15.1-20.4,27.6-17.7s20.4,15.1,17.7,27.6c-0.9,4.2-3,8-5.9,11.1
		l2.4,13.1l-13.5-6.6c-12.4,3.1-25-4.5-28.1-16.9C4981.2,180.2,4981.2,176.6,4981.9,173.1z"/>
	<path id="Trazado_4751" class="st1" d="M5292,143.9h-44.1c-0.5,0-1,0.4-1,1c0,0,0,0,0,0v26.8c0,0.6,0.4,1,1,1c0,0,0,0,0,0h5v11
		c0,0.4,0.3,0.8,0.6,0.9c0.1,0.1,0.2,0.1,0.3,0.1c0.3,0,0.6-0.1,0.8-0.4l9.1-11.6h28.2c0.5,0,1-0.5,1-1c0,0,0,0,0,0v-26.8
		C5293,144.4,5292.6,143.9,5292,143.9C5292,143.9,5292,143.9,5292,143.9z"/>
	<g id="Grupo_2057" class="st2">
		<path id="Trazado_4752" class="st3" d="M5005.6,224c0.1-0.1,0.1-0.4,0-0.5c-0.1-0.1-0.4-0.1-0.5,0l0,0c-1.3,1.3-3.3,1.3-4.6,0
			c0,0,0,0,0,0c-0.1-0.1-0.4-0.1-0.5,0c-0.1,0.1-0.1,0.4,0,0.5C5001.5,225.6,5004,225.6,5005.6,224z"/>
		<path id="Trazado_4753" class="st3" d="M5011.1,229c-4.6,4.7-12.1,4.7-16.7,0.2c-0.1-0.1-0.4-0.1-0.5,0c-0.1,0.1-0.1,0.4,0,0.5
			l0,0c5,4.9,12.9,4.8,17.8-0.2c0.1-0.1,0.1-0.4,0-0.5C5011.5,228.8,5011.3,228.8,5011.1,229C5011.2,229,5011.1,229,5011.1,229z"/>
		<path id="Trazado_4754" class="st3" d="M4996.6,226.4c-0.1,0.1-0.1,0.4,0,0.5c3.4,3.3,8.9,3.3,12.3-0.1c0.1-0.1,0.1-0.4,0-0.5
			c-0.1-0.1-0.4-0.1-0.5,0l0,0c-3.1,3.1-8.1,3.2-11.2,0.1C4997,226.2,4996.8,226.2,4996.6,226.4z"/>
	</g>
	<g id="Grupo_2058" class="st2">
		<path id="Trazado_4755" class="st3" d="M5275.5,181.6c0.1-0.1,0.1-0.4,0-0.5c-0.1-0.1-0.4-0.1-0.5,0c-1.3,1.3-3.3,1.3-4.6,0
			c0,0,0,0,0,0c-0.1-0.1-0.4-0.1-0.5,0c-0.1,0.1-0.1,0.4,0,0.5C5271.5,183.2,5274,183.2,5275.5,181.6L5275.5,181.6z"/>
		<path id="Trazado_4756" class="st3" d="M5281.1,186.6c-4.6,4.7-12.1,4.7-16.7,0.2c-0.1-0.2-0.4-0.2-0.5,0s-0.2,0.4,0,0.5
			c0,0,0,0,0,0c5,4.8,12.9,4.8,17.8-0.2c0.1-0.1,0.1-0.4,0-0.5C5281.5,186.4,5281.3,186.4,5281.1,186.6z"/>
		<path id="Trazado_4757" class="st3" d="M5266.6,183.9c-0.1,0.1-0.1,0.4,0,0.5c3.4,3.3,8.9,3.3,12.3-0.1c0.2-0.1,0.2-0.4,0-0.5
			c-0.1-0.2-0.4-0.2-0.5,0c0,0,0,0,0,0c-3.1,3.1-8.1,3.2-11.2,0.1C5267,183.8,5266.7,183.8,5266.6,183.9z"/>
	</g>
	<g id="Grupo_2059" class="st2">
		<path id="Trazado_4758" class="st3" d="M5097.3,125h-7.4c-0.1-0.8-0.8-1.4-1.6-1.6v-2.2h7.5c0.2,0,0.3-0.1,0.3-0.3c0,0,0,0,0,0
			v-9.9c0-0.2-0.1-0.3-0.3-0.3c0,0,0,0,0,0h-6.3v-2.6c0-0.2-0.2-0.3-0.3-0.3h-9.5c-0.2,0-0.3,0.1-0.3,0.3c0,0,0,0,0,0V121
			c0,0.2,0.1,0.3,0.3,0.3c0,0,0,0,0,0h7.9v2.2c-0.8,0.1-1.4,0.8-1.5,1.5h-6.9c-0.2,0-0.3,0.1-0.3,0.3s0.1,0.3,0.3,0.3h6.9
			c0.1,0.8,0.8,1.4,1.5,1.6v4c-0.9,0.1-1.5,0.9-1.5,1.8c0,1,0.9,1.9,1.9,1.9c1,0,1.8-0.8,1.9-1.9c0-0.9-0.7-1.7-1.5-1.8v-4
			c0.8-0.1,1.4-0.8,1.5-1.6h7.4c0.2,0,0.3-0.1,0.3-0.3S5097.5,125,5097.3,125L5097.3,125L5097.3,125z M5082.4,113.8h10.6
			c0.2,0,0.3,0.1,0.4,0.3c0,0.2-0.1,0.3-0.3,0.4c0,0,0,0,0,0h-10.6c-0.2,0-0.3-0.1-0.4-0.3C5082,113.9,5082.1,113.8,5082.4,113.8
			C5082.3,113.8,5082.3,113.8,5082.4,113.8z M5082.4,115.9h10.6c0.2,0,0.3,0.1,0.3,0.3c0,0.2-0.2,0.3-0.3,0.3h-10.6
			c-0.2,0-0.3-0.2-0.3-0.3C5082,116.1,5082.2,115.9,5082.4,115.9L5082.4,115.9z M5082.4,118.8c-0.2,0-0.3-0.2-0.3-0.3
			c0-0.2,0.2-0.3,0.3-0.3h10.6c0.2,0,0.3,0.2,0.3,0.3c0,0.2-0.2,0.3-0.3,0.3l0,0H5082.4z"/>
	</g>
	<g id="Grupo_2062" class="st2">
		<g id="Grupo_2061">
			<g id="Grupo_2060">
				<path id="Trazado_4759" class="st3" d="M5164.8,115.5l1.7,2.2h-1.3l-1.7-2.2l1.7-2.2h1.3L5164.8,115.5z"/>
				<path id="Trazado_4760" class="st3" d="M5171.9,115.5l-1.7,2.2h1.3l1.7-2.2l-1.7-2.2h-1.3L5171.9,115.5z"/>
				<path id="Trazado_4761" class="st3" d="M5167.8,118.8l2.5-7h-0.9l-2.5,7H5167.8z"/>
			</g>
		</g>
	</g>
	<g id="Grupo_2063">
		<path id="Trazado_4762" class="st3" d="M5281,152.8c0,1,0.8,1.8,1.8,1.8s1.8-0.8,1.8-1.8s-0.8-1.8-1.8-1.8
			C5281.9,151,5281,151.8,5281,152.8z"/>
		<path id="Trazado_4763" class="st3" d="M5272.4,152.8c0,1,0.8,1.8,1.8,1.8s1.8-0.8,1.8-1.8s-0.8-1.8-1.8-1.8
			S5272.4,151.8,5272.4,152.8L5272.4,152.8z"/>
		<path id="Trazado_4764" class="st3" d="M5263.8,152.8c0,1,0.8,1.8,1.8,1.8s1.8-0.8,1.8-1.8s-0.8-1.8-1.8-1.8
			C5264.6,151,5263.8,151.8,5263.8,152.8z"/>
		<path id="Trazado_4765" class="st3" d="M5255.2,152.8c0,1,0.8,1.8,1.8,1.8s1.8-0.8,1.8-1.8s-0.8-1.8-1.8-1.8
			S5255.2,151.8,5255.2,152.8L5255.2,152.8z"/>
	</g>
	<g id="Grupo_2064" class="st2">
		<path id="Trazado_4766" class="st3" d="M5262.5,136.4c1.3-1.4,2.1-4.1,4.1-2.9s2.1,3.4,4.3,3.4c2.1-0.1,1.5-2.4,2.8-2.4
			c1.2,0,1.2,3.2,2.8,2.2c0.6-0.4,0.7-1.4,1.9-2.1s1.5,2.5,2.8,2.3c1.6,0.1,3.2,0.3,4.8,0.5c0,0-7.6-0.7-7.8,1.1
			c-0.1,0.7-0.8,2.6-2.1,0.8c-0.4-0.6-1.8-1.6-3.3,0.3c-0.5,0.6-1.9,0.9-2.9-1.1c-0.5-0.8-1.6-1.1-2.5-0.6c-0.4,0.2-0.6,0.6-0.7,1
			c-0.5,0.9-0.9,2.8-4.3-0.3c-0.6-0.6-0.6-0.7-2.8-0.8C5255.1,137.6,5261.1,137.9,5262.5,136.4z"/>
	</g>
	<g id="Grupo_2065" class="st2">
		<path id="Trazado_4767" class="st3" d="M4996.5,147.1c1.3-1.4,2.1-4.1,4.1-2.9s2.1,3.4,4.3,3.4c2.1-0.1,1.5-2.4,2.8-2.4
			c1.2,0,1.2,3.2,2.8,2.2c0.6-0.4,0.7-1.4,1.9-2.1s1.5,2.5,2.8,2.3c1.6,0.1,3.2,0.3,4.8,0.5c0,0-7.6-0.7-7.8,1.1
			c-0.1,0.7-0.8,2.6-2.1,0.8c-0.4-0.6-1.8-1.6-3.3,0.3c-0.5,0.6-1.9,0.9-2.9-1.1c-0.5-0.8-1.6-1.1-2.5-0.6c-0.4,0.2-0.6,0.6-0.7,1
			c-0.5,0.9-0.9,2.8-4.3-0.3c-0.6-0.6-0.6-0.7-2.8-0.8C4989.2,148.3,4995.2,148.6,4996.5,147.1z"/>
	</g>
	<path id="Trazado_4768" class="st0" d="M5170.5,129.7c-1.4,0.1-2.7,0.3-4.1,0.6c-2.7-4.7-6.9-7.8-11.7-7.8c-0.8,0-1.5,0.1-2.3,0.2
		v0c-0.1,0-0.1,0-0.2,0.1c-0.4,0.1-0.8,0.2-1.2,0.3c-0.1,0-0.2,0.1-0.4,0.1c-0.5,0.2-0.9,0.4-1.3,0.6l0,0c-0.4,0.2-0.9,0.5-1.3,0.8
		c-0.1,0.1-0.2,0.1-0.3,0.2c-0.4,0.3-0.8,0.6-1.2,1c-0.8-8.3-6.2-14.7-12.6-14.7c-7,0-12.6,7.4-12.8,16.6c-2.2-1.6-4.8-2.5-7.6-2.5
		c-7.6,0-14,7-15.7,16.5c-1.2-0.5-2.4-0.8-3.7-0.8c-5.4,0-12.9,5-11.4,11.3h105.7C5191.3,141.9,5181.5,128.6,5170.5,129.7z"/>
	<path id="Trazado_4777" class="st4" d="M5089.6,142.5h-44.4c-2.7,0-4.9,2.2-4.9,4.9v58.5"/>
	<path id="Trazado_4778" class="st5" d="M5193.6,142.5h31c3.3,0,5.9,2.6,5.9,5.9c0,0,0,0,0,0v33.9"/>
	<g id="Grupo_2067">
		<path id="Trazado_4779" class="st6" d="M5281,161.2c-1.6-1.6-4.1-1.6-5.7,0c-1.6,1.6-1.6,4.1,0,5.7c1.6,1.6,4.1,1.6,5.7,0
			c0.8-0.8,1.2-1.8,1.2-2.9C5282.2,163,5281.8,162,5281,161.2z M5280.2,165.7L5280.2,165.7l-0.2,0.2c-0.3,0.3-0.6,0.4-1,0.3
			c-0.4-0.1-0.7-0.3-1-0.5c-0.3-0.2-0.6-0.4-0.8-0.7c-0.2-0.2-0.4-0.5-0.6-0.7c-0.2-0.3-0.4-0.6-0.5-0.9c-0.1-0.4,0-0.8,0.3-1.1
			l0.2-0.2c0.1-0.1,0.2-0.1,0.2,0c0,0,0,0,0,0l0,0l0.8,0.8c0.1,0.1,0.1,0.2,0,0.2c0,0,0,0,0,0l0,0l-0.4,0.4c-0.1,0.1-0.1,0.3,0,0.5
			c0.2,0.2,0.3,0.4,0.5,0.6c0.2,0.2,0.4,0.4,0.7,0.6c0.1,0.1,0.3,0.1,0.5,0l0.4-0.4c0.1-0.1,0.2-0.1,0.2,0c0,0,0,0,0,0l0,0l0.8,0.8
			C5280.3,165.5,5280.3,165.6,5280.2,165.7C5280.2,165.7,5280.2,165.7,5280.2,165.7L5280.2,165.7z"/>
	</g>
	<g id="Grupo_2068">
		<path id="Trazado_4780" class="st7" d="M5262.8,168.1c2.2-0.1,4-2,3.9-4.2c-0.1-2.2-2-4-4.2-3.9c-2.2,0.1-4,2-3.9,4.2
			c0,1.1,0.5,2.1,1.3,2.8C5260.6,167.8,5261.7,168.2,5262.8,168.1z"/>
		<g id="Trazado_4781">
			<path class="st8" d="M5260,164.4L5260,164.4v-0.3c0-0.4,0.2-0.7,0.5-0.9c0.3-0.2,0.7-0.3,1.1-0.4c0.7-0.1,1.3-0.2,2,0
				c0.3,0.1,0.7,0.2,1,0.3c0.4,0.2,0.6,0.6,0.6,1v0.3c0,0.1-0.1,0.2-0.2,0.2c0,0,0,0,0,0l0,0h-1.1c-0.1,0-0.2-0.1-0.2-0.2l0,0v-0.6
				c0-0.2-0.1-0.3-0.3-0.4c-0.6-0.1-1.2-0.1-1.7,0c-0.2,0-0.3,0.2-0.3,0.4l0,0.6c0,0.1-0.1,0.2-0.2,0.2c0,0,0,0,0,0l0,0h-1.1
				C5260.1,164.6,5260,164.5,5260,164.4z"/>
			<path class="st3" d="M5260.2,164.6c-0.1,0-0.2-0.1-0.2-0.2v0l0,0l0-0.3c0-0.4,0.2-0.7,0.5-0.9c0.3-0.2,0.7-0.3,1.1-0.4
				c0.3-0.1,0.7-0.1,1-0.1c0,0,0,0,0,0c0.3,0,0.6,0,0.9,0.1c0.3,0.1,0.7,0.2,1,0.3c0.4,0.2,0.6,0.6,0.6,1v0.3c0,0.1-0.1,0.2-0.2,0.2
				l-1.1,0c-0.1,0-0.2-0.1-0.2-0.2l0-0.6c0-0.2-0.1-0.3-0.3-0.4c-0.3,0-0.5-0.1-0.8-0.1c-0.3,0-0.6,0-0.9,0.1
				c-0.2,0-0.3,0.2-0.3,0.4l0,0.6c0,0.1-0.1,0.2-0.2,0.2L5260.2,164.6z"/>
		</g>
	</g>
	<g id="Grupo_2069">
		<path id="Trazado_4782" class="st6" d="M4994.9,208.8c-1.6-1.6-4.1-1.6-5.7,0c-1.6,1.6-1.6,4.1,0,5.7c1.6,1.6,4.1,1.6,5.7,0
			c0.8-0.8,1.2-1.8,1.2-2.9C4996.1,210.6,4995.6,209.6,4994.9,208.8z"/>
	</g>
	<g id="Grupo_2070">
		<path id="Trazado_4783" class="st7" d="M5014.7,215.7c2.2-0.1,4-2,3.9-4.2c-0.1-2.2-2-4-4.2-3.9c-2.2,0.1-4,2-3.9,4.2
			c0,1.1,0.5,2.1,1.3,2.8C5012.6,215.4,5013.6,215.7,5014.7,215.7z"/>
		<path id="Trazado_4784" class="st3" d="M5011.9,212L5011.9,212v-0.3c0-0.4,0.2-0.7,0.5-0.9c0.3-0.2,0.7-0.3,1.1-0.4
			c0.7-0.1,1.3-0.2,2,0c0.3,0.1,0.7,0.2,1,0.3c0.4,0.2,0.6,0.6,0.6,1v0.3c0,0.1-0.1,0.2-0.2,0.2l0,0h-1.1c-0.1,0-0.2-0.1-0.2-0.2
			l0,0v-0.6c0-0.2-0.1-0.3-0.3-0.4c-0.6-0.1-1.2-0.1-1.7,0c-0.2,0-0.3,0.2-0.3,0.4l0,0.6c0,0.1-0.1,0.2-0.2,0.2c0,0,0,0,0,0l0,0
			h-1.1C5012,212.2,5011.9,212.1,5011.9,212z"/>
	</g>
	<path id="Trazado_4785" class="st9" d="M5003.8,215.7c2.2-0.1,4-2,3.9-4.2c-0.1-2.2-2-4-4.2-3.9c-2.2,0.1-4,2-3.9,4.2
		c0,1.1,0.5,2.1,1.3,2.8C5001.6,215.4,5002.7,215.7,5003.8,215.7z"/>
	<path id="Trazado_4786" class="st10" d="M5002.2,209.5h-0.5c-0.1,0-0.3,0.1-0.3,0.3v0.5c0,0.1,0.1,0.3,0.3,0.3c0,0,0,0,0,0h0.5
		c0.1,0,0.3-0.1,0.3-0.3c0,0,0,0,0,0v-0.5C5002.5,209.6,5002.4,209.5,5002.2,209.5z M5002.2,211.1h-0.5c-0.1,0-0.3,0.1-0.3,0.3
		c0,0,0,0,0,0v0.5c0,0.1,0.1,0.3,0.3,0.3c0,0,0,0,0,0h0.5c0.1,0,0.3-0.1,0.3-0.3c0,0,0,0,0,0v-0.5
		C5002.5,211.3,5002.4,211.1,5002.2,211.1L5002.2,211.1z M5002.2,212.8h-0.5c-0.1,0-0.3,0.1-0.3,0.3c0,0,0,0,0,0v0.5
		c0,0.1,0.1,0.3,0.3,0.3l0,0h0.5c0.1,0,0.3-0.1,0.3-0.3c0,0,0,0,0,0V213C5002.5,212.9,5002.4,212.8,5002.2,212.8L5002.2,212.8z
		 M5005.4,209.5h-0.5c-0.1,0-0.3,0.1-0.3,0.3v0.5c0,0.1,0.1,0.3,0.3,0.3l0,0h0.5c0.1,0,0.3-0.1,0.3-0.3v-0.5
		C5005.7,209.6,5005.6,209.5,5005.4,209.5L5005.4,209.5z M5005.4,211.1h-0.5c-0.1,0-0.3,0.1-0.3,0.3v0.5c0,0.1,0.1,0.3,0.3,0.3l0,0
		h0.5c0.1,0,0.3-0.1,0.3-0.3v-0.5C5005.7,211.3,5005.6,211.1,5005.4,211.1L5005.4,211.1z M5005.4,212.8h-0.5c-0.1,0-0.3,0.1-0.3,0.3
		c0,0,0,0,0,0v0.5c0,0.1,0.1,0.3,0.3,0.3c0,0,0,0,0,0h0.5c0.1,0,0.3-0.1,0.3-0.3c0,0,0,0,0,0V213
		C5005.7,212.9,5005.6,212.8,5005.4,212.8L5005.4,212.8z M5003.8,209.5h-0.5c-0.1,0-0.3,0.1-0.3,0.3v0.5c0,0.1,0.1,0.3,0.3,0.3h0.5
		c0.1,0,0.3-0.1,0.3-0.3c0,0,0,0,0,0v-0.5C5004.1,209.6,5004,209.5,5003.8,209.5L5003.8,209.5z M5003.8,211.1h-0.5
		c-0.1,0-0.3,0.1-0.3,0.3v0.5c0,0.1,0.1,0.3,0.3,0.3h0.5c0.1,0,0.3-0.1,0.3-0.3c0,0,0,0,0,0v-0.5
		C5004.1,211.3,5004,211.1,5003.8,211.1L5003.8,211.1z M5003.8,212.8h-0.5c-0.1,0-0.3,0.1-0.3,0.3c0,0,0,0,0,0v0.5
		c0,0.1,0.1,0.3,0.3,0.3l0,0h0.5c0.1,0,0.3-0.1,0.3-0.3c0,0,0,0,0,0V213C5004.1,212.9,5004,212.8,5003.8,212.8L5003.8,212.8z"/>
	<g id="Internet">
		<path id="Trazado_4787" class="st11" d="M5132.4,232.4c-17.4,0-31.6-14.1-31.6-31.6s14.1-31.6,31.6-31.6s31.6,14.1,31.6,31.6
			C5164,218.2,5149.8,232.4,5132.4,232.4z M5132.4,171.3c-16.3,0-29.5,13.2-29.5,29.5c0,16.3,13.2,29.5,29.5,29.5
			c16.3,0,29.5-13.2,29.5-29.5C5161.9,184.5,5148.7,171.3,5132.4,171.3L5132.4,171.3z"/>
		<path id="Trazado_4788" class="st11" d="M5132.4,232.4c-10.6,0-19.3-14.2-19.3-31.6s8.6-31.6,19.3-31.6s19.3,14.2,19.3,31.6
			S5143,232.4,5132.4,232.4z M5132.4,171.3c-9.5,0-17.2,13.2-17.2,29.5s7.7,29.5,17.2,29.5s17.2-13.2,17.2-29.5
			S5141.9,171.3,5132.4,171.3L5132.4,171.3z"/>
		<path id="Trazado_4789" class="st11" d="M5132.4,232.4c-0.6,0-1-0.5-1-1c0,0,0,0,0,0v-61.1c0-0.6,0.5-1,1-1c0.5,0,1,0.4,1,1v61.1
			C5133.4,231.9,5133,232.4,5132.4,232.4z"/>
		<path id="Trazado_4790" class="st11" d="M5133.5,189.1c-9.3,0-18.7-0.8-27.8-2.6c-0.6-0.1-0.9-0.6-0.8-1.2
			c0.1-0.6,0.6-0.9,1.2-0.8c0,0,0,0,0,0c0.3,0.1,26.7,5.7,52.5,0c0.5-0.1,1.1,0.2,1.2,0.8c0.1,0.5-0.2,1.1-0.8,1.2l0,0
			C5150.7,188.3,5142.1,189.2,5133.5,189.1L5133.5,189.1z"/>
		<path id="Trazado_4791" class="st11" d="M5158.9,217.1c-0.1,0-0.1,0-0.2,0c-25.8-5.7-52.2-0.1-52.5,0c-0.5,0.1-1.1-0.2-1.2-0.8
			c-0.1-0.5,0.2-1.1,0.8-1.2l0,0c0.3-0.1,27.1-5.8,53.4,0c0.5,0.1,0.9,0.7,0.8,1.2C5159.7,216.8,5159.3,217.1,5158.9,217.1z"/>
		<path id="Trazado_4792" class="st11" d="M5162.9,201.8h-61.1c-0.6,0-1-0.4-1.1-1c0-0.6,0.4-1,1-1.1c0,0,0,0,0.1,0h61.1
			c0.6,0,1,0.5,1,1.1C5163.9,201.4,5163.5,201.8,5162.9,201.8z"/>
	</g>
	<g id="Grupo_2076">
		<g id="Grupo_2074">
			
				<ellipse id="Elipse_97" transform="matrix(0.9951 -9.926765e-02 9.926765e-02 0.9951 2.0384 502.4404)" class="st12" cx="5050" cy="230.7" rx="4.5" ry="5.7"/>
			<path id="Trazado_4793" class="st13" d="M5092.3,306.6h-29.6c-5-8-9.4-18.7-10.5-27.1c-0.5-4-0.2-10.3,1.1-12.6
				c4.1-7.3-2.4-15.9-2.4-15.9c2.1,0.6,8.4,0.4,11.1,10c2.1,7.6,7.9,35.7,7.9,35.7l22,4.5C5092.5,302.9,5092.7,304.8,5092.3,306.6z"
				/>
			<path id="Trazado_4794" class="st14" d="M5092.3,306.6h-29.6c-5-8-9.4-18.7-10.5-27.1l4.4-1.3c0,0,5.6,25.4,8.8,25.7
				S5092.3,306.6,5092.3,306.6z"/>
			<path id="Trazado_4795" class="st11" d="M5055.3,265.8c-2.6,2.2-5.7,4-9,5.1c-14.1,5-21.1-6.7-24.1-14.8c1.4-1,3-1.7,4.8-2.1
				c1-0.2,1.4-0.7,2.3-0.8c1.5-1.4,1.5-7,1.2-15l3.2,0.5l11.8,1.8c0.6,2.3,1,4.6,1.1,6.9c0.1,2.7,0,5.2,0.6,5.8
				c0.9,0.1,0.7,0.5,0.7,0.5l0,0C5050.8,257.5,5053.2,261.6,5055.3,265.8z"/>
			<path id="Trazado_4796" class="st15" d="M5046.1,241.1c0,0,0.4,5.1,0.5,8.6c-2.3,0.6-4.6,0.6-6.9,0c-4.5-1.3-8-4.8-9.2-9.2
				L5046.1,241.1z"/>
			<path id="Trazado_4797" class="st13" d="M5060.9,278.1c0,0.3-3.2,10.5-3.2,10.8c-0.7,5.9-0.9,11.8-0.8,17.7l-6.7,0l-28.6-0.1
				c0,0,3.5-10.4-5.6-26.4c-0.3-0.5-0.6-1.1-0.9-1.6c-1.3-2.1,6.9-27.8,6.9-27.8s3.5-0.6,8.4-1c2.2,3,5.6,4.8,9.3,5.1
				c7.5,0.6,6.9-5.2,6.9-5.2c3.2,0.6,4.6,0.3,8.9,2.4C5055.5,252.1,5061.1,276.7,5060.9,278.1z"/>
			<path id="Trazado_4798" class="st3" d="M5044.3,238.7c0,0,0.2,1.1,2.7,1.2c0,0,2.1,0,2.2-1.2
				C5047.6,238,5045.8,238.1,5044.3,238.7z"/>
			<path id="Trazado_4799" class="st14" d="M5017.8,306.6c0,0-1.2-6.7-1.7-26.4l3.4-4.2c0,0,6,17,13.5,22c7.5,4.9,16.3,3.9,17.4,8.7
				L5017.8,306.6z"/>
			<path id="Trazado_4800" class="st13" d="M5022,250.9c0,0-6.2,0.5-10.3,7.8s-12,37.5-12,47.9h33c0.4-1.8,0.2-3.7-0.4-5.4
				l-18.1-4.1c0,0,9.9-18.1,10.1-25.9S5022,250.9,5022,250.9z"/>
			<path id="Trazado_4801" class="st11" d="M5033,303.2c0,0,6.4-0.6,7.5-0.3c1.6,0.5,3.3,1.2,4.8,2c0.7,0.5,1.4,1.1,2,1.7
				c-0.4,0.1-0.9,0.1-1.3,0c-0.5-0.1-1.9-0.2-2.3-0.2c-0.6,0-1.2,0.1-1.8,0.3h-10L5033,303.2z"/>
			<g id="Grupo_2071">
				<path id="Trazado_4802" class="st16" d="M5091.2,306.6h-31.7c0-1.4,1.1-2.5,2.5-2.5h29.2L5091.2,306.6z"/>
				<path id="Trazado_4803" class="st16" d="M5140.2,272.1l-11.8,34.5h-49.4l12.1-34.5H5140.2z"/>
				<path id="Trazado_4804" class="st11" d="M5140.2,272.1l-11.7,34.2l-0.1,0.3h-48.6l12.1-34.5H5140.2z"/>
				<path id="Trazado_4805" class="st3" d="M5114.5,289c-0.3,1.4-1.5,2.3-2.9,2.4c-1,0-1.9-0.7-1.9-1.8c0-0.2,0-0.4,0.1-0.6
					c0.3-1.4,1.5-2.3,2.9-2.4c1,0,1.9,0.7,1.9,1.8C5114.6,288.6,5114.5,288.8,5114.5,289z"/>
				<path id="Trazado_4806" class="st16" d="M5140.2,272.1l-11.7,34.2h-22.3l27.2-34.2H5140.2z"/>
			</g>
			<path id="Trazado_4807" class="st11" d="M5049.5,245.4c0,0-18.3,3.7-20.5-7.7s-6-18.7,5.7-21.6s14.7,1.1,16.4,4.7
				S5054.2,244.2,5049.5,245.4z"/>
			<path id="Trazado_4808" class="st9" d="M5054.5,212.4c-3.9-0.6-7.7-1.6-11.4-3c-4.6-1.7-11,0.6-12.8,1.3c0.1-0.4,0.2-0.8,0.5-1.2
				c-0.5,0.4-0.9,0.9-1,1.5c-0.1,0.1-0.1,0.1-0.1,0.1c-0.6-0.1-1.1-0.1-1.7,0.1c0,0,0.5-0.1,0.6,0.2c0,0,0,0.1,0.1,0.1
				c-7.6,3.7-8.3,15.8-5.9,18.6c3,3.4,6.5,10.9,6.5,10.9c0.8-1.4,1.1-3.1,0.7-4.7c-0.5-3,2-3,5.2-4.3s0.5-5.1,3.4-7.4s13.2-1,13-2.7
				C5055.6,220.4,5054.5,212.8,5054.5,212.4z"/>
			<g id="Grupo_2073">
				<g id="Grupo_2072">
					<path id="Trazado_4809" class="st9" d="M5038.9,240.1c-4.3-0.8-8-3.4-10.2-7.3l0.4-0.2c2,3.7,5.7,6.3,9.9,7.1L5038.9,240.1z"/>
				</g>
				<path id="Rectángulo_1640" class="st9" d="M5037.5,240l0-0.3c0-0.4,0.4-0.7,0.8-0.6l1.9,0.2c0.4,0,0.7,0.4,0.6,0.8l0,0.3
					c0,0.4-0.4,0.7-0.8,0.6l-1.9-0.2C5037.8,240.7,5037.5,240.3,5037.5,240z"/>
				<path id="Trazado_4810" class="st12" d="M5034.4,210.9c0.8-0.7,1.8-1.4,2.8-1.9c0.3-0.1,0.7-0.1,1-0.2c1.7-0.1,3.4,0.1,5,0.6
					c-2.8,0.1-5.4,1.1-7.4,3c-5.5,4.9-6.1,13.8-6.1,13.8l-1.3-0.1c-0.2-0.2-0.4-0.5-0.6-0.7C5027.9,223.1,5029.1,215.5,5034.4,210.9
					z"/>
				
					<ellipse id="Elipse_98" transform="matrix(0.9951 -9.926765e-02 9.926765e-02 0.9951 1.9302 500.2651)" class="st17" cx="5028.1" cy="230.7" rx="4.5" ry="5.7"/>
				
					<ellipse id="Elipse_99" transform="matrix(0.9951 -9.900861e-02 9.900861e-02 0.9951 1.7817 498.9003)" class="st12" cx="5027.5" cy="231.5" rx="3.1" ry="3.9"/>
			</g>
		</g>
		<g id="Grupo_2075">
			<path id="Rectángulo_1641" class="st18" d="M5058.3,306.8h-60.9c-0.2,0-0.4-0.2-0.4-0.4v0c0-0.2,0.2-0.4,0.4-0.4h60.9
				c0.2,0,0.4,0.2,0.4,0.4v0C5058.7,306.6,5058.5,306.8,5058.3,306.8z"/>
		</g>
	</g>
	<g id="Grupo_2084">
		<g id="Grupo_2082">
			<g id="Grupo_2081">
				<path id="Trazado_4811" class="st19" d="M5235.5,205.2c0,0,8.4,4.3,2.3,13.5c0,0,7.2,0.8,9-1.2c-0.1,0.5-0.3,0.9-0.6,1.4
					c0,0,7-0.9,9.5-3.6s-5.3-37.9-24-30.7c0,0-16.6,1.5-11.9,20.2s-1.5,19.7-1.5,19.7c0.9,0.3,1.8,0.4,2.7,0.4c0,0,1.1-0.7,1.3-1.4
					c0,0.5-0.1,1-0.3,1.5c0,0,6.8-0.5,9.7-3.6S5237.1,208.9,5235.5,205.2z"/>
				<path id="Rectángulo_1642" class="st12" d="M5219.8,207.6l0.4-3.2c0.4-2.8,2.9-4.7,5.7-4.3l0.6,0.1c2.8,0.4,4.7,2.9,4.3,5.7
					l0,0l-0.4,3.2c-0.4,2.8-2.9,4.7-5.7,4.3l-0.6-0.1C5221.4,212.9,5219.4,210.4,5219.8,207.6z"/>
				<path id="Trazado_4812" class="st11" d="M5221.5,242.6c2.5,1.9,4.1,8.9,8.1,10.1c15.2,4.3,23.3-13.7,26-22.5
					c-1.6-1-3.3-1.6-5.1-1.9c-1.1-0.2-2.3-0.3-3.2-0.4c-1.7-1.4-3.9-6.9-4.1-15.4l-0.7,0.2l-12.3,2.7c0,0,0.4,3.9,0.4,7.5
					c0.1,2.9,0.2,3.5-0.1,3.9c-1,0.2-2.1,2.6-2.1,2.6l0,0C5225.8,233.6,5223.4,238,5221.5,242.6z"/>
				<path id="Trazado_4813" class="st20" d="M5230.2,215.4c0,0,0.4,3.9,0.4,7.5c6.9-0.3,10.4-6.7,11.8-10.2L5230.2,215.4z"/>
				<g id="Grupo_2077">
					<path id="Trazado_4814" class="st13" d="M5167.8,279.1c0,0,7.2,0.3,15,0.3c0.9,0,1.9,0,2.8,0c6.4,0,12.6-0.2,15.3-0.9
						c2.6-0.7,12.6-7.5,20.7-15.7v0c0.6,1.5,1.1,2.6,1.1,2.7c0.2,1.8,0.6,3.7,1.1,5.5c1.2,4.4,2.9,8.6,5,12.7l4.3,0l33.5,0
						c0,0-6.3-9.8-4.6-34.8c0-0.6-5.8-20.8-5.8-20.8s-4.6-0.8-9.9-1.2c-0.5,0.5-1.5,13.7-8.1,14.5c-1.1,0.1-8,10.7-8,10.7l-2.1-10.8
						l2.5-14.3c-2.6,0.6-5.1,1.4-7.5,2.3c-1.8,0.7-3.3,2-4.2,3.7c-4.6,8.4-19.6,35.6-21.1,36.3c-1.4,0.6-6.8,1.7-12.5,2.7h0
						c-7.6,1.4-15.8,2.7-15.8,2.7L5167.8,279.1z"/>
					<path id="Trazado_4815" class="st13" d="M5226.4,283.6l2.4,0l0,0L5226.4,283.6z"/>
				</g>
				<path id="Trazado_4816" class="st11" d="M5228.2,219.1c0,0,16.3-0.3,16-10.5s1.5-17-8.9-17.3s-12.3,3.7-13,7.1
					S5223.9,219,5228.2,219.1z"/>
				<path id="Trazado_4817" class="st14" d="M5182.9,279.3c0.9,0,1.9,0,2.8,0c6.4,0,12.6-0.2,15.3-0.9c2.6-0.7,12.6-7.5,20.7-15.7v0
					c0,0-1.7-6.5-2.4-7.6s-3.6,9.5-10.3,13.7s-17.2,7.3-22.4,6.1C5183.1,274.1,5182.8,277.2,5182.9,279.3z"/>
				<g id="Grupo_2078">
					<path id="Trazado_4818" class="st21" d="M5230.4,217.4c5.3-1.5,9.7-5.3,12-10.4l-1-0.1l0.5,0.1l-0.5-0.1
						c-2.1,4.8-6.3,8.3-11.3,9.8l-0.2,0.1l0.2,0.8L5230.4,217.4z"/>
				</g>
				<path id="Trazado_4819" class="st21" d="M5229.5,218.3l0.9-0.3c0.4-0.1,0.7-0.6,0.6-1.1l0,0c-0.1-0.4-0.6-0.7-1.1-0.6l-0.9,0.3
					c-0.4,0.1-0.7,0.6-0.6,1.1l0,0C5228.5,218.2,5229,218.4,5229.5,218.3z"/>
				<path id="Trazado_4820" class="st19" d="M5227.3,190.1c0,0,4.2,12.4,10.4,14.5s8.3-0.4,8.3-0.4c-3-3-4.8-6.9-5.1-11.1
					C5240.9,193,5230.8,185,5227.3,190.1z"/>
				<path id="Trazado_4821" class="st19" d="M5235.1,193.7c0,0-8.5-0.5-11,1.9c-1.8,1.7-1.8,2.7-1.9,5c0,0-3.7-5.7,0.1-9.8
					C5226.2,186.6,5235.1,193.7,5235.1,193.7z"/>
				<path id="Trazado_4822" class="st19" d="M5227.6,191.4c0,0,2.1,11.8,9.9,16.1c0,0-7.5-7.7-7.7-15.4S5227.6,191.4,5227.6,191.4z"
					/>
				<path id="Trazado_4823" class="st19" d="M5255.7,215.3c-2.5,2.7-9.5,3.6-9.5,3.6c0.3-0.4,0.5-0.9,0.6-1.4
					c-3.6,2.9-12.4,0.8-12.4,0.8c7-1.6,4.8-11.7,2.4-12.2c-1.5-7.3-3.3-14.4-5.5-21.5c0.3-0.1,0.5-0.1,0.5-0.1
					C5250.4,177.3,5258.2,212.6,5255.7,215.3z"/>
				<g id="Grupo_2080">
					<path id="Trazado_4824" class="st22" d="M5240.4,213.4l0.7,0.1c3,0.4,5.8-1.7,6.2-4.7l0.5-3.5c0.4-3-1.7-5.8-4.7-6.2l-0.7-0.1
						c-3-0.4-5.8,1.7-6.2,4.7l-0.5,3.5C5235.3,210.2,5237.4,213,5240.4,213.4z"/>
					<g id="Grupo_2079">
						<path id="Trazado_4825" class="st12" d="M5244.8,200.5c0.4-0.8-1-6.6-3.1-11.1c-1-2.2-3.5-5.1-5.3-5.9c-0.7-0.2-1.5-0.2-2.2,0
							c-0.7,0.2-1.3,0.5-1.9,0.8c5.9,1.8,11,14.2,10.7,15.5c0,0,0-0.1,0-0.1L5244.8,200.5z"/>
					</g>
					<path id="Rectángulo_1643" class="st12" d="M5239.4,206.8l0.2-1.8c0.2-1.5,1.6-2.5,3.1-2.3l0.3,0c1.5,0.2,2.5,1.6,2.3,3.1
						l-0.2,1.8c-0.2,1.5-1.6,2.5-3.1,2.3l-0.3,0C5240.3,209.7,5239.2,208.3,5239.4,206.8z"/>
				</g>
				<path id="Trazado_4826" class="st11" d="M5202.2,273.2c0,0-7-0.4-7.7,0c-1.9,1.1-3.7,2.3-5.4,3.7c-0.8,1.1-1.5,2.3-2.1,3.5
					c0,0,0.7,0.2,1-0.1s2.6-2.7,2.6-2.7l-2.3,3.6c0.4,0,0.8-0.1,1.1-0.4c0.3-0.4,2.5-2.6,2.5-2.6l0.7-0.1c-0.4,0.3-0.8,0.7-1.2,1.2
					c-0.3,0.4-0.5,0.7-0.7,1.1c0.3,0,0.6-0.1,0.9-0.2c0.2-0.1,2.2-1.8,2.2-1.8l-1,1.4c0.3,0,0.6-0.1,0.9-0.2c0.6-0.6,1.3-1.1,2-1.6
					c1,0,2.1-0.2,3.1-0.5c0.8-0.4,3.5-1.5,3.5-1.5L5202.2,273.2z"/>
				<path id="Trazado_4827" class="st19" d="M5245.4,224.8c0,0,4.7,1.4,5.7,2.4c0,0-4.9,12.5-11.9,18.3l-1.9-1.3v3l-7.1,4.6
					C5230.2,251.9,5245.7,228.6,5245.4,224.8z"/>
				<path id="Trazado_4828" class="st14" d="M5223.9,270.9c1.2,4.4,2.9,8.6,5,12.7h-2.4l2.4,0h22.3c0,0-2.6,0-2.6,0
					c0.1-0.2-3.8-10.6,2.6-14.9s8.7-14.7,8.7-14.7l-20.2-4.9c0,0-8.3,12.2-10.7,14.5c-1.8,1.8-6.1,1.9-6.1,1.9L5223.9,270.9z"/>
				<path id="Trazado_4829" class="st19" d="M5230.6,226.8c0,0-2.2,17-0.4,25c0,0-2.9-5.3-3.3-6.3l0.5-2.9l-1.9,0.6
					c0,0,1.6-13.6,3.1-15.9s2-2.6,2-2.6L5230.6,226.8z"/>
				<path id="Trazado_4830" class="st11" d="M5167.8,279.1c0,0,9,0.3,17.8,0.3c2.2-3.4-0.5-7.5-0.5-7.5h0
					c-7.6,1.4-15.8,2.7-15.8,2.7L5167.8,279.1z"/>
				<path id="Trazado_4831" class="st11" d="M5202.2,276c0,0,17.2,1.5,26.7,1.1v-9.3c-6.2,1.7-26.6,5.4-26.6,5.4L5202.2,276z"/>
				<path id="Trazado_4832" class="st13" d="M5251.1,227.2c0,0,9.8,0.2,12.9,3.5s-3,21.8-3,21.8s-18.3,22.4-27.5,24
					c0,0-4,0.5-5.9,0.6c0,0,1.8-5.3-1.6-8.7c0,0,3.9-1.1,4.1-1.6S5251.1,227.2,5251.1,227.2z"/>
			</g>
			<path id="Trazado_4833" class="st16" d="M5189.9,283.6h33.3c0-1.5-1.2-2.7-2.7-2.7l0,0h-30.7V283.6z"/>
			<path id="Trazado_4834" class="st16" d="M5138.4,247.3l12.4,36.3h51.9l-12.7-36.3H5138.4z"/>
			<path id="Trazado_4835" class="st11" d="M5138.4,247.3l12.3,36l0.1,0.3h51.1l-12.7-36.3H5138.4z"/>
			<path id="Trazado_4836" class="st3" d="M5165.5,265.1c0.4,1.4,1.6,2.4,3.1,2.5c1.1,0,2-0.8,2-1.8c0-0.2,0-0.5-0.1-0.7
				c-0.4-1.4-1.6-2.4-3.1-2.5c-1.1,0-2,0.8-2,1.8C5165.4,264.6,5165.4,264.9,5165.5,265.1z"/>
			<path id="Trazado_4837" class="st16" d="M5138.4,247.3l12.3,36h23.5l-28.6-36H5138.4z"/>
		</g>
		<g id="Grupo_2083">
			<path id="Rectángulo_1644" class="st18" d="M5268.8,283.7h-42.5c-0.2,0-0.4-0.2-0.4-0.4v0c0-0.2,0.2-0.4,0.4-0.4h42.5
				c0.2,0,0.4,0.2,0.4,0.4v0C5269.2,283.5,5269,283.7,5268.8,283.7z"/>
		</g>
	</g>
	<g id="Grupo_2085">
		<path id="Trazado_4838" class="st3" d="M5010.5,182.3l-3.4-0.8l-0.3-1.1c0.9-0.9,1.5-2.1,1.7-3.3c0.5-0.1,0.9-0.6,1-1.1l0.2-1.7
			c0-0.4-0.1-0.7-0.3-1c-0.1-0.2-0.3-0.3-0.5-0.4l0.1-1.6l0.3-0.3c0.7-0.7,0.7-1.9,0-2.7c-0.8-1-2-1.6-3.3-1.5
			c-1.2-0.1-2.3,0.3-3.3,0.9c-3.8,0.1-4.3,1.8-4.3,3.5c0,0.4,0.1,1.3,0.2,1.8c-0.2,0.1-0.4,0.2-0.6,0.4c-0.3,0.3-0.4,0.7-0.3,1
			l0.2,1.7c0.1,0.6,0.5,1,1.1,1.1c0.2,1.2,0.8,2.3,1.6,3.2l-0.3,1.2l-3.4,0.8c-2.2,0.5-3.7,2.5-3.8,4.7c0,0.2,0.2,0.4,0.4,0.4h20.3
			c0.2,0,0.4-0.2,0.4-0.4C5014.3,184.8,5012.7,182.8,5010.5,182.3z"/>
	</g>
	<g id="Layer_29">
		<g id="Grupo_2086">
			<path id="Trazado_4839" class="st3" d="M4991.2,209.9l-1.4,1h-0.3c-0.1,0-0.2,0.1-0.2,0.2c0,0,0,0,0,0v1.2c0,0.1,0.1,0.2,0.2,0.2
				c0,0,0,0,0,0h0.3l1.4,1c0,0,0.1,0,0.1,0c0,0,0,0,0-0.1V210C4991.4,209.9,4991.3,209.9,4991.2,209.9
				C4991.2,209.9,4991.2,209.9,4991.2,209.9z"/>
			<path id="Trazado_4840" class="st3" d="M4993.5,209.6c-0.1,0-0.2,0-0.2,0.1c0,0.1,0,0.2,0.1,0.2l0,0c1,0.5,1.3,1.7,0.8,2.7
				c-0.2,0.3-0.4,0.6-0.8,0.8c-0.1,0-0.1,0.1-0.1,0.2c0,0,0.1,0.1,0.1,0.1c0,0,0.1,0,0.1,0c1.1-0.6,1.5-2,0.9-3.1
				C4994.2,210.2,4993.9,209.9,4993.5,209.6L4993.5,209.6z"/>
			<path id="Trazado_4841" class="st3" d="M4993.7,211.7c0-0.5-0.3-1.1-0.8-1.3c-0.1,0-0.2,0-0.2,0.1c0,0,0,0,0,0
				c0,0.1,0,0.2,0.1,0.2c0.6,0.3,0.8,1,0.5,1.6c-0.1,0.2-0.3,0.4-0.5,0.5c-0.1,0-0.1,0.1-0.1,0.2c0,0,0.1,0.1,0.1,0.1
				c0,0,0.1,0,0.1,0C4993.4,212.7,4993.7,212.2,4993.7,211.7z"/>
			<path id="Trazado_4842" class="st3" d="M4992.3,211.1c-0.1,0-0.2,0-0.2,0.1c0,0.1,0,0.2,0.1,0.2c0.2,0.1,0.2,0.3,0.1,0.5
				c0,0.1-0.1,0.1-0.1,0.1c-0.1,0-0.1,0.1-0.1,0.2c0,0,0.1,0.1,0.1,0.1c0,0,0.1,0,0.1,0c0.3-0.2,0.5-0.6,0.3-1
				C4992.5,211.2,4992.4,211.1,4992.3,211.1L4992.3,211.1z"/>
		</g>
	</g>
</g>
</svg>
