<svg xmlns="http://www.w3.org/2000/svg" width="311.626" height="214.1" viewBox="0 0 311.626 214.1">
  <g id="Grupo_2087" data-name="Grupo 2087" transform="translate(-4981.374 -107.869)">
    <path id="Trazado_4749" data-name="Trazado 4749" d="M5247.16,231.787c-7.857-10.465-22.9-15.891-24.723-31.633-.689-5.955,2.965-10.82.589-16.622-15.872-38.752-70.947-10.729-94.74-2.03-9.856,3.6-21.632,7.62-32.511,7.345-12.475-.314-24.534-6.693-36.837-7.67A26.967,26.967,0,0,0,5048.5,182.3c-11.921,3.806-21.567,17.324-24.387,32.176-2.286,12.039,2.878,23.834-1.3,35.657-4.451,12.593-14.511,21.381-16.041,35.869-1.836,17.4,11.884,30.653,25.342,33.045,12.441,2.211,29.559,2.95,43.406-5.9,9.415-6.019,17.227-7.913,27.821-7.637,20.267.528,28.7,4.256,49.178,7.928,17.658,3.166,35.307,7.875,53.184,8.5,13.2.464,25.589-4.1,31.3-19.984C5243.841,282.943,5263.722,253.846,5247.16,231.787Z" fill="#faf9fb"/>
    <path id="Trazado_4750" data-name="Trazado 4750" d="M4981.911,173.073a23.162,23.162,0,1,1,39.326,20.993l2.425,13.052-13.515-6.633a23.163,23.163,0,0,1-28.236-27.412Z" fill="#fff" opacity="0.7"/>
    <path id="Trazado_4751" data-name="Trazado 4751" d="M5292.022,143.892h-44.083a.994.994,0,0,0-1.012,1.012v26.814a1,1,0,0,0,1.012,1.012h5.026v11a1,1,0,0,0,.64.944.665.665,0,0,0,.338.068,1.077,1.077,0,0,0,.809-.371l9.073-11.636h28.2a.987.987,0,0,0,.978-1.012V144.9A.986.986,0,0,0,5292.022,143.892Z" fill="#fff" opacity="0.7"/>
    <g id="Grupo_2057" data-name="Grupo 2057" opacity="0.3">
      <path id="Trazado_4752" data-name="Trazado 4752" d="M5005.559,224.013a.374.374,0,1,0-.535-.524,3.246,3.246,0,0,1-4.592.048.375.375,0,0,0-.529.005.382.382,0,0,0,.005.53,4.005,4.005,0,0,0,5.651-.059Z" fill="#fff"/>
      <path id="Trazado_4753" data-name="Trazado 4753" d="M5011.149,228.964a11.831,11.831,0,0,1-16.724.173.374.374,0,0,0-.524.535,12.592,12.592,0,0,0,17.783-.184.381.381,0,0,0,0-.529A.377.377,0,0,0,5011.149,228.964Z" fill="#fff"/>
      <path id="Trazado_4754" data-name="Trazado 4754" d="M4996.632,226.35a.38.38,0,0,0,.005.529,8.677,8.677,0,0,0,12.251-.127.372.372,0,1,0-.529-.524,7.921,7.921,0,0,1-11.2.116A.376.376,0,0,0,4996.632,226.35Z" fill="#fff"/>
    </g>
    <g id="Grupo_2058" data-name="Grupo 2058" opacity="0.3">
      <path id="Trazado_4755" data-name="Trazado 4755" d="M5275.52,181.61a.382.382,0,0,0,0-.53.377.377,0,0,0-.53.006,3.245,3.245,0,0,1-4.592.047.377.377,0,0,0-.53.006.381.381,0,0,0,.006.529,4,4,0,0,0,5.651-.058Z" fill="#fff"/>
      <path id="Trazado_4756" data-name="Trazado 4756" d="M5281.11,186.561a11.832,11.832,0,0,1-16.724.173.375.375,0,1,0-.524.535,12.595,12.595,0,0,0,17.783-.184.382.382,0,0,0-.006-.53A.376.376,0,0,0,5281.11,186.561Z" fill="#fff"/>
      <path id="Trazado_4757" data-name="Trazado 4757" d="M5266.592,183.946a.381.381,0,0,0,.006.53,8.677,8.677,0,0,0,12.251-.127.373.373,0,1,0-.53-.524,7.921,7.921,0,0,1-11.2.116A.377.377,0,0,0,5266.592,183.946Z" fill="#fff"/>
    </g>
    <g id="Grupo_2059" data-name="Grupo 2059" opacity="0.3">
      <path id="Trazado_4758" data-name="Trazado 4758" d="M5097.3,125.035h-7.408a1.916,1.916,0,0,0-1.555-1.556V121.3h7.531a.33.33,0,0,0,.336-.336v-9.892a.328.328,0,0,0-.336-.325h-6.3v-2.551a.334.334,0,0,0-.336-.324h-9.478a.327.327,0,0,0-.336.324v12.768a.329.329,0,0,0,.336.336h7.923v2.193a1.893,1.893,0,0,0-1.545,1.545h-6.949a.33.33,0,0,0,0,.66h6.949a1.9,1.9,0,0,0,1.545,1.555v4.029a1.851,1.851,0,0,0-1.545,1.813,1.88,1.88,0,0,0,3.76,0,1.849,1.849,0,0,0-1.544-1.813V127.25a1.9,1.9,0,0,0,1.544-1.555h7.408a.33.33,0,0,0,0-.66Zm-14.939-11.28h10.6a.336.336,0,1,1,0,.671h-10.6a.336.336,0,1,1,0-.671Zm0,2.171h10.6a.336.336,0,0,1,.336.335.345.345,0,0,1-.336.336h-10.6a.345.345,0,0,1-.336-.336A.337.337,0,0,1,5082.363,115.926Zm0,2.842a.335.335,0,1,1,0-.671h10.6a.335.335,0,1,1,0,.671Z" fill="#fff"/>
    </g>
    <g id="Grupo_2062" data-name="Grupo 2062" opacity="0.3">
      <g id="Grupo_2061" data-name="Grupo 2061">
        <g id="Grupo_2060" data-name="Grupo 2060">
          <path id="Trazado_4759" data-name="Trazado 4759" d="M5164.838,115.5l1.727,2.219h-1.287l-1.721-2.219,1.719-2.215h1.287Z" fill="#fff"/>
          <path id="Trazado_4760" data-name="Trazado 4760" d="M5171.876,115.493l-1.726,2.221h1.287l1.725-2.221-1.727-2.213h-1.287Z" fill="#fff"/>
          <path id="Trazado_4761" data-name="Trazado 4761" d="M5167.819,118.825l2.536-7.018h-.873l-2.536,7.018Z" fill="#fff"/>
        </g>
      </g>
    </g>
    <g id="Grupo_2063" data-name="Grupo 2063">
      <path id="Trazado_4762" data-name="Trazado 4762" d="M5281.048,152.8a1.833,1.833,0,1,0,1.833-1.833A1.834,1.834,0,0,0,5281.048,152.8Z" fill="#fff"/>
      <path id="Trazado_4763" data-name="Trazado 4763" d="M5272.422,152.8a1.833,1.833,0,1,0,1.833-1.833A1.833,1.833,0,0,0,5272.422,152.8Z" fill="#fff"/>
      <path id="Trazado_4764" data-name="Trazado 4764" d="M5263.795,152.8a1.833,1.833,0,1,0,1.833-1.833A1.834,1.834,0,0,0,5263.795,152.8Z" fill="#fff"/>
      <path id="Trazado_4765" data-name="Trazado 4765" d="M5255.169,152.8a1.833,1.833,0,1,0,1.833-1.833A1.833,1.833,0,0,0,5255.169,152.8Z" fill="#fff"/>
    </g>
    <g id="Grupo_2064" data-name="Grupo 2064" opacity="0.3">
      <path id="Trazado_4766" data-name="Trazado 4766" d="M5262.453,136.419c1.338-1.449,2.121-4.122,4.059-2.854s2.144,3.413,4.336,3.353c2.052-.057,1.536-2.359,2.848-2.4,1.216-.04,1.237,3.219,2.779,2.219.595-.385.715-1.438,1.868-2.117s1.545,2.514,2.836,2.332a44.186,44.186,0,0,1,4.809.544s-7.588-.651-7.806,1.1c-.082.651-.843,2.577-2.065.765-.431-.638-1.834-1.6-3.286.277-.467.6-1.92.9-2.859-1.132a1.8,1.8,0,0,0-3.23.4c-.493.937-.93,2.769-4.289-.26-.641-.578-.6-.7-2.837-.816C5255.1,137.6,5261.116,137.869,5262.453,136.419Z" fill="#fff"/>
    </g>
    <g id="Grupo_2065" data-name="Grupo 2065" opacity="0.3">
      <path id="Trazado_4767" data-name="Trazado 4767" d="M4996.529,147.106c1.338-1.45,2.122-4.122,4.059-2.854s2.144,3.413,4.336,3.352c2.052-.057,1.537-2.358,2.848-2.4,1.216-.039,1.237,3.219,2.779,2.22.6-.386.715-1.438,1.868-2.118s1.545,2.514,2.836,2.333a43.931,43.931,0,0,1,4.809.544s-7.588-.651-7.806,1.1c-.082.651-.843,2.576-2.065.764-.43-.638-1.833-1.6-3.286.278-.466.6-1.92.895-2.859-1.132a1.8,1.8,0,0,0-3.229.4c-.494.937-.931,2.769-4.29-.26-.641-.578-.6-.7-2.836-.816C4989.18,148.282,4995.192,148.555,4996.529,147.106Z" fill="#fff"/>
    </g>
    <path id="Trazado_4768" data-name="Trazado 4768" d="M5170.475,129.651a20.349,20.349,0,0,0-4.086.638c-2.685-4.709-6.931-7.758-11.711-7.758a11.209,11.209,0,0,0-2.3.241v-.007c-.066.014-.129.041-.195.056a11.472,11.472,0,0,0-1.2.343c-.123.043-.245.086-.366.132a12.414,12.414,0,0,0-1.347.6l-.034.02a13.138,13.138,0,0,0-1.259.77c-.1.069-.2.139-.3.212a14.494,14.494,0,0,0-1.21.961c-.845-8.312-6.182-14.724-12.65-14.724-6.957,0-12.6,7.4-12.766,16.618a13.019,13.019,0,0,0-7.568-2.512c-7.628,0-14,7.042-15.711,16.506a9.112,9.112,0,0,0-3.684-.787c-5.377,0-12.9,4.971-11.373,11.314h105.733C5191.335,141.892,5181.531,128.629,5170.475,129.651Z" fill="#faf9fb"/>
    <g id="Grupo_2066" data-name="Grupo 2066">
      <path id="Trazado_4769" data-name="Trazado 4769" d="M5117.18,136.973h-1.818v6.449h1.818v1.427h-5.414v-1.427h1.817v-6.449h-1.819v-1.424h5.414Z" fill="#1e2335"/>
      <path id="Trazado_4770" data-name="Trazado 4770" d="M5123.081,137.742v1.679h-.515c-1.637,0-2.1.979-2.1,2.714v2.714h-1.73v-6.995h1.694v1.62a2.317,2.317,0,0,1,2.322-1.735Z" fill="#1e2335"/>
      <path id="Trazado_4771" data-name="Trazado 4771" d="M5123.686,141.338a3.742,3.742,0,1,1,3.735,3.735A3.44,3.44,0,0,1,5123.686,141.338Zm3.735,2.364c1.385,0,2-.644,2-2.35s-.616-2.351-2-2.351-2,.644-2,2.351S5126.036,143.7,5127.421,143.7Z" fill="#1e2335"/>
      <path id="Trazado_4772" data-name="Trazado 4772" d="M5139.3,140.526v4.323h-1.735v-4.113c0-1.287-.573-1.679-1.441-1.679-1.231,0-1.914.784-1.914,2.728v3.064h-1.737v-6.995h1.735v1.483a2.581,2.581,0,0,1,2.518-1.707C5138.586,137.63,5139.3,138.694,5139.3,140.526Z" fill="#1e2335"/>
      <path id="Trazado_4773" data-name="Trazado 4773" d="M5143.832,144.849c-1.833,0-2.336-.755-2.336-2.294v-3.387h-1.3v-.852l1.443-.546.713-1.539h.884v1.62h2.127v1.315h-2.131v4.3h1.959v1.385Z" fill="#1e2335"/>
      <path id="Trazado_4774" data-name="Trazado 4774" d="M5151.513,142.737h1.636c-.153,1.049-.993,2.336-3.483,2.336-2.6,0-3.638-1.721-3.638-3.735a3.4,3.4,0,0,1,3.638-3.708,3.305,3.305,0,0,1,3.511,3.638,3.138,3.138,0,0,1-.042.545h-5.428c.126,1.553.91,2.029,2.015,2.029A1.641,1.641,0,0,0,5151.513,142.737Zm-3.778-2.071h3.778c-.074-1.231-.686-1.819-1.819-1.819C5148.6,138.847,5147.9,139.295,5147.735,140.666Z" fill="#1e2335"/>
      <path id="Trazado_4775" data-name="Trazado 4775" d="M5157.85,137.63c2.295,0,3.442,1.273,3.512,2.952H5159.7a1.626,1.626,0,0,0-1.8-1.581c-1.245,0-2.014.6-2.014,2.351,0,1.776.741,2.35,1.988,2.35a1.725,1.725,0,0,0,1.888-1.637h1.665c-.056,1.581-1.2,3.008-3.539,3.008a3.722,3.722,0,0,1-.03-7.443Z" fill="#1e2335"/>
      <path id="Trazado_4776" data-name="Trazado 4776" d="M5164.808,140.344h-1.96V142.3h1.96Z" fill="#1e2335"/>
    </g>
    <path id="Trazado_4777" data-name="Trazado 4777" d="M5089.553,142.469h-44.4a4.9,4.9,0,0,0-4.9,4.9V205.9" fill="none" stroke="#fff" stroke-linejoin="round" stroke-width="1.441" stroke-dasharray="1.441 2.881 1.441 2.881 1.441 2.881"/>
    <path id="Trazado_4778" data-name="Trazado 4778" d="M5193.642,142.469h31a5.91,5.91,0,0,1,5.911,5.911v33.879" fill="none" stroke="#fff" stroke-linejoin="round" stroke-width="1.455" stroke-dasharray="1.455 2.911 1.455 2.911 1.455 2.911"/>
    <g id="Grupo_2067" data-name="Grupo 2067">
      <path id="Trazado_4779" data-name="Trazado 4779" d="M5281,161.221a4.037,4.037,0,1,0,1.182,2.853A4.037,4.037,0,0,0,5281,161.221Zm-.778,4.441h0l-.205.2a1.077,1.077,0,0,1-1.016.291,3.576,3.576,0,0,1-1.038-.466,4.746,4.746,0,0,1-.82-.661,4.851,4.851,0,0,1-.612-.742,3.793,3.793,0,0,1-.46-.931,1.076,1.076,0,0,1,.269-1.1l.239-.239a.171.171,0,0,1,.242,0h0l.756.756a.171.171,0,0,1,0,.242h0l-.444.444a.361.361,0,0,0-.038.471,5.14,5.14,0,0,0,.532.62,5.019,5.019,0,0,0,.7.588.365.365,0,0,0,.466-.04l.429-.436a.17.17,0,0,1,.242,0h0l.758.759A.171.171,0,0,1,5280.221,165.662Z" fill="#58d9a2"/>
    </g>
    <g id="Grupo_2068" data-name="Grupo 2068">
      <path id="Trazado_4780" data-name="Trazado 4780" d="M5262.755,168.108a4.036,4.036,0,1,0-2.9-1.053A4.036,4.036,0,0,0,5262.755,168.108Z" fill="#e54560"/>
      <g id="Trazado_4781" data-name="Trazado 4781" fill="none">
        <path d="M5259.985,164.429h0v-.288a1.076,1.076,0,0,1,.51-.926,3.614,3.614,0,0,1,1.063-.408,4.966,4.966,0,0,1,2-.025,3.763,3.763,0,0,1,.985.331,1.076,1.076,0,0,1,.59.966v.338a.17.17,0,0,1-.17.172h0l-1.07,0a.172.172,0,0,1-.172-.17h0v-.628a.362.362,0,0,0-.307-.359,5.339,5.339,0,0,0-1.725.021.364.364,0,0,0-.3.358l.006.612a.17.17,0,0,1-.17.172h0l-1.072,0A.172.172,0,0,1,5259.985,164.429Z" stroke="none"/>
        <path d="M 5260.1572265625 164.5989990234375 C 5260.06298828125 164.5989990234375 5259.98583984375 164.5229949951172 5259.98486328125 164.4290008544922 L 5259.98486328125 164.4279937744141 L 5259.98583984375 164.4290008544922 L 5259.98681640625 164.1410064697266 C 5259.98291015625 163.7640075683594 5260.1767578125 163.4129943847656 5260.4970703125 163.2149963378906 C 5260.8271484375 163.0240020751953 5261.18603515625 162.8860015869141 5261.56005859375 162.8070068359375 C 5261.90283203125 162.7310028076172 5262.25390625 162.6920013427734 5262.60595703125 162.6920013427734 C 5262.6162109375 162.6919403076172 5262.6259765625 162.6919097900391 5262.63623046875 162.6919097900391 C 5262.9482421875 162.6919097900391 5263.2587890625 162.7219390869141 5263.56396484375 162.7819976806641 C 5263.90576171875 162.8459930419922 5264.23779296875 162.9579925537109 5264.548828125 163.1130065917969 C 5264.9130859375 163.2969970703125 5265.14111328125 163.6710052490234 5265.13916015625 164.0789947509766 L 5265.13916015625 164.4170074462891 C 5265.14013671875 164.5119934082031 5265.06396484375 164.5890045166016 5264.96923828125 164.5890045166016 L 5263.89892578125 164.5919952392578 C 5263.80517578125 164.5919952392578 5263.72802734375 164.5160064697266 5263.72705078125 164.4219970703125 L 5263.72607421875 163.7929992675781 C 5263.72607421875 163.6139984130859 5263.59619140625 163.4609985351562 5263.4189453125 163.4340057373047 C 5263.16064453125 163.3947906494141 5262.90087890625 163.3738555908203 5262.6396484375 163.3738555908203 C 5262.322265625 163.3739624023438 5262.005859375 163.3989410400391 5261.69384765625 163.4550018310547 C 5261.52001953125 163.4859924316406 5261.39404296875 163.6369934082031 5261.39404296875 163.8130035400391 L 5261.39990234375 164.4250030517578 C 5261.40087890625 164.5200042724609 5261.3251953125 164.5959930419922 5261.22998046875 164.5970001220703 L 5260.1572265625 164.5989990234375 Z" stroke="none" fill="#fff"/>
      </g>
    </g>
    <g id="Grupo_2069" data-name="Grupo 2069">
      <path id="Trazado_4782" data-name="Trazado 4782" d="M4994.891,208.814a4.036,4.036,0,1,0,1.183,2.854A4.036,4.036,0,0,0,4994.891,208.814Z" fill="#58d9a2"/>
    </g>
    <g id="Grupo_2070" data-name="Grupo 2070">
      <path id="Trazado_4783" data-name="Trazado 4783" d="M5014.708,215.7a4.036,4.036,0,1,0-2.9-1.053A4.036,4.036,0,0,0,5014.708,215.7Z" fill="#e54560"/>
      <path id="Trazado_4784" data-name="Trazado 4784" d="M5011.938,212.022h0v-.288a1.078,1.078,0,0,1,.511-.925,3.555,3.555,0,0,1,1.063-.408,4.965,4.965,0,0,1,2-.025,3.774,3.774,0,0,1,.985.33,1.073,1.073,0,0,1,.589.966v.339a.171.171,0,0,1-.17.172h0l-1.069,0a.171.171,0,0,1-.172-.17h0v-.628a.362.362,0,0,0-.308-.359,5.3,5.3,0,0,0-1.725.02.365.365,0,0,0-.3.359l.006.612a.17.17,0,0,1-.17.171h0l-1.072,0A.171.171,0,0,1,5011.938,212.022Z" fill="#fff"/>
    </g>
    <path id="Trazado_4785" data-name="Trazado 4785" d="M5003.752,215.7a4.036,4.036,0,1,0-2.9-1.053A4.035,4.035,0,0,0,5003.752,215.7Z" fill="#1e2335"/>
    <path id="Trazado_4786" data-name="Trazado 4786" d="M5002.236,209.5h-.533a.27.27,0,0,0-.269.269v.534a.268.268,0,0,0,.269.268h.533a.268.268,0,0,0,.269-.268v-.534A.27.27,0,0,0,5002.236,209.5Zm0,1.629h-.533a.269.269,0,0,0-.269.269v.534a.268.268,0,0,0,.269.268h.533a.268.268,0,0,0,.269-.268V211.4A.269.269,0,0,0,5002.236,211.133Zm0,1.629h-.533a.269.269,0,0,0-.269.269v.533a.269.269,0,0,0,.269.269h.533a.269.269,0,0,0,.269-.269v-.533A.269.269,0,0,0,5002.236,212.762Zm3.2-3.258h-.534a.269.269,0,0,0-.268.269v.534a.268.268,0,0,0,.268.268h.534a.269.269,0,0,0,.269-.268v-.534A.27.27,0,0,0,5005.439,209.5Zm0,1.629h-.534a.269.269,0,0,0-.268.269v.534a.268.268,0,0,0,.268.268h.534a.269.269,0,0,0,.269-.268V211.4a.27.27,0,0,0-.269-.269Zm0,1.629h-.534a.268.268,0,0,0-.268.269v.533a.268.268,0,0,0,.268.269h.534a.269.269,0,0,0,.269-.269v-.533a.269.269,0,0,0-.269-.269Zm-1.6-3.258h-.534a.271.271,0,0,0-.269.269v.534a.269.269,0,0,0,.269.268h.534a.268.268,0,0,0,.268-.268v-.534A.27.27,0,0,0,5003.838,209.5Zm0,1.629h-.534a.27.27,0,0,0-.269.269v.534a.269.269,0,0,0,.269.268h.534a.268.268,0,0,0,.268-.268V211.4A.269.269,0,0,0,5003.838,211.133Zm0,1.629h-.534a.269.269,0,0,0-.269.269v.533a.269.269,0,0,0,.269.269h.534a.268.268,0,0,0,.268-.269v-.533A.268.268,0,0,0,5003.838,212.762Z" fill="#fff" fill-rule="evenodd"/>
    <g id="Internet">
      <path id="Trazado_4787" data-name="Trazado 4787" d="M5132.389,232.374a31.572,31.572,0,1,1,31.572-31.573A31.574,31.574,0,0,1,5132.389,232.374Zm0-61.108a29.535,29.535,0,1,0,29.535,29.535A29.536,29.536,0,0,0,5132.389,171.266Z" fill="#e8ecff"/>
      <path id="Trazado_4788" data-name="Trazado 4788" d="M5132.389,232.374c-10.629,0-19.275-14.164-19.275-31.573s8.646-31.572,19.275-31.572,19.274,14.163,19.274,31.572S5143.017,232.374,5132.389,232.374Zm0-61.108c-9.506,0-17.238,13.249-17.238,29.535s7.732,29.536,17.238,29.536,17.237-13.249,17.237-29.536S5141.894,171.266,5132.389,171.266Z" fill="#e8ecff"/>
      <path id="Trazado_4789" data-name="Trazado 4789" d="M5132.389,232.374a1.019,1.019,0,0,1-1.019-1.019V170.247a1.019,1.019,0,0,1,2.037,0v61.108A1.019,1.019,0,0,1,5132.389,232.374Z" fill="#e8ecff"/>
      <path id="Trazado_4790" data-name="Trazado 4790" d="M5133.523,189.123a145.4,145.4,0,0,1-27.818-2.6,1.019,1.019,0,1,1,.437-1.99c.265.058,26.721,5.733,52.487,0a1.018,1.018,0,0,1,.443,1.988,118.694,118.694,0,0,1-25.549,2.606Z" fill="#e8ecff"/>
      <path id="Trazado_4791" data-name="Trazado 4791" d="M5158.853,217.1a1.03,1.03,0,0,1-.222-.025c-25.768-5.733-52.223-.057-52.487,0a1.018,1.018,0,0,1-.439-1.989c.268-.058,27.149-5.831,53.368,0a1.019,1.019,0,0,1-.22,2.014Z" fill="#e8ecff"/>
      <path id="Trazado_4792" data-name="Trazado 4792" d="M5162.943,201.82h-61.108a1.019,1.019,0,1,1,0-2.037h61.108a1.019,1.019,0,0,1,0,2.037Z" fill="#e8ecff"/>
    </g>
    <g id="Grupo_2076" data-name="Grupo 2076">
      <g id="Grupo_2074" data-name="Grupo 2074">
        <ellipse id="Elipse_97" data-name="Elipse 97" cx="4.54" cy="5.69" rx="4.54" ry="5.69" transform="translate(5044.908 225.525) rotate(-5.697)" fill="#4262ea"/>
        <path id="Trazado_4793" data-name="Trazado 4793" d="M5092.309,306.581h-29.592c-5.019-7.968-9.432-18.727-10.46-27.1-.49-3.975-.217-10.3,1.111-12.647,4.135-7.3-2.423-15.873-2.423-15.873,2.143.607,8.423.411,11.125,10,2.139,7.582,7.879,35.685,7.879,35.685l21.973,4.519A10.3,10.3,0,0,1,5092.309,306.581Z" fill="#6d77a0"/>
        <path id="Trazado_4794" data-name="Trazado 4794" d="M5092.309,306.581h-29.592c-5.019-7.968-9.432-18.727-10.46-27.1l4.389-1.345s5.554,25.352,8.783,25.739S5092.309,306.581,5092.309,306.581Z" fill="#2f364c"/>
        <path id="Trazado_4795" data-name="Trazado 4795" d="M5055.315,265.84a27.134,27.134,0,0,1-8.971,5.075c-14.147,5-21.1-6.651-24.144-14.843a12.571,12.571,0,0,1,4.751-2.068c1.036-.242,1.431-.667,2.34-.815,1.49-1.434,1.513-6.993,1.153-14.994l3.234.5,11.8,1.84a33.353,33.353,0,0,1,1.11,6.891c.1,2.714,0,5.2.577,5.767.915.093.743.53.743.53l.007.01A74.135,74.135,0,0,1,5055.315,265.84Z" fill="#e8ecff"/>
        <path id="Trazado_4796" data-name="Trazado 4796" d="M5046.059,241.109s.4,5.148.532,8.62a14.072,14.072,0,0,1-6.92,0,13.322,13.322,0,0,1-9.227-9.227Z" fill="#e8ecff" style="mix-blend-mode: multiply;isolation: isolate"/>
        <path id="Trazado_4797" data-name="Trazado 4797" d="M5060.941,278.131c-.033.254-3.187,10.509-3.22,10.767a125.008,125.008,0,0,0-.75,17.746l-6.659-.007-28.6-.056s3.451-10.411-5.65-26.371q-.448-.784-.936-1.587c-1.3-2.128,6.882-27.772,6.882-27.772s3.488-.617,8.408-1.022a12.712,12.712,0,0,0,9.254,5.09c7.5.576,6.859-5.2,6.92-5.19,3.217.646,4.644.338,8.873,2.365C5055.464,252.094,5061.115,276.731,5060.941,278.131Z" fill="#6d77a0"/>
        <path id="Trazado_4798" data-name="Trazado 4798" d="M5044.267,238.735s.17,1.149,2.72,1.174c0,0,2.141.022,2.154-1.224A6.268,6.268,0,0,0,5044.267,238.735Z" fill="#fff"/>
        <path id="Trazado_4799" data-name="Trazado 4799" d="M5017.758,306.581s-1.154-6.682-1.695-26.371l3.39-4.235s6,17,13.5,21.956c7.485,4.945,16.293,3.913,17.357,8.706Z" fill="#2f364c"/>
        <path id="Trazado_4800" data-name="Trazado 4800" d="M5022.009,250.851s-6.172.537-10.3,7.838-11.978,37.466-11.978,47.891h33.028a10.285,10.285,0,0,0-.387-5.421l-18.07-4.143s9.934-18.07,10.063-25.948S5022.009,250.851,5022.009,250.851Z" fill="#6d77a0"/>
        <path id="Trazado_4801" data-name="Trazado 4801" d="M5032.955,303.225s6.435-.629,7.5-.339a31.8,31.8,0,0,1,4.795,1.986,19.428,19.428,0,0,1,1.986,1.708,4.2,4.2,0,0,1-1.308.047c-.484-.109-1.937-.205-2.324-.238a12.058,12.058,0,0,0-1.776.255h-9.977Z" fill="#e8ecff"/>
        <g id="Grupo_2071" data-name="Grupo 2071">
          <path id="Trazado_4802" data-name="Trazado 4802" d="M5091.233,306.644h-31.722a2.529,2.529,0,0,1,2.529-2.529h29.193Z" fill="#c5d4f9"/>
          <path id="Trazado_4803" data-name="Trazado 4803" d="M5140.185,272.095l-11.763,34.549H5079.06l12.083-34.549Z" fill="#c5d4f9"/>
          <path id="Trazado_4804" data-name="Trazado 4804" d="M5140.185,272.095l-11.655,34.229-.108.32h-48.641l12.082-34.549Z" fill="#e8ecff"/>
          <path id="Trazado_4805" data-name="Trazado 4805" d="M5114.466,289.05a3.187,3.187,0,0,1-2.941,2.39,1.841,1.841,0,0,1-1.839-2.39,3.189,3.189,0,0,1,2.942-2.39A1.84,1.84,0,0,1,5114.466,289.05Z" fill="#fff"/>
          <path id="Trazado_4806" data-name="Trazado 4806" d="M5140.185,272.095l-11.655,34.229h-22.349l27.25-34.229Z" fill="#c5d4f9"/>
        </g>
        <path id="Trazado_4807" data-name="Trazado 4807" d="M5049.458,245.44s-18.339,3.734-20.488-7.722-5.965-18.69,5.654-21.559,14.719,1.075,16.367,4.725S5054.173,244.173,5049.458,245.44Z" fill="#e8ecff"/>
        <path id="Trazado_4808" data-name="Trazado 4808" d="M5054.545,212.364a57.735,57.735,0,0,1-11.414-3c-4.613-1.73-10.957.577-12.82,1.295a3,3,0,0,1,.488-1.208,2.7,2.7,0,0,0-1.032,1.533c-.092.069-.133.116-.109.132a3.455,3.455,0,0,0-1.677.111s.459-.067.624.228a.254.254,0,0,0,.073.081c-7.633,3.7-8.32,15.778-5.858,18.567,2.963,3.357,6.521,10.92,6.521,10.92a6.488,6.488,0,0,0,.749-4.747c-.543-2.956,2.012-2.96,5.236-4.31s.53-5.109,3.35-7.4,13.173-.961,13.036-2.709C5055.553,220.45,5054.545,212.758,5054.545,212.364Z" fill="#1e2335"/>
        <g id="Grupo_2073" data-name="Grupo 2073">
          <g id="Grupo_2072" data-name="Grupo 2072">
            <path id="Trazado_4809" data-name="Trazado 4809" d="M5038.851,240.117a14.447,14.447,0,0,1-10.153-7.279l.354-.17a14.044,14.044,0,0,0,9.863,7.062Z" fill="#1e2335"/>
          </g>
          <rect id="Rectángulo_1640" data-name="Rectángulo 1640" width="1.735" height="3.287" rx="0.7" transform="translate(5037.469 240.65) rotate(-85.187)" fill="#1e2335"/>
          <path id="Trazado_4810" data-name="Trazado 4810" d="M5034.354,210.877a14.368,14.368,0,0,1,2.762-1.915,10.012,10.012,0,0,1,1.036-.162,13.817,13.817,0,0,1,4.979.562,11.261,11.261,0,0,0-7.42,3.036c-5.52,4.863-6.134,13.751-6.14,13.84l-1.327-.081c-.214-.239-.432-.479-.645-.728C5027.856,223.108,5029.079,215.533,5034.354,210.877Z" fill="#4262ea"/>
          <ellipse id="Elipse_98" data-name="Elipse 98" cx="4.54" cy="5.69" rx="4.54" ry="5.69" transform="translate(5022.995 225.525) rotate(-5.697)" fill="#e9e8ff"/>
          <ellipse id="Elipse_99" data-name="Elipse 99" cx="3.1" cy="3.885" rx="3.1" ry="3.885" transform="matrix(0.995, -0.099, 0.099, 0.995, 5024.001, 227.94)" fill="#4262ea"/>
        </g>
      </g>
      <g id="Grupo_2075" data-name="Grupo 2075">
        <rect id="Rectángulo_1641" data-name="Rectángulo 1641" width="61.704" height="0.798" rx="0.386" transform="translate(5058.701 306.787) rotate(180)" fill="#2f384a"/>
      </g>
    </g>
    <g id="Grupo_2084" data-name="Grupo 2084">
      <g id="Grupo_2082" data-name="Grupo 2082">
        <g id="Grupo_2081" data-name="Grupo 2081">
          <path id="Trazado_4811" data-name="Trazado 4811" d="M5235.471,205.192s8.41,4.3,2.282,13.536c0,0,7.225.835,9.042-1.242a5.9,5.9,0,0,1-.593,1.352s7-.918,9.507-3.57-5.313-37.941-23.956-30.72c0,0-16.576,1.512-11.872,20.195s-1.476,19.722-1.476,19.722a8.941,8.941,0,0,0,2.691.419s1.135-.666,1.262-1.377a4.371,4.371,0,0,1-.317,1.481s6.777-.488,9.685-3.565S5237.078,208.94,5235.471,205.192Z" fill="#192235"/>
          <path id="Rectángulo_1642" data-name="Rectángulo 1642" d="M5.054,0H8.318a5.055,5.055,0,0,1,5.055,5.055v.624a5.055,5.055,0,0,1-5.055,5.055H5.055A5.055,5.055,0,0,1,0,5.679V5.054A5.054,5.054,0,0,1,5.054,0Z" transform="translate(5219.123 212.624) rotate(-82.108)" fill="#4262ea"/>
          <path id="Trazado_4812" data-name="Trazado 4812" d="M5221.547,242.636c2.509,1.937,4.1,8.93,8.142,10.083,15.167,4.329,23.308-13.68,25.971-22.471a13.2,13.2,0,0,0-5.118-1.863c-1.1-.188-2.265-.334-3.228-.431-1.656-1.408-3.949-6.941-4.089-15.358l-.731.156-12.265,2.694s.358,3.873.444,7.521c.065,2.854.157,3.537-.063,3.877-.954.156-2.078,2.6-2.078,2.6l-.007.011A78.011,78.011,0,0,0,5221.547,242.636Z" fill="#e8ecff"/>
          <path id="Trazado_4813" data-name="Trazado 4813" d="M5230.228,215.448s.361,3.87.444,7.521c6.888-.336,10.4-6.7,11.822-10.214Z" fill="#fff" style="mix-blend-mode: multiply;isolation: isolate"/>
          <g id="Grupo_2077" data-name="Grupo 2077">
            <path id="Trazado_4814" data-name="Trazado 4814" d="M5167.849,279.054s7.212.265,15.044.291c.926.005,1.865.005,2.8,0,6.378-.026,12.647-.25,15.313-.938,2.606-.671,12.63-7.465,20.652-15.7l0-.005c.623,1.483,1.092,2.615,1.1,2.7a41.592,41.592,0,0,0,1.106,5.477,66.429,66.429,0,0,0,4.954,12.671l4.3-.007,33.534-.049s-6.335-9.757-4.633-34.752c.044-.632-5.839-20.8-5.839-20.8s-4.569-.8-9.851-1.225c-.5.454-1.524,13.721-8.131,14.489-1.074.124-7.968,10.654-7.968,10.654l-2.088-10.756,2.47-14.271a75.517,75.517,0,0,0-7.543,2.314,8.33,8.33,0,0,0-4.205,3.736c-4.616,8.435-19.6,35.642-21.125,36.276-1.432.593-6.828,1.673-12.538,2.715h-.005c-7.64,1.4-15.841,2.72-15.841,2.72Z" fill="#6d77a0"/>
            <path id="Trazado_4815" data-name="Trazado 4815" d="M5226.427,283.563l2.4.007-.007-.01Z" fill="#6d77a0"/>
          </g>
          <path id="Trazado_4816" data-name="Trazado 4816" d="M5228.184,219.135s16.308-.32,15.953-10.473,1.51-17.032-8.917-17.257-12.314,3.72-13.02,7.138S5223.933,218.956,5228.184,219.135Z" fill="#e8ecff"/>
          <path id="Trazado_4817" data-name="Trazado 4817" d="M5182.893,279.345c.926.005,1.865.005,2.8,0,6.378-.026,12.647-.25,15.313-.938,2.606-.671,12.63-7.465,20.652-15.7l0-.005s-1.692-6.478-2.421-7.562-3.607,9.453-10.33,13.741-17.246,7.292-22.356,6.077C5183.11,274.144,5182.757,277.238,5182.893,279.345Z" fill="#2f364c"/>
          <g id="Grupo_2078" data-name="Grupo 2078">
            <path id="Trazado_4818" data-name="Trazado 4818" d="M5230.429,217.352a18.818,18.818,0,0,0,12-10.408l-.959-.15.48.075-.479-.076a17.736,17.736,0,0,1-11.289,9.77l-.175.054.239.793Z" fill="#30334d"/>
          </g>
          <path id="Trazado_4819" data-name="Trazado 4819" d="M5229.455,218.277l.874-.276a.851.851,0,0,0,.553-1.065h0a.851.851,0,0,0-1.065-.554l-.873.276a.852.852,0,0,0-.554,1.065h0A.852.852,0,0,0,5229.455,218.277Z" fill="#30334d"/>
          <path id="Trazado_4820" data-name="Trazado 4820" d="M5227.258,190.058s4.175,12.368,10.438,14.466,8.34-.386,8.34-.386a18.111,18.111,0,0,1-5.144-11.1S5230.772,185,5227.258,190.058Z" fill="#192235"/>
          <path id="Trazado_4821" data-name="Trazado 4821" d="M5235.055,193.7s-8.5-.477-11.043,1.944c-1.833,1.746-1.79,2.657-1.932,4.984,0,0-3.719-5.735.107-9.75C5226.244,186.621,5235.055,193.7,5235.055,193.7Z" fill="#192235"/>
          <path id="Trazado_4822" data-name="Trazado 4822" d="M5227.62,191.367s2.129,11.833,9.913,16.132c0,0-7.539-7.717-7.673-15.437S5227.62,191.367,5227.62,191.367Z" fill="#192235"/>
          <path id="Trazado_4823" data-name="Trazado 4823" d="M5255.709,215.266c-2.507,2.653-9.506,3.573-9.506,3.573a5.819,5.819,0,0,0,.591-1.354c-3.6,2.917-12.432.8-12.432.8,7.048-1.557,4.765-11.727,2.369-12.16a220.477,220.477,0,0,0-5.465-21.509c.312-.051.489-.067.489-.067C5250.4,177.326,5258.217,212.616,5255.709,215.266Z" fill="#192235"/>
          <g id="Grupo_2080" data-name="Grupo 2080">
            <path id="Trazado_4824" data-name="Trazado 4824" d="M5240.4,213.381l.673.093a5.518,5.518,0,0,0,6.207-4.695l.489-3.519a5.521,5.521,0,0,0-4.695-6.208l-.673-.093a5.52,5.52,0,0,0-6.208,4.7l-.488,3.519A5.52,5.52,0,0,0,5240.4,213.381Z" fill="#f4f5ff"/>
            <g id="Grupo_2079" data-name="Grupo 2079">
              <path id="Trazado_4825" data-name="Trazado 4825" d="M5244.805,200.543c.4-.75-1-6.58-3.067-11.1-1-2.186-3.515-5.111-5.312-5.865a3.873,3.873,0,0,0-2.215,0,16.962,16.962,0,0,0-1.944.784c5.906,1.841,11.038,14.218,10.666,15.5a.4.4,0,0,1,.039-.09Z" fill="#4262ea"/>
            </g>
            <path id="Rectángulo_1643" data-name="Rectángulo 1643" d="M2.742,0H4.514a2.74,2.74,0,0,1,2.74,2.74v.341A2.742,2.742,0,0,1,4.512,5.823H2.742A2.742,2.742,0,0,1,0,3.081V2.742A2.742,2.742,0,0,1,2.742,0Z" transform="translate(5239.037 209.502) rotate(-82.06)" fill="#4262ea"/>
          </g>
          <path id="Trazado_4826" data-name="Trazado 4826" d="M5202.184,273.174s-6.994-.4-7.673-.036a38.222,38.222,0,0,0-5.449,3.717,39.2,39.2,0,0,0-2.13,3.524s.667.185.968-.086,2.583-2.7,2.583-2.7l-2.344,3.561a1.982,1.982,0,0,0,1.132-.39c.321-.354,2.512-2.581,2.512-2.581l.746-.147a8.114,8.114,0,0,0-1.172,1.161,7.177,7.177,0,0,0-.686,1.145,5.532,5.532,0,0,0,.876-.212c.209-.1,2.173-1.819,2.173-1.819l-1.042,1.42a2.734,2.734,0,0,0,.933-.19,14.464,14.464,0,0,1,2.032-1.562,9.142,9.142,0,0,0,3.062-.523c.839-.445,3.472-1.463,3.472-1.463Z" fill="#e8ecff"/>
          <path id="Trazado_4827" data-name="Trazado 4827" d="M5245.364,224.781s4.677,1.364,5.743,2.438c0,0-4.889,12.5-11.938,18.332l-1.884-1.337v3.039l-7.057,4.618S5245.726,228.562,5245.364,224.781Z" fill="#192235"/>
          <path id="Trazado_4828" data-name="Trazado 4828" d="M5223.868,270.889a66.429,66.429,0,0,0,4.954,12.671l-2.4,0,2.4.007h22.278s-2.584-.005-2.579-.017c.06-.226-3.768-10.6,2.579-14.858s8.665-14.739,8.665-14.739l-20.233-4.942s-8.338,12.165-10.71,14.484c-1.822,1.781-6.067,1.914-6.067,1.914Z" fill="#2f364c"/>
          <path id="Trazado_4829" data-name="Trazado 4829" d="M5230.61,226.844s-2.152,17.006-.382,25.027c0,0-2.888-5.307-3.294-6.28l.487-2.916-1.864.648s1.644-13.558,3.131-15.935,2.035-2.607,2.035-2.607Z" fill="#192235"/>
          <path id="Trazado_4830" data-name="Trazado 4830" d="M5167.849,279.054s9.023.333,17.842.291c2.188-3.393-.491-7.46-.491-7.46h-.005c-7.64,1.4-15.841,2.72-15.841,2.72Z" fill="#e8ecff"/>
          <path id="Trazado_4831" data-name="Trazado 4831" d="M5202.176,276s17.166,1.5,26.653,1.077v-9.322c-6.215,1.716-26.646,5.421-26.646,5.421Z" fill="#e8ecff"/>
          <path id="Trazado_4832" data-name="Trazado 4832" d="M5251.107,227.219s9.817.223,12.856,3.505-3.015,21.828-3.015,21.828-18.3,22.411-27.452,23.991c0,0-4,.546-5.868.576,0,0,1.831-5.33-1.575-8.676,0,0,3.92-1.1,4.082-1.583S5251.107,227.219,5251.107,227.219Z" fill="#6d77a0"/>
        </g>
        <path id="Trazado_4833" data-name="Trazado 4833" d="M5189.9,283.57h33.345a2.658,2.658,0,0,0-2.658-2.658H5189.9Z" fill="#c5d4f9"/>
        <path id="Trazado_4834" data-name="Trazado 4834" d="M5138.439,247.253,5150.8,283.57h51.889l-12.7-36.317Z" fill="#c5d4f9"/>
        <path id="Trazado_4835" data-name="Trazado 4835" d="M5138.439,247.253l12.251,35.981.114.336h51.131l-12.7-36.317Z" fill="#e8ecff"/>
        <path id="Trazado_4836" data-name="Trazado 4836" d="M5165.475,265.076a3.352,3.352,0,0,0,3.092,2.512,1.935,1.935,0,0,0,1.933-2.512,3.353,3.353,0,0,0-3.093-2.513A1.935,1.935,0,0,0,5165.475,265.076Z" fill="#fff"/>
        <path id="Trazado_4837" data-name="Trazado 4837" d="M5138.439,247.253l12.251,35.981h23.493l-28.645-35.981Z" fill="#c5d4f9"/>
      </g>
      <g id="Grupo_2083" data-name="Grupo 2083">
        <rect id="Rectángulo_1644" data-name="Rectángulo 1644" width="43.25" height="0.798" rx="0.386" transform="translate(5269.185 283.72) rotate(180)" fill="#2f384a"/>
      </g>
    </g>
    <g id="Grupo_2085" data-name="Grupo 2085">
      <path id="Trazado_4838" data-name="Trazado 4838" d="M5010.539,182.287l-3.383-.831-.288-1.13a5.935,5.935,0,0,0,1.708-3.328,1.31,1.31,0,0,0,.958-1.09l.22-1.734a1.279,1.279,0,0,0-.315-1.013,1.335,1.335,0,0,0-.53-.362l.082-1.632.33-.325a1.974,1.974,0,0,0,.048-2.7,3.739,3.739,0,0,0-3.345-1.5,5.9,5.9,0,0,0-3.347.869c-3.762.077-4.274,1.792-4.274,3.465,0,.389.1,1.266.16,1.794a1.322,1.322,0,0,0-.593.38,1.283,1.283,0,0,0-.322,1.022l.221,1.734a1.312,1.312,0,0,0,1.062,1.115,5.973,5.973,0,0,0,1.624,3.227l-.307,1.207-3.383.831a4.878,4.878,0,0,0-3.76,4.726.438.438,0,0,0,.442.434h20.309a.439.439,0,0,0,.442-.435A4.883,4.883,0,0,0,5010.539,182.287Z" fill="#fff"/>
    </g>
    <g id="Layer_29" data-name="Layer 29">
      <g id="Grupo_2086" data-name="Grupo 2086">
        <path id="Trazado_4839" data-name="Trazado 4839" d="M4991.209,209.9l-1.446.964h-.323a.214.214,0,0,0-.215.215v1.183a.214.214,0,0,0,.215.215h.323l1.446.965a.108.108,0,0,0,.167-.09v-3.363A.107.107,0,0,0,4991.209,209.9Z" fill="#fff"/>
        <path id="Trazado_4840" data-name="Trazado 4840" d="M4993.489,209.647a.161.161,0,0,0-.157.282,1.99,1.99,0,0,1,0,3.48.161.161,0,0,0,.079.3.169.169,0,0,0,.078-.02,2.313,2.313,0,0,0,0-4.044Z" fill="#fff"/>
        <path id="Trazado_4841" data-name="Trazado 4841" d="M4993.687,211.669a1.5,1.5,0,0,0-.775-1.316.16.16,0,0,0-.219.062.163.163,0,0,0,.063.22,1.183,1.183,0,0,1,0,2.068.161.161,0,0,0,.078.3.157.157,0,0,0,.078-.02A1.506,1.506,0,0,0,4993.687,211.669Z" fill="#fff"/>
        <path id="Trazado_4842" data-name="Trazado 4842" d="M4992.3,211.058a.162.162,0,0,0-.158.282.376.376,0,0,1,0,.658.161.161,0,0,0,.079.3.159.159,0,0,0,.079-.02.7.7,0,0,0,0-1.222Z" fill="#fff"/>
      </g>
    </g>
  </g>
</svg>
