<svg xmlns="http://www.w3.org/2000/svg" width="75" height="75" viewBox="0 0 75 75">
  <g id="Grupo_2107" data-name="Grupo 2107" transform="translate(-460 -396)">
    <g id="Grupo_2043" data-name="Grupo 2043" transform="translate(-3980)">
      <rect id="Rectángulo_1636" data-name="Rectángulo 1636" width="75" height="75" rx="8" transform="translate(4440 396)" fill="#eef1ff"/>
    </g>
    <g id="Grupo_2044" data-name="Grupo 2044" transform="translate(-3980)">
      <path id="Trazado_4735" data-name="Trazado 4735" d="M4468.4,443.819a1.517,1.517,0,0,0-1.517,1.517v3.035a4.557,4.557,0,0,0,4.552,4.552h12.14a4.557,4.557,0,0,0,4.552-4.552v-3.035a1.518,1.518,0,0,0-3.035,0v3.035a1.519,1.519,0,0,1-1.517,1.517h-12.14a1.519,1.519,0,0,1-1.517-1.517v-3.035a1.518,1.518,0,0,0-1.518-1.517Zm0,0" fill="#8e9fff"/>
      <path id="Trazado_4736" data-name="Trazado 4736" d="M4465.36,438.356h6.07a1.517,1.517,0,1,0,0-3.035h-6.07a4.627,4.627,0,0,1-1.377-8.893,4.57,4.57,0,0,0,3.072-3.366,7.627,7.627,0,0,1,7.41-5.95,7.488,7.488,0,0,1,5.006,1.935,4.551,4.551,0,0,0,3.61,1.13,4.055,4.055,0,0,1,.489-.031,4.584,4.584,0,0,1,4.357,3.228,4.546,4.546,0,0,0,3.036,3.037,4.624,4.624,0,0,1-1.323,8.91h-6.07a1.517,1.517,0,1,0,0,3.035h6.07a7.652,7.652,0,0,0,2.2-14.849,1.514,1.514,0,0,1-1.013-1.014,7.589,7.589,0,0,0-7.261-5.381,7.048,7.048,0,0,0-.867.054,1.516,1.516,0,0,1-1.2-.377,10.521,10.521,0,0,0-7.034-2.712,10.632,10.632,0,0,0-10.375,8.335,1.524,1.524,0,0,1-1.024,1.123,7.655,7.655,0,0,0,2.294,14.821Zm0,0" fill="#8e9fff"/>
      <path id="Trazado_4737" data-name="Trazado 4737" d="M4481.608,441.077a1.517,1.517,0,0,0-2.146,0l-.444.444V426.975a1.518,1.518,0,0,0-3.035,0v14.546l-.445-.444a1.517,1.517,0,0,0-2.145,2.145l3.034,3.035a1.518,1.518,0,0,0,2.147,0l3.035-3.035a1.516,1.516,0,0,0,0-2.145Zm0,0" fill="#8e9fff"/>
    </g>
  </g>
</svg>
