<svg xmlns="http://www.w3.org/2000/svg" width="25" height="25" viewBox="0 0 25 25">
  <g id="Grupo_2052" data-name="Grupo 2052" transform="translate(-5754.5 -396)">
    <circle id="Elipse_95" data-name="Elipse 95" cx="12.5" cy="12.5" r="12.5" transform="translate(5754.5 396)" fill="#fbe3e7"/>
    <path id="Trazado_4746" data-name="Trazado 4746" d="M5774.44,412.536a.752.752,0,0,0,.06-.285V408.5a.75.75,0,0,0-1.5,0v1.942l-4.716-4.723a.748.748,0,0,0-1.064,0l-2.467,2.474-3.967-3.974a.753.753,0,1,0-1.064,1.065l4.5,4.5a.748.748,0,0,0,1.064,0l2.467-2.474,4.191,4.191H5770a.75.75,0,0,0,0,1.5h3.749a.761.761,0,0,0,.69-.465Zm0,0" fill="#e54560"/>
  </g>
</svg>
