<svg xmlns="http://www.w3.org/2000/svg" width="50" height="50" viewBox="0 0 50 50">
  <g id="Grupo_156" data-name="Grupo 156" transform="translate(-3630 -3826.808)">
    <circle id="Elipse_17" data-name="Elipse 17" cx="25" cy="25" r="25" transform="translate(3630 3826.808)" fill="#fbe3e7"/>
    <path id="Trazado_296" data-name="Trazado 296" d="M3658.63,3851.809l6.806-6.806a1.924,1.924,0,0,0,0-2.722l-.907-.907a1.926,1.926,0,0,0-2.723,0l-6.8,6.8-6.806-6.807a1.924,1.924,0,0,0-2.722,0l-.909.908a1.924,1.924,0,0,0,0,2.722l6.807,6.807-6.806,6.806a1.924,1.924,0,0,0,0,2.722l.908.907a1.924,1.924,0,0,0,2.722,0l6.806-6.806,6.8,6.806a1.925,1.925,0,0,0,2.723,0l.907-.907a1.924,1.924,0,0,0,0-2.722Zm0,0" fill="#e54560"/>
  </g>
</svg>
