<svg xmlns="http://www.w3.org/2000/svg" width="50" height="50" viewBox="0 0 50 50">
  <g id="Grupo_152" data-name="Grupo 152" transform="translate(-3421.5 -3826.808)">
    <circle id="Elipse_14" data-name="Elipse 14" cx="25" cy="25" r="25" transform="translate(3421.5 3826.808)" fill="#eef1ff"/>
    <g id="Grupo_151" data-name="Grupo 151">
      <path id="Trazado_289" data-name="Trazado 289" d="M3456.283,3848.364l-4.753-4.754a1.711,1.711,0,0,0-1.182-.591c-.539,0-1.168.41-1.168,1.565v1.618a13.8,13.8,0,0,0-13.18,13.781.615.615,0,0,0,.42.583.628.628,0,0,0,.2.032.614.614,0,0,0,.492-.246,15.736,15.736,0,0,1,12.073-6.332v1.594c0,1.155.629,1.564,1.167,1.564h0a1.707,1.707,0,0,0,1.182-.591l4.753-4.753a2.458,2.458,0,0,0,0-3.47Zm-.87,2.6-4.753,4.753a1.243,1.243,0,0,1-.223.184,1.353,1.353,0,0,1-.027-.287v-2.22a.615.615,0,0,0-.615-.616,16.911,16.911,0,0,0-7.764,1.862,17.247,17.247,0,0,0-4.666,3.5,12.585,12.585,0,0,1,12.43-10.723.614.614,0,0,0,.615-.615v-2.22a1.368,1.368,0,0,1,.027-.288,1.3,1.3,0,0,1,.223.184l4.753,4.754a1.227,1.227,0,0,1,0,1.73Zm0,0" fill="#8e9fff"/>
    </g>
  </g>
</svg>
