<svg xmlns="http://www.w3.org/2000/svg" width="25" height="25" viewBox="0 0 25 25">
  <g id="Grupo_2050" data-name="Grupo 2050" transform="translate(-5279.5 -396)">
    <circle id="Elipse_94" data-name="Elipse 94" cx="12.5" cy="12.5" r="12.5" transform="translate(5279.5 396)" fill="#e6f9f1"/>
    <path id="Trazado_4745" data-name="Trazado 4745" d="M5299.44,404.464a.761.761,0,0,0-.69-.465H5295a.75.75,0,0,0,0,1.5h1.942l-4.191,4.191-2.467-2.474a.748.748,0,0,0-1.064,0l-4.5,4.5a.753.753,0,1,0,1.064,1.065l3.967-3.974,2.467,2.474a.748.748,0,0,0,1.064,0l4.716-4.723V408.5a.75.75,0,0,0,1.5,0v-3.749a.752.752,0,0,0-.06-.285Zm0,0" fill="#58d9a2"/>
  </g>
</svg>
