<svg xmlns="http://www.w3.org/2000/svg" width="75" height="75" viewBox="0 0 75 75">
  <g id="Grupo_2108" data-name="Grupo 2108" transform="translate(-936 -396)">
    <g id="Grupo_2045" data-name="Grupo 2045" transform="translate(-3980)">
      <rect id="Rectángulo_1637" data-name="Rectángulo 1637" width="75" height="75" rx="8" transform="translate(4916 396)" fill="#eef1ff"/>
    </g>
    <g id="Grupo_2046" data-name="Grupo 2046" transform="translate(-3980)">
      <path id="Trazado_4738" data-name="Trazado 4738" d="M4967.664,423.672h-8.672a1.445,1.445,0,1,0,0,2.89h8.672a1.447,1.447,0,0,1,1.445,1.446v19.656a1.446,1.446,0,0,1-1.445,1.445h-1.445v-6.648a1.446,1.446,0,0,0-1.446-1.445h-5.781a1.445,1.445,0,0,0-1.445,1.445v8.094a1.445,1.445,0,0,0,1.445,1.445h8.672a4.341,4.341,0,0,0,4.336-4.336V428.008a4.341,4.341,0,0,0-4.336-4.336Zm-4.336,20.234v5.2h-2.891v-5.2Zm0,0" fill="#8e9fff"/>
      <path id="Trazado_4739" data-name="Trazado 4739" d="M4951.952,418.02l-11.562-2.891a4.393,4.393,0,0,0-1.054-.129,4.341,4.341,0,0,0-4.336,4.336v28.328a4.341,4.341,0,0,0,4.336,4.336H4950.9a4.341,4.341,0,0,0,4.336-4.336V422.227a4.328,4.328,0,0,0-3.282-4.207Zm-5.39,31.089h-2.89v-5.2h2.89Zm5.782-1.445a1.448,1.448,0,0,1-1.446,1.445h-1.445v-6.648a1.445,1.445,0,0,0-1.445-1.445h-5.781a1.446,1.446,0,0,0-1.446,1.445v6.648h-1.445a1.446,1.446,0,0,1-1.445-1.445V419.336a1.446,1.446,0,0,1,1.445-1.445,1.48,1.48,0,0,1,.353.042l11.562,2.891a1.444,1.444,0,0,1,1.093,1.4Zm0,0" fill="#8e9fff"/>
    </g>
  </g>
</svg>
