<svg xmlns="http://www.w3.org/2000/svg" width="201.398" height="54" viewBox="0 0 201.398 54">
  <g id="Grupo_475" data-name="Grupo 475" transform="translate(-859.301 -1441.036)">
    <rect id="Rectángulo_220" data-name="Rectángulo 220" width="1.389" height="9.384" transform="translate(1011.423 1442.282)" fill="#282828"/>
    <path id="Trazado_584" data-name="Trazado 584" d="M1014.941,1451.666v-6.712h1.332v1.377a2.362,2.362,0,0,1,.469-.824,2.037,2.037,0,0,1,.705-.505,2.148,2.148,0,0,1,.851-.173,2.051,2.051,0,0,1,.259.017.567.567,0,0,1,.2.056v1.336a.743.743,0,0,0-.218-.052c-.089-.009-.164-.015-.23-.018a2.9,2.9,0,0,0-.8.044,1.744,1.744,0,0,0-.627.26,1.2,1.2,0,0,0-.4.474,1.568,1.568,0,0,0-.14.688v4.037Z" fill="#282828"/>
    <path id="Trazado_585" data-name="Trazado 585" d="M1025.487,1446.438a2.745,2.745,0,0,0-1.076-1.2,3.162,3.162,0,0,0-1.646-.413,3.112,3.112,0,0,0-1.691.44,2.816,2.816,0,0,0-1.067,1.229,4.311,4.311,0,0,0-.37,1.849,4.117,4.117,0,0,0,.388,1.87,2.757,2.757,0,0,0,1.092,1.179,3.208,3.208,0,0,0,1.646.405h0a3.133,3.133,0,0,0,1.7-.437,2.791,2.791,0,0,0,1.049-1.216,4.268,4.268,0,0,0,.357-1.8A4.334,4.334,0,0,0,1025.487,1446.438Zm-1.185,3.136a1.825,1.825,0,0,1-.578.849,1.5,1.5,0,0,1-.961.3h.007a1.511,1.511,0,0,1-1.023-.335,1.882,1.882,0,0,1-.561-.883,3.982,3.982,0,0,1-.175-1.207,3.776,3.776,0,0,1,.2-1.282,1.768,1.768,0,0,1,.587-.838,1.574,1.574,0,0,1,.97-.295,1.506,1.506,0,0,1,1.009.33,1.843,1.843,0,0,1,.551.872,3.991,3.991,0,0,1,.173,1.218A3.754,3.754,0,0,1,1024.3,1449.574Z" fill="#282828"/>
    <path id="Trazado_586" data-name="Trazado 586" d="M1027.372,1451.666v-6.712h1.357v.968a2.132,2.132,0,0,1,1.121-.9,2.7,2.7,0,0,1,.937-.15,2.741,2.741,0,0,1,1.165.25,1.981,1.981,0,0,1,.86.779,2.56,2.56,0,0,1,.329,1.367v4.4h-1.389v-4.251a1.374,1.374,0,0,0-.387-1.071,1.421,1.421,0,0,0-1-.351,2.229,2.229,0,0,0-.779.137,1.375,1.375,0,0,0-.6.411,1.068,1.068,0,0,0-.227.692v4.433Z" fill="#282828"/>
    <path id="Trazado_587" data-name="Trazado 587" d="M1037.234,1451.712a2.662,2.662,0,0,1-1.153-.2,1.133,1.133,0,0,1-.571-.58,2.309,2.309,0,0,1-.165-.918v-4.058h-1.089v-1h1.135l.338-1.975h1.012v1.965h1.507v1.006h-1.507v4.006a1.307,1.307,0,0,0,.068.484.325.325,0,0,0,.1.132.322.322,0,0,0,.148.07,1.907,1.907,0,0,0,.451.043h.779v.9a1.75,1.75,0,0,1-.379.091,4.55,4.55,0,0,1-.66.034Z" fill="#282828"/>
    <path id="Trazado_588" data-name="Trazado 588" d="M1045.424,1448.174a4.181,4.181,0,0,0-.344-1.768,2.6,2.6,0,0,0-1.013-1.165,3.382,3.382,0,0,0-3.322.038,2.934,2.934,0,0,0-1.072,1.256,4.36,4.36,0,0,0-.37,1.847,3.858,3.858,0,0,0,.407,1.824,2.858,2.858,0,0,0,1.132,1.179,3.35,3.35,0,0,0,1.681.411h.012a3.411,3.411,0,0,0,1.266-.234,2.758,2.758,0,0,0,1.043-.723,2.278,2.278,0,0,0,.554-1.169h-1.286a1.287,1.287,0,0,1-.575.812,1.934,1.934,0,0,1-1.042.271,1.617,1.617,0,0,1-1.6-1.037,2.693,2.693,0,0,1-.194-1.08h4.725Zm-4.713-.441a2.181,2.181,0,0,1,.179-.9,1.747,1.747,0,0,1,.575-.715,1.6,1.6,0,0,1,.961-.28,1.654,1.654,0,0,1,.937.25,1.515,1.515,0,0,1,.556.682,2.456,2.456,0,0,1,.181.958Z" fill="#282828"/>
    <path id="Trazado_589" data-name="Trazado 589" d="M1049.767,1451.8a3.23,3.23,0,0,1-1.617-.4,2.773,2.773,0,0,1-1.109-1.174,4.045,4.045,0,0,1-.4-1.886,4.282,4.282,0,0,1,.372-1.836,2.85,2.85,0,0,1,1.075-1.233,3.09,3.09,0,0,1,1.681-.443,2.94,2.94,0,0,1,1.343.3,2.519,2.519,0,0,1,.952.824,2.626,2.626,0,0,1,.444,1.226H1051.3a1.521,1.521,0,0,0-.245-.617,1.441,1.441,0,0,0-.514-.458,1.594,1.594,0,0,0-.759-.165,1.653,1.653,0,0,0-1.317.591,2.734,2.734,0,0,0-.505,1.811,2.993,2.993,0,0,0,.474,1.778,1.582,1.582,0,0,0,1.369.659,1.46,1.46,0,0,0,1.253-.627,1.544,1.544,0,0,0,.259-.613h1.182a2.463,2.463,0,0,1-1.4,1.986,3,3,0,0,1-1.321.28Z" fill="#282828"/>
    <path id="Trazado_590" data-name="Trazado 590" d="M1053.519,1445.474l-.41-3.194h1.59l-.422,3.194Z" fill="#282828"/>
    <path id="Trazado_591" data-name="Trazado 591" d="M1058.056,1451.8a3.89,3.89,0,0,1-1.317-.22,2.425,2.425,0,0,1-1.026-.7,2.3,2.3,0,0,1-.515-1.213h1.24a1.308,1.308,0,0,0,.329.632,1.482,1.482,0,0,0,.571.37,2.1,2.1,0,0,0,.718.12,2.044,2.044,0,0,0,1.032-.23.758.758,0,0,0,.3-.3.745.745,0,0,0,.1-.412.734.734,0,0,0-.214-.552,1.354,1.354,0,0,0-.668-.3l-1.337-.318a3.126,3.126,0,0,1-1.332-.621,1.5,1.5,0,0,1-.387-.538,1.475,1.475,0,0,1-.118-.652,1.891,1.891,0,0,1,.3-1.052,1.98,1.98,0,0,1,.884-.724,3.547,3.547,0,0,1,1.45-.264,3.019,3.019,0,0,1,1.827.507,1.759,1.759,0,0,1,.71,1.467h-1.2a1.047,1.047,0,0,0-.418-.724,1.527,1.527,0,0,0-.932-.262,1.847,1.847,0,0,0-.988.237.794.794,0,0,0-.382.723.6.6,0,0,0,.073.3.593.593,0,0,0,.209.224,2.519,2.519,0,0,0,.834.315l1.273.317a2.786,2.786,0,0,1,.811.341,1.88,1.88,0,0,1,.494.464,1.607,1.607,0,0,1,.257.526,1.9,1.9,0,0,1,.074.513,1.824,1.824,0,0,1-.321,1.087,2.037,2.037,0,0,1-.912.695,3.7,3.7,0,0,1-1.4.242Z" fill="#282828"/>
    <path id="Trazado_592" data-name="Trazado 592" d="M1013.842,1465.018l-3.317-9.384h1.357l2.779,7.8,2.771-7.8h1.363l-3.316,9.384Z" fill="#282828"/>
    <g id="Grupo_474" data-name="Grupo 474">
      <path id="Trazado_593" data-name="Trazado 593" d="M1022.151,1465.146h0Z" fill="#282828"/>
      <path id="Trazado_594" data-name="Trazado 594" d="M1024.873,1459.789a2.735,2.735,0,0,0-1.078-1.2,3.485,3.485,0,0,0-3.332.026,2.826,2.826,0,0,0-1.068,1.23,4.333,4.333,0,0,0-.371,1.851,4.1,4.1,0,0,0,.39,1.868,2.752,2.752,0,0,0,1.09,1.179,3.23,3.23,0,0,0,1.646.405,3.118,3.118,0,0,0,1.7-.438,2.77,2.77,0,0,0,1.049-1.217,4.269,4.269,0,0,0,.355-1.8A4.341,4.341,0,0,0,1024.873,1459.789Zm-1.185,3.134a1.841,1.841,0,0,1-.578.852,1.5,1.5,0,0,1-.959.3h0a1.511,1.511,0,0,1-1.019-.334,1.878,1.878,0,0,1-.562-.883,3.989,3.989,0,0,1-.176-1.208,3.794,3.794,0,0,1,.2-1.281,1.752,1.752,0,0,1,.586-.838,1.566,1.566,0,0,1,.972-.3,1.5,1.5,0,0,1,1.009.329,1.834,1.834,0,0,1,.551.873,4.006,4.006,0,0,1,.173,1.216A3.8,3.8,0,0,1,1023.688,1462.923Z" fill="#282828"/>
    </g>
    <rect id="Rectángulo_221" data-name="Rectángulo 221" width="1.389" height="9.384" transform="translate(1026.902 1455.634)" fill="#282828"/>
    <path id="Trazado_595" data-name="Trazado 595" d="M1037.008,1457.032a2.722,2.722,0,0,0-1.281-1.054,4.5,4.5,0,0,0-1.8-.344h-3.259v9.384l1.422,0v-3.441h2.025a4.085,4.085,0,0,0,1.737-.347,2.694,2.694,0,0,0,1.169-1.006,2.929,2.929,0,0,0,.418-1.594A2.73,2.73,0,0,0,1037.008,1457.032Zm-1.047,2.269a1.773,1.773,0,0,1-.433.625,2.094,2.094,0,0,1-1.46.515h-1.994v-3.688h1.941a2.327,2.327,0,0,1,1.493.464,1.6,1.6,0,0,1,.585,1.336A1.776,1.776,0,0,1,1035.961,1459.3Z" fill="#282828"/>
    <path id="Trazado_596" data-name="Trazado 596" d="M1014.7,1478.5a5.133,5.133,0,0,1-1.317-.164,4.042,4.042,0,0,1-1.152-.5,2.878,2.878,0,0,1-.85-.835,2.681,2.681,0,0,1-.42-1.167h1.449a1.729,1.729,0,0,0,.438.85,2.051,2.051,0,0,0,.823.518,3.264,3.264,0,0,0,1.1.176,2.928,2.928,0,0,0,1.032-.176,1.844,1.844,0,0,0,.766-.505,1.188,1.188,0,0,0,.291-.812,1.075,1.075,0,0,0-.359-.853,2.636,2.636,0,0,0-1.081-.5l-1.882-.468a4.349,4.349,0,0,1-1.2-.464,2.172,2.172,0,0,1-.8-.8,2.448,2.448,0,0,1-.285-1.229,2.317,2.317,0,0,1,.451-1.424,2.913,2.913,0,0,1,1.227-.939,4.457,4.457,0,0,1,1.756-.329,4.224,4.224,0,0,1,1.892.383,2.857,2.857,0,0,1,1.169,1.01,2.541,2.541,0,0,1,.405,1.359h-1.415a1.713,1.713,0,0,0-.353-.951,1.666,1.666,0,0,0-.748-.509,2.984,2.984,0,0,0-1-.164,2.132,2.132,0,0,0-1.444.424,1.31,1.31,0,0,0-.484,1.01,1.083,1.083,0,0,0,.354.851,2.481,2.481,0,0,0,1.049.48l1.811.448a3.672,3.672,0,0,1,1.373.562,2.2,2.2,0,0,1,.743.875,2.651,2.651,0,0,1,.227,1.1,2.366,2.366,0,0,1-.448,1.419,2.965,2.965,0,0,1-1.25.973A4.605,4.605,0,0,1,1014.7,1478.5Z" fill="#282828"/>
    <path id="Trazado_597" data-name="Trazado 597" d="M1020.8,1480.509a3.051,3.051,0,0,1-1.091-.181v-.9l.681.014a2.245,2.245,0,0,0,.644-.046,1.084,1.084,0,0,0,.4-.178.859.859,0,0,0,.221-.244,1.552,1.552,0,0,0,.114-.24l.207-.565-2.616-6.518h1.39l1.883,4.961,1.875-4.961h1.356l-2.8,7.089a3.812,3.812,0,0,1-.627,1.084,1.881,1.881,0,0,1-.749.533A2.583,2.583,0,0,1,1020.8,1480.509Z" fill="#282828"/>
    <path id="Trazado_598" data-name="Trazado 598" d="M1029.417,1478.5a3.861,3.861,0,0,1-1.317-.22,2.425,2.425,0,0,1-1.026-.695,2.3,2.3,0,0,1-.515-1.213h1.24a1.3,1.3,0,0,0,.321.632,1.454,1.454,0,0,0,.571.37,2.092,2.092,0,0,0,.718.121,2.054,2.054,0,0,0,1.032-.231.765.765,0,0,0,.4-.711.737.737,0,0,0-.214-.552,1.354,1.354,0,0,0-.668-.3l-1.337-.318a3.127,3.127,0,0,1-1.332-.621,1.49,1.49,0,0,1-.505-1.19,1.9,1.9,0,0,1,.294-1.052,1.983,1.983,0,0,1,.883-.724,3.576,3.576,0,0,1,1.452-.264,3.019,3.019,0,0,1,1.827.507,1.762,1.762,0,0,1,.71,1.467h-1.2a1.044,1.044,0,0,0-.419-.724,1.523,1.523,0,0,0-.931-.262,1.848,1.848,0,0,0-.988.237.793.793,0,0,0-.382.723.6.6,0,0,0,.281.523,2.5,2.5,0,0,0,.835.315l1.273.318a2.754,2.754,0,0,1,.811.34,1.885,1.885,0,0,1,.494.465,1.617,1.617,0,0,1,.257.525,1.9,1.9,0,0,1,.074.513,1.823,1.823,0,0,1-.321,1.087,2.029,2.029,0,0,1-.912.7A3.676,3.676,0,0,1,1029.417,1478.5Z" fill="#282828"/>
    <path id="Trazado_599" data-name="Trazado 599" d="M1036.017,1478.413a2.677,2.677,0,0,1-1.152-.2,1.14,1.14,0,0,1-.572-.582,2.322,2.322,0,0,1-.164-.918v-4.057h-1.09v-1h1.136l.337-1.975h1.013v1.966h1.505v1.007h-1.505v4a1.244,1.244,0,0,0,.067.484.344.344,0,0,0,.094.126.331.331,0,0,0,.14.068,1.906,1.906,0,0,0,.451.043h.779v.9a1.75,1.75,0,0,1-.379.091A4.538,4.538,0,0,1,1036.017,1478.413Z" fill="#282828"/>
    <path id="Trazado_600" data-name="Trazado 600" d="M1044.209,1474.876a4.214,4.214,0,0,0-.344-1.769,2.61,2.61,0,0,0-1.013-1.165,3.391,3.391,0,0,0-3.323.038,2.926,2.926,0,0,0-1.07,1.256,4.348,4.348,0,0,0-.371,1.847,3.857,3.857,0,0,0,.407,1.824,2.858,2.858,0,0,0,1.132,1.179,3.562,3.562,0,0,0,2.954.168,2.77,2.77,0,0,0,1.044-.723,2.266,2.266,0,0,0,.551-1.169h-1.284a1.286,1.286,0,0,1-.575.812,1.934,1.934,0,0,1-1.042.271,1.616,1.616,0,0,1-1.6-1.029,2.692,2.692,0,0,1-.194-1.079h4.725Zm-4.725-.442a2.211,2.211,0,0,1,.191-.9,1.754,1.754,0,0,1,.575-.715,1.586,1.586,0,0,1,.961-.278,1.644,1.644,0,0,1,.937.249,1.516,1.516,0,0,1,.555.681,2.423,2.423,0,0,1,.182.958Z" fill="#282828"/>
    <path id="Trazado_601" data-name="Trazado 601" d="M1045.793,1478.367v-6.712h1.35v.968a2.675,2.675,0,0,1,.778-.768,2.253,2.253,0,0,1,1.273-.33,2.367,2.367,0,0,1,1.426.494,1.754,1.754,0,0,1,.494.6,2.445,2.445,0,0,1,.851-.785,2.342,2.342,0,0,1,1.193-.306,2.577,2.577,0,0,1,.741.115,2.006,2.006,0,0,1,.71.382,1.919,1.919,0,0,1,.533.744,3.05,3.05,0,0,1,.2,1.2v4.4h-1.4v-4.251a1.691,1.691,0,0,0-.184-.864,1.023,1.023,0,0,0-.481-.438,1.572,1.572,0,0,0-.627-.127,1.843,1.843,0,0,0-.623.117,1.275,1.275,0,0,0-.551.39,1.118,1.118,0,0,0-.227.739v4.434h-1.39v-4.551a.968.968,0,0,0-.2-.622,1.231,1.231,0,0,0-.494-.38,1.485,1.485,0,0,0-.588-.127,1.754,1.754,0,0,0-.648.13,1.284,1.284,0,0,0-.542.407,1.1,1.1,0,0,0-.217.709v4.434Z" fill="#282828"/>
    <rect id="Rectángulo_222" data-name="Rectángulo 222" width="1.317" height="36.604" transform="translate(1000.8 1442.025)" fill="#ff664a"/>
    <path id="Trazado_602" data-name="Trazado 602" d="M864.036,1487.957h-1.589v5.634h1.582v1.246H859.3v-1.246h1.6v-5.634h-1.589v-1.243h4.717Z" fill="#282828"/>
    <path id="Trazado_603" data-name="Trazado 603" d="M869.189,1488.629v1.467h-.45c-1.431,0-1.834.856-1.834,2.37v2.371h-1.511v-6.11h1.482v1.415a2.023,2.023,0,0,1,2.028-1.515Z" fill="#282828"/>
    <path id="Trazado_604" data-name="Trazado 604" d="M872.978,1488.532a3,3,0,0,0-3.261,3.238h0a3.268,3.268,0,1,0,3.261-3.239Zm0,5.3v0c-1.211,0-1.746-.565-1.746-2.055s.536-2.053,1.746-2.053,1.747.562,1.747,2.053S874.188,1493.834,872.978,1493.834Z" fill="#282828"/>
    <path id="Trazado_605" data-name="Trazado 605" d="M883.35,1491.06v3.777h-1.515v-3.592c0-1.125-.494-1.467-1.259-1.467-1.075,0-1.671.685-1.671,2.382v2.677h-1.518v-6.11H878.9v1.3a2.252,2.252,0,0,1,2.2-1.491c1.626,0,2.249.93,2.249,2.53Z" fill="#282828"/>
    <path id="Trazado_606" data-name="Trazado 606" d="M887.3,1494.835c-1.6,0-2.04-.658-2.04-2v-2.964h-1.136v-.744l1.26-.477.624-1.344h.77v1.415h1.857v1.152h-1.86v3.754h1.71v1.208Z" fill="#282828"/>
    <path id="Trazado_607" data-name="Trazado 607" d="M894.018,1492.993c-.171.55-.594.963-1.559.963s-1.65-.415-1.76-1.771h4.728a2.927,2.927,0,0,0,.036-.476,2.887,2.887,0,0,0-3.067-3.177,3.25,3.25,0,0,0,0,6.5c2.175,0,2.908-1.123,3.043-2.04H894.01Zm-1.6-3.4c.99,0,1.525.512,1.589,1.588h-3.29v.005l0-.005h0A1.539,1.539,0,0,1,892.421,1489.592Z" fill="#282828"/>
    <path id="Trazado_608" data-name="Trazado 608" d="M899.551,1488.528c2,0,3.005,1.113,3.067,2.578h-1.455a1.421,1.421,0,0,0-1.576-1.381c-1.086,0-1.76.527-1.76,2.053,0,1.552.649,2.053,1.737,2.053a1.5,1.5,0,0,0,1.647-1.429h1.453a2.765,2.765,0,0,1-3.091,2.634,3.252,3.252,0,1,1-.02-6.5Z" fill="#282828"/>
    <rect id="Rectángulo_223" data-name="Rectángulo 223" width="1.711" height="1.724" transform="translate(903.915 1490.899)" fill="#282828"/>
    <path id="Trazado_609" data-name="Trazado 609" d="M880.574,1442.021v5.606h-7.145v25.336h7.145v5.606H859.307v-5.606h7.143v-25.336h-7.143v-5.606Z" fill="#282828"/>
    <path id="Trazado_610" data-name="Trazado 610" d="M913.016,1442.021h7.091l-12.64,36.547H897.243l-12.64-36.547h7.255l8.682,24.951q.717,2.088,1.925,6.265.933-3.456,1.869-6.265Z" fill="#282828"/>
    <path id="Trazado_611" data-name="Trazado 611" d="M956.85,1450.543a15.518,15.518,0,0,0-6.209-6.924,23.526,23.526,0,0,0-21.435,0,15.492,15.492,0,0,0-6.21,6.924,25.07,25.07,0,0,0,0,19.511,15.531,15.531,0,0,0,6.21,6.926,24,24,0,0,0,21.431,0,15.474,15.474,0,0,0,6.213-6.929,25.069,25.069,0,0,0,0-19.511Zm-8.078,19.9q-2.637,3.293-8.849,3.292t-8.9-3.292q-2.694-3.352-2.693-10.168h0q0-6.813,2.7-10.111,2.688-3.354,8.9-3.354t8.849,3.354q2.7,3.3,2.693,10.111T948.772,1470.439Z" fill="#282828"/>
    <path id="Trazado_612" data-name="Trazado 612" d="M992.506,1447.631l-22.589,25.336H992.67v5.606H961.062v-5.606l22.653-25.336H961.4v-5.606H992.5Z" fill="#282828"/>
  </g>
</svg>
