<?xml version="1.0" encoding="UTF-8" standalone="no"?>
<svg
   xmlns:dc="http://purl.org/dc/elements/1.1/"
   xmlns:cc="http://creativecommons.org/ns#"
   xmlns:rdf="http://www.w3.org/1999/02/22-rdf-syntax-ns#"
   xmlns:svg="http://www.w3.org/2000/svg"
   xmlns="http://www.w3.org/2000/svg"
   xmlns:sodipodi="http://sodipodi.sourceforge.net/DTD/sodipodi-0.dtd"
   xmlns:inkscape="http://www.inkscape.org/namespaces/inkscape"
   viewBox="0 0 24 24"
   id="svg2"
   version="1.1"
   inkscape:version="0.91 r13725"
   sodipodi:docname="contains.svg">
  <metadata
     id="metadata16">
    <rdf:RDF>
      <cc:Work
         rdf:about="">
        <dc:format>image/svg+xml</dc:format>
        <dc:type
           rdf:resource="http://purl.org/dc/dcmitype/StillImage" />
      </cc:Work>
    </rdf:RDF>
  </metadata>
  <sodipodi:namedview
     pagecolor="#ffffff"
     bordercolor="#666666"
     borderopacity="1"
     objecttolerance="10"
     gridtolerance="10"
     guidetolerance="10"
     inkscape:pageopacity="0"
     inkscape:pageshadow="2"
     inkscape:window-width="2560"
     inkscape:window-height="1367"
     id="namedview14"
     showgrid="false"
     inkscape:zoom="50"
     inkscape:cx="11.98"
     inkscape:cy="12.975967"
     inkscape:window-x="0"
     inkscape:window-y="36"
     inkscape:window-maximized="1"
     inkscape:current-layer="svg2"
     inkscape:snap-global="true"
     inkscape:snap-bbox="true"
     inkscape:bbox-nodes="true"
     inkscape:snap-bbox-edge-midpoints="true"
     inkscape:snap-bbox-midpoints="true"
     inkscape:snap-nodes="true"
     inkscape:snap-object-midpoints="true"
     inkscape:snap-center="true" />
  <defs
     id="defs4" />
  <rect
     style="opacity:0;fill:#000000;fill-opacity:1;stroke:none;stroke-opacity:1"
     id="rect4145"
     width="17.898306"
     height="29.59322"
     x="-30.508474"
     y="-19.728813" />
  <g
     inkscape:groupmode="layer"
     id="layer1"
     inkscape:label="selección"
     style="display:inline">
    <rect
       style="opacity:0;fill:#ff0000;fill-opacity:1;stroke:none;stroke-opacity:1"
       id="rect4170"
       width="9.9661016"
       height="17.38983"
       x="7.2203388"
       y="3.6610169" />
    <path
       style="opacity:1;fill:#000000;fill-opacity:1;stroke:none;stroke-opacity:1"
       d="M 8.1347656 4.1699219 L 8.1347656 19.830078 L 16.855469 19.830078 L 16.855469 4.1699219 L 8.1347656 4.1699219 z M 9.0527344 6.0253906 L 11.001953 6.0253906 L 11.001953 9.2910156 C 11.001953 9.4291734 10.998763 9.5714927 10.994141 9.7207031 L 10.994141 10.152344 C 10.994141 10.290502 10.992904 10.414864 10.988281 10.525391 L 10.988281 10.765625 L 11.001953 10.765625 C 11.112895 10.472731 11.248366 10.226291 11.410156 10.027344 C 11.57657 9.8228703 11.757023 9.6606413 11.951172 9.5390625 C 12.145321 9.4119574 12.349861 9.3208881 12.5625 9.265625 C 12.779762 9.2103619 12.991202 9.1835938 13.199219 9.1835938 C 13.666101 9.1835938 14.068801 9.299145 14.40625 9.53125 C 14.743699 9.763355 15.021019 10.085527 15.238281 10.5 C 15.455543 10.914473 15.6151 11.407353 15.716797 11.976562 C 15.823117 12.545772 15.876953 13.169873 15.876953 13.849609 C 15.876953 14.518293 15.8155 15.137821 15.695312 15.707031 C 15.575125 16.270715 15.401052 16.759355 15.169922 17.173828 C 14.938792 17.588301 14.650666 17.912426 14.308594 18.144531 C 13.966522 18.376636 13.575865 18.492187 13.136719 18.492188 C 12.924079 18.492188 12.717066 18.46118 12.513672 18.400391 C 12.310278 18.345128 12.116544 18.254058 11.931641 18.126953 C 11.746737 17.994322 11.575137 17.825567 11.417969 17.621094 C 11.265423 17.41662 11.13119 17.165608 11.015625 16.867188 L 10.988281 16.867188 C 10.988281 16.98324 10.983855 17.116415 10.974609 17.265625 C 10.969987 17.414835 10.96237 17.561394 10.953125 17.705078 C 10.94388 17.848762 10.931837 17.977697 10.917969 18.09375 C 10.904101 18.204276 10.894011 18.281961 10.884766 18.326172 L 8.9980469 18.326172 C 9.0072921 18.138277 9.0193353 17.876167 9.0332031 17.539062 C 9.0470709 17.196431 9.0527344 16.805719 9.0527344 16.369141 L 9.0527344 6.0253906 z M 12.4375 10.765625 C 12.271087 10.765625 12.102677 10.812303 11.931641 10.90625 C 11.760605 11.000197 11.602285 11.164379 11.458984 11.396484 C 11.315684 11.623063 11.197921 11.931851 11.105469 12.324219 C 11.017639 12.71106 10.974609 13.1997 10.974609 13.791016 C 10.974609 14.387857 11.020829 14.889548 11.113281 15.292969 C 11.205733 15.690863 11.323496 16.008462 11.466797 16.246094 C 11.61472 16.483725 11.774277 16.65248 11.945312 16.751953 C 12.120971 16.851427 12.289381 16.900391 12.451172 16.900391 C 12.894941 16.900391 13.236188 16.645139 13.476562 16.136719 C 13.72156 15.628298 13.84375 14.86645 13.84375 13.849609 C 13.84375 13.302505 13.809573 12.83606 13.740234 12.449219 C 13.675518 12.056851 13.581841 11.735012 13.457031 11.486328 C 13.336844 11.237644 13.187377 11.055506 13.011719 10.939453 C 12.840683 10.823401 12.650139 10.765625 12.4375 10.765625 z "
       id="rect4172" />
  </g>
  <g
     inkscape:groupmode="layer"
     id="layer2"
     inkscape:label="texto"
     style="display:inline" />
  <g
     transform="scale(0.91458733,1.0933893)"
     style="font-style:normal;font-variant:normal;font-weight:bold;font-stretch:normal;font-size:15.52678967px;line-height:125%;font-family:'Liberation Mono';-inkscape-font-specification:'Liberation Mono Bold';letter-spacing:0px;word-spacing:0px;fill:#000000;fill-opacity:1;stroke:none;stroke-width:1px;stroke-linecap:butt;stroke-linejoin:miter;stroke-opacity:1"
     id="text4150">
    <path
       d="m 2.9097795,16.912367 q -0.5913524,0 -1.0614017,-0.15921 Q 1.38591,16.586365 1.0599081,16.275526 0.73390612,15.957106 0.559533,15.494638 0.38515987,15.03217 0.38515987,14.440818 q 0,-0.727819 0.24260609,-1.220612 0.24260609,-0.500375 0.66716674,-0.803633 0.4245607,-0.310839 1.0007501,-0.447305 0.5837709,-0.144047 1.2509377,-0.151629 l 1.6906611,-0.03032 0,-0.41698 q 0,-0.447305 -0.083396,-0.742981 Q 5.0780714,10.324096 4.934024,10.13456 4.7899767,9.9450236 4.5776963,9.8692092 4.3729975,9.7858133 4.1152285,9.7858133 q -0.2350247,0 -0.4321421,0.05307 -0.1971175,0.05307 -0.3411648,0.1895356 -0.1440474,0.128885 -0.2350247,0.356328 -0.090977,0.219862 -0.1288845,0.561027 L 0.75665044,10.839634 Q 0.84762773,10.301351 1.0750709,9.8616277 1.3100956,9.4143228 1.7194934,9.0883208 2.1364726,8.7623189 2.7505692,8.5879458 3.3646659,8.4059912 4.2062058,8.4059912 q 1.5314509,0 2.342665,0.7505626 0.8187956,0.7505626 0.8187956,2.2061992 l 0,2.971924 q 0,0.288095 0.022744,0.515538 0.030326,0.227444 0.098559,0.386654 0.075814,0.151629 0.2046989,0.235025 0.1364659,0.07581 0.3487462,0.07581 0.2426061,0 0.4700493,-0.04549 l 0,1.152379 q -0.189536,0.04549 -0.3411648,0.0834 -0.1516288,0.03791 -0.3032576,0.06065 -0.1516288,0.02274 -0.3260019,0.03791 -0.1667917,0.01516 -0.3942349,0.01516 -0.8036327,0 -1.1902861,-0.394235 -0.379072,-0.394235 -0.4548864,-1.159961 l -0.045489,0 q -0.2122803,0.379072 -0.4624678,0.68233 -0.2426061,0.295676 -0.5534452,0.507957 -0.3032576,0.204698 -0.6823296,0.310839 -0.379072,0.113721 -0.8491213,0.113721 z m 2.3275021,-3.94993 -1.015913,0.01516 q -0.3411648,0.0076 -0.6368409,0.05307 -0.2956762,0.03791 -0.515538,0.174373 -0.2122803,0.128884 -0.3411648,0.386653 -0.121303,0.250188 -0.121303,0.68233 0,0.583771 0.2274432,0.871866 0.2350246,0.280513 0.6823296,0.280513 0.4093978,0 0.7278183,-0.174373 Q 4.5625335,15.077659 4.7823952,14.797145 5.0098384,14.509051 5.12356,14.13756 5.2372816,13.766069 5.2372816,13.379416 l 0,-0.416979 z"
       style="font-style:normal;font-variant:normal;font-weight:bold;font-stretch:normal;font-family:'Liberation Mono';-inkscape-font-specification:'Liberation Mono Bold'"
       id="path4233" />
  </g>
  <g
     transform="scale(0.91458733,1.0933893)"
     style="font-style:normal;font-variant:normal;font-weight:bold;font-stretch:normal;font-size:15.52678967px;line-height:125%;font-family:'Liberation Mono';-inkscape-font-specification:'Liberation Mono Bold';letter-spacing:0px;word-spacing:0px;fill:#000000;fill-opacity:1;stroke:none;stroke-width:1px;stroke-linecap:butt;stroke-linejoin:miter;stroke-opacity:1"
     id="text4158">
    <path
       d="m 22.702762,16.912367 q -0.978006,0 -1.713406,-0.303257 -0.727818,-0.303258 -1.21303,-0.856703 -0.485212,-0.553445 -0.727819,-1.326752 -0.242606,-0.780889 -0.242606,-1.720987 0,-1.023495 0.265351,-1.819546 0.26535,-0.803633 0.765725,-1.3494962 0.500375,-0.5534451 1.228194,-0.8415399 0.735399,-0.2880947 1.667916,-0.2880947 0.796052,0 1.410148,0.2122803 0.621678,0.2122804 1.068983,0.5837709 0.447305,0.3639092 0.720237,0.8642846 0.280513,0.500375 0.386654,1.076564 l -2.145548,0.10614 q -0.09098,-0.629259 -0.454886,-1.00075 -0.36391,-0.3790718 -1.031076,-0.3790718 -0.856703,0 -1.250938,0.7050738 -0.394235,0.705074 -0.394235,2.046989 0,2.835459 1.675499,2.835459 0.606515,0 1.015913,-0.379072 0.409397,-0.386654 0.507956,-1.144798 l 2.137966,0.09856 q -0.07581,0.568608 -0.348746,1.091727 -0.265351,0.515538 -0.727818,0.917355 -0.454887,0.394234 -1.106891,0.636841 -0.652004,0.235024 -1.493543,0.235024 z"
       style="font-style:normal;font-variant:normal;font-weight:bold;font-stretch:normal;font-family:'Liberation Mono';-inkscape-font-specification:'Liberation Mono Bold'"
       id="path4236" />
  </g>
</svg>
