<?xml version="1.0" encoding="UTF-8" standalone="no"?>
<svg
   xmlns:dc="http://purl.org/dc/elements/1.1/"
   xmlns:cc="http://creativecommons.org/ns#"
   xmlns:rdf="http://www.w3.org/1999/02/22-rdf-syntax-ns#"
   xmlns:svg="http://www.w3.org/2000/svg"
   xmlns="http://www.w3.org/2000/svg"
   xmlns:sodipodi="http://sodipodi.sourceforge.net/DTD/sodipodi-0.dtd"
   xmlns:inkscape="http://www.inkscape.org/namespaces/inkscape"
   version="1.1"
   id="svg2"
   viewBox="0 0 24 24"
   inkscape:version="0.91 r13725"
   sodipodi:docname="endsWith.svg">
  <sodipodi:namedview
     pagecolor="#ffffff"
     bordercolor="#666666"
     borderopacity="1"
     objecttolerance="10"
     gridtolerance="10"
     guidetolerance="10"
     inkscape:pageopacity="0"
     inkscape:pageshadow="2"
     inkscape:window-width="2560"
     inkscape:window-height="1367"
     id="namedview17"
     showgrid="false"
     inkscape:zoom="39.333333"
     inkscape:cx="6.131437"
     inkscape:cy="7.1912796"
     inkscape:window-x="0"
     inkscape:window-y="36"
     inkscape:window-maximized="1"
     inkscape:current-layer="svg2" />
  <metadata
     id="metadata16">
    <rdf:RDF>
      <cc:Work
         rdf:about="">
        <dc:format>image/svg+xml</dc:format>
        <dc:type
           rdf:resource="http://purl.org/dc/dcmitype/StillImage" />
        <dc:title />
      </cc:Work>
    </rdf:RDF>
  </metadata>
  <defs
     id="defs4" />
  <path
     style="opacity:1;fill:#000000;fill-opacity:1;stroke:none;stroke-opacity:1"
     d="M 7.7207031 4.0234375 L 7.7207031 19.683594 L 24.033203 19.683594 L 24.033203 4.0234375 L 7.7207031 4.0234375 z M 8.7226562 5.6367188 L 10.609375 5.6367188 L 10.609375 8.9707031 C 10.609375 9.1117156 10.607992 9.2578628 10.603516 9.4101562 L 10.603516 9.8515625 C 10.603516 9.992575 10.602132 10.119612 10.597656 10.232422 L 10.597656 10.476562 L 10.609375 10.476562 C 10.716797 10.177617 10.849202 9.9276673 11.005859 9.7246094 C 11.166992 9.5159109 11.341309 9.3487003 11.529297 9.2246094 C 11.717285 9.0948779 11.915202 9.0017175 12.121094 8.9453125 C 12.331462 8.8889075 12.536865 8.8613281 12.738281 8.8613281 C 13.190348 8.8613281 13.579508 8.9798959 13.90625 9.2167969 C 14.232992 9.4536978 14.502523 9.7839942 14.712891 10.207031 C 14.923258 10.630069 15.077311 11.131919 15.175781 11.712891 C 15.278727 12.293862 15.330078 12.931219 15.330078 13.625 C 15.330078 14.3075 15.272624 14.93856 15.15625 15.519531 C 15.039876 16.094862 14.868327 16.594541 14.644531 17.017578 C 14.420736 17.440616 14.143717 17.770912 13.8125 18.007812 C 13.481283 18.244713 13.102946 18.363281 12.677734 18.363281 C 12.471842 18.363281 12.271159 18.331577 12.074219 18.269531 C 11.877279 18.213126 11.688802 18.119966 11.509766 17.990234 C 11.330729 17.854862 11.165853 17.683308 11.013672 17.474609 C 10.865967 17.265911 10.734945 17.009665 10.623047 16.705078 L 10.597656 16.705078 C 10.597656 16.823529 10.592936 16.957082 10.583984 17.109375 C 10.579508 17.261668 10.571452 17.411941 10.5625 17.558594 C 10.553548 17.705247 10.542725 17.838581 10.529297 17.957031 C 10.515869 18.069841 10.505046 18.148235 10.496094 18.193359 L 8.6699219 18.193359 C 8.6788737 18.001582 8.6896973 17.732742 8.703125 17.388672 C 8.7165527 17.038961 8.7226564 16.642865 8.7226562 16.197266 L 8.7226562 5.6367188 z M 20.382812 8.8691406 C 20.852783 8.8691406 21.268311 8.9475348 21.630859 9.1054688 C 21.997884 9.2634027 22.314046 9.4814281 22.578125 9.7578125 C 22.842204 10.028556 23.053711 10.350383 23.214844 10.722656 C 23.380452 11.094929 23.495931 11.49515 23.558594 11.923828 L 21.658203 12.042969 C 21.604492 11.574807 21.470703 11.202166 21.255859 10.925781 C 21.041016 10.643756 20.735677 10.501953 20.341797 10.501953 C 19.836019 10.501953 19.467122 10.764496 19.234375 11.289062 C 19.001628 11.813629 18.884766 12.575851 18.884766 13.574219 C 18.884766 15.683765 19.379964 16.738281 20.369141 16.738281 C 20.727214 16.738281 21.025879 16.596478 21.267578 16.314453 C 21.509277 16.026788 21.660563 15.601159 21.71875 15.037109 L 23.611328 15.146484 C 23.566569 15.569522 23.463867 15.97604 23.302734 16.365234 C 23.146077 16.748788 22.931234 17.089725 22.658203 17.388672 C 22.389648 17.681978 22.062663 17.919113 21.677734 18.099609 C 21.292806 18.274465 20.852295 18.363281 20.355469 18.363281 C 19.778076 18.363281 19.272054 18.249057 18.837891 18.023438 C 18.408203 17.797818 18.05013 17.480116 17.763672 17.068359 C 17.477214 16.656603 17.26237 16.163221 17.119141 15.587891 C 16.975911 15.006919 16.904297 14.365437 16.904297 13.666016 C 16.904297 12.904548 16.982015 12.228971 17.138672 11.636719 C 17.295329 11.038826 17.522949 10.536975 17.818359 10.130859 C 18.11377 9.719103 18.474609 9.4057452 18.904297 9.1914062 C 19.33846 8.9770673 19.832275 8.8691406 20.382812 8.8691406 z M 12 10.476562 C 11.838867 10.476562 11.675374 10.525205 11.509766 10.621094 C 11.344157 10.716982 11.191488 10.88224 11.052734 11.119141 C 10.913981 11.350401 10.800455 11.667884 10.710938 12.068359 C 10.625894 12.463194 10.583984 12.96092 10.583984 13.564453 C 10.583984 14.173627 10.627279 14.683947 10.716797 15.095703 C 10.806315 15.501819 10.921794 15.827771 11.060547 16.070312 C 11.203776 16.312855 11.357829 16.484409 11.523438 16.585938 C 11.693521 16.687466 11.857015 16.738281 12.013672 16.738281 C 12.443359 16.738281 12.775066 16.47791 13.007812 15.958984 C 13.245037 15.440059 13.363281 14.662852 13.363281 13.625 C 13.363281 13.066591 13.328857 12.590148 13.261719 12.195312 C 13.199056 11.794837 13.107178 11.466713 12.986328 11.212891 C 12.869954 10.959068 12.726725 10.772747 12.556641 10.654297 C 12.391032 10.535846 12.205892 10.476563 12 10.476562 z "
     id="rect4192" />
  <rect
     y="-19.728813"
     x="-30.508474"
     height="29.59322"
     width="17.898306"
     id="rect4145"
     style="opacity:0;fill:#000000;fill-opacity:1;stroke:none;stroke-opacity:1" />
  <g
     style="display:inline"
     id="layer1">
    <rect
       y="3.6610169"
       x="7.2203388"
       height="17.38983"
       width="9.9661016"
       id="rect4170"
       style="opacity:0;fill:#ff0000;fill-opacity:1;stroke:none;stroke-opacity:1" />
  </g>
  <g
     style="display:inline"
     id="layer2" />
  <g
     transform="scale(0.89080368,1.1225818)"
     style="font-style:normal;font-variant:normal;font-weight:bold;font-stretch:normal;font-size:15.43550014px;line-height:1000%;font-family:'Liberation Mono';-inkscape-font-specification:'Liberation Mono Bold';letter-spacing:0px;word-spacing:0px;fill:#000000;fill-opacity:1;stroke:none;stroke-width:1px;stroke-linecap:butt;stroke-linejoin:miter;stroke-opacity:1"
     id="text4141">
    <path
       d="m 2.9457489,16.357366 q -0.5878755,0 -1.0551612,-0.158274 -0.4597488,-0.165811 -0.783834,-0.474823 -0.32408518,-0.316548 -0.49743308,-0.776297 -0.1733479,-0.459748 -0.1733479,-1.047624 0,-0.723539 0.24117969,-1.213435 Q 0.9183321,12.18948 1.3403966,11.888005 1.762461,11.578994 2.3352628,11.44333 2.9156014,11.300129 3.5788455,11.292593 l 1.680721,-0.03015 0,-0.414527 q 0,-0.444675 -0.082905,-0.738613 Q 5.1012923,9.8078302 4.9580919,9.6194085 4.8148915,9.4309869 4.6038592,9.3556182 4.4003639,9.2727127 4.1441104,9.2727127 q -0.2336428,0 -0.4296013,0.052758 Q 3.5185506,9.3782288 3.3753502,9.5138924 3.2321497,9.6420191 3.1417074,9.8681251 3.051265,10.086694 3.0135807,10.425853 L 0.80527912,10.320337 Q 0.8957215,9.7852196 1.1218275,9.3480814 1.3554703,8.9034063 1.762461,8.5793211 2.1769886,8.2552359 2.7874747,8.081888 3.3979608,7.9010032 4.2345528,7.9010032 q 1.5224468,0 2.3288914,0.7461497 0.8139815,0.7461497 0.8139815,2.1932281 l 0,2.954451 q 0,0.286401 0.022611,0.512507 0.030147,0.226106 0.097979,0.38438 0.075369,0.150737 0.2034954,0.233643 0.1356635,0.07537 0.3466958,0.07537 0.2411797,0 0.4672856,-0.04522 l 0,1.145604 q -0.1884216,0.04522 -0.3391589,0.0829 -0.1507373,0.03769 -0.3014746,0.06029 -0.1507373,0.02261 -0.3240852,0.03768 -0.1658111,0.01507 -0.391917,0.01507 -0.7989078,0 -1.1832879,-0.391917 -0.3768433,-0.391917 -0.4522119,-1.15314 l -0.045221,0 q -0.2110322,0.376843 -0.4597488,0.678318 -0.2411797,0.293937 -0.5501911,0.50497 -0.3014747,0.203495 -0.6783179,0.309011 -0.3768433,0.113053 -0.8441289,0.113053 z m 2.3138176,-3.926707 -1.0099399,0.01507 q -0.339159,0.0075 -0.6330967,0.05276 -0.2939378,0.03768 -0.5125069,0.173348 -0.2110322,0.128127 -0.3391589,0.38438 -0.1205898,0.248717 -0.1205898,0.678318 0,0.580339 0.2261059,0.866739 0.2336428,0.278865 0.6783179,0.278865 0.4069907,0 0.7235391,-0.173348 0.3165483,-0.173348 0.5351174,-0.452212 0.226106,-0.286401 0.3391589,-0.655708 0.113053,-0.369306 0.113053,-0.753686 l 0,-0.414528 z"
       style=""
       id="path4141" />
  </g>
  <rect
     y="4.6799998"
     x="0"
     height="16.280001"
     width="16.68"
     id="rect4146"
     style="opacity:0;fill:#000000;fill-opacity:1;stroke:none;stroke-opacity:1" />
</svg>
