<?xml version="1.0" encoding="UTF-8" standalone="no"?>
<svg
   xmlns:dc="http://purl.org/dc/elements/1.1/"
   xmlns:cc="http://creativecommons.org/ns#"
   xmlns:rdf="http://www.w3.org/1999/02/22-rdf-syntax-ns#"
   xmlns:svg="http://www.w3.org/2000/svg"
   xmlns="http://www.w3.org/2000/svg"
   xmlns:sodipodi="http://sodipodi.sourceforge.net/DTD/sodipodi-0.dtd"
   xmlns:inkscape="http://www.inkscape.org/namespaces/inkscape"
   viewBox="0 0 24 24"
   id="svg2"
   version="1.1"
   inkscape:version="0.91 r13725"
   sodipodi:docname="notEquals.svg">
  <metadata
     id="metadata16">
    <rdf:RDF>
      <cc:Work
         rdf:about="">
        <dc:format>image/svg+xml</dc:format>
        <dc:type
           rdf:resource="http://purl.org/dc/dcmitype/StillImage" />
        <dc:title />
      </cc:Work>
    </rdf:RDF>
  </metadata>
  <sodipodi:namedview
     pagecolor="#ffffff"
     bordercolor="#666666"
     borderopacity="1"
     objecttolerance="10"
     gridtolerance="10"
     guidetolerance="10"
     inkscape:pageopacity="0"
     inkscape:pageshadow="2"
     inkscape:window-width="2560"
     inkscape:window-height="1367"
     id="namedview14"
     showgrid="false"
     inkscape:zoom="8.8388348"
     inkscape:cx="1.2264779"
     inkscape:cy="20.421922"
     inkscape:window-x="0"
     inkscape:window-y="36"
     inkscape:window-maximized="1"
     inkscape:current-layer="svg2"
     inkscape:snap-global="true"
     inkscape:snap-bbox="true"
     inkscape:bbox-nodes="true"
     inkscape:snap-bbox-edge-midpoints="true"
     inkscape:snap-bbox-midpoints="true"
     inkscape:snap-nodes="true"
     inkscape:snap-object-midpoints="true"
     inkscape:snap-center="true"
     inkscape:connector-spacing="99" />
  <defs
     id="defs4" />
  <rect
     style="opacity:0;fill:#000000;fill-opacity:1;stroke:none;stroke-opacity:1"
     id="rect4145"
     width="17.898306"
     height="29.59322"
     x="-30.508474"
     y="-19.728813" />
  <g
     inkscape:groupmode="layer"
     id="layer1"
     inkscape:label="selección"
     style="display:inline">
    <rect
       style="opacity:0;fill:#ff0000;fill-opacity:1;stroke:none;stroke-opacity:1"
       id="rect4170"
       width="9.9661016"
       height="17.38983"
       x="7.2203388"
       y="3.6610169" />
  </g>
  <g
     inkscape:groupmode="layer"
     id="layer2"
     inkscape:label="texto"
     style="display:inline" />
  <g
     id="g4153"
     transform="translate(-0.0565683,0.96166466)">
    <g
       id="text4158"
       style="font-style:normal;font-variant:normal;font-weight:bold;font-stretch:normal;font-size:15.52678967px;line-height:125%;font-family:'Liberation Mono';-inkscape-font-specification:'Liberation Mono Bold';letter-spacing:0px;word-spacing:0px;fill:#000000;fill-opacity:1;stroke:none;stroke-width:1px;stroke-linecap:butt;stroke-linejoin:miter;stroke-opacity:1"
       transform="matrix(1.8166514,0,0,2.2505147,-19.588371,-17.742156)">
      <g
         transform="scale(1.0933893,0.91458733)"
         style="font-style:normal;font-variant:normal;font-weight:bold;font-stretch:normal;font-size:17.5px;line-height:125%;font-family:sans-serif;-inkscape-font-specification:'sans-serif Bold';letter-spacing:0px;word-spacing:0px;fill:#000000;fill-opacity:1;stroke:none;stroke-width:1px;stroke-linecap:butt;stroke-linejoin:miter;stroke-opacity:1"
         id="text4141">
        <path
           d="m 10.454248,11.026161 10.95459,0 0,2.008057 -10.95459,0 0,-2.008057 z m 0,3.88794 10.95459,0 0,2.025146 -10.95459,0 0,-2.025146 z"
           style=""
           id="path4141" />
      </g>
    </g>
  </g>
  <path
     style="opacity:0;fill:#ff0000;fill-opacity:0.87012987;stroke:none;stroke-opacity:1"
     id="path4142"
     d="m -61.798452,-29.439658 c 0.14217,0.03402 0.287265,0.05756 0.42651,0.102066 1.01314,0.323818 1.968592,0.842222 2.908406,1.328762 1.384001,0.716494 1.588825,0.841757 3.00023,1.61903 4.099785,2.27986 8.220749,4.522396 12.358324,6.732882 1.910066,1.016415 3.847921,1.976811 5.797456,2.914427 0,0 -1.221146,0.804933 -1.221146,0.804933 l 0,0 c -1.927343,-0.960573 -3.844489,-1.940501 -5.743655,-2.956011 -4.143757,-2.227257 -8.288599,-4.452449 -12.427663,-6.688444 -1.252537,-0.669302 -1.792443,-0.972023 -3.039226,-1.586089 -0.951554,-0.46866 -1.941032,-0.976287 -2.980581,-1.22822 -0.141193,-0.03422 -0.287764,-0.04022 -0.431646,-0.06033 0,0 1.352991,-0.983005 1.352991,-0.983005 z"
     inkscape:connector-curvature="0" />
  <g
     transform="scale(1.2048768,0.82996038)"
     style="font-style:normal;font-variant:normal;font-weight:bold;font-stretch:normal;font-size:26.234972px;line-height:125%;font-family:sans-serif;-inkscape-font-specification:'sans-serif Bold';letter-spacing:0px;word-spacing:0px;fill:#000000;fill-opacity:1;stroke:none;stroke-width:1px;stroke-linecap:butt;stroke-linejoin:miter;stroke-opacity:1"
     id="text4160">
    <path
       d="m 11.906651,3.6788689 2.84383,0 -6.7508939,21.5593061 -2.8310199,0 6.7380838,-21.5593061 z"
       style=""
       id="path4168" />
  </g>
</svg>
