<?xml version="1.0" encoding="UTF-8" standalone="no"?>
<svg
   xmlns:dc="http://purl.org/dc/elements/1.1/"
   xmlns:cc="http://creativecommons.org/ns#"
   xmlns:rdf="http://www.w3.org/1999/02/22-rdf-syntax-ns#"
   xmlns:svg="http://www.w3.org/2000/svg"
   xmlns="http://www.w3.org/2000/svg"
   xmlns:sodipodi="http://sodipodi.sourceforge.net/DTD/sodipodi-0.dtd"
   xmlns:inkscape="http://www.inkscape.org/namespaces/inkscape"
   viewBox="0 0 24 24"
   id="svg2"
   version="1.1"
   inkscape:version="0.91 r13725"
   sodipodi:docname="startsWith.svg">
  <metadata
     id="metadata16">
    <rdf:RDF>
      <cc:Work
         rdf:about="">
        <dc:format>image/svg+xml</dc:format>
        <dc:type
           rdf:resource="http://purl.org/dc/dcmitype/StillImage" />
      </cc:Work>
    </rdf:RDF>
  </metadata>
  <sodipodi:namedview
     pagecolor="#ffffff"
     bordercolor="#666666"
     borderopacity="1"
     objecttolerance="10"
     gridtolerance="10"
     guidetolerance="10"
     inkscape:pageopacity="0"
     inkscape:pageshadow="2"
     inkscape:window-width="2560"
     inkscape:window-height="1367"
     id="namedview14"
     showgrid="false"
     inkscape:zoom="25"
     inkscape:cx="0.2791919"
     inkscape:cy="22.552307"
     inkscape:window-x="0"
     inkscape:window-y="36"
     inkscape:window-maximized="1"
     inkscape:current-layer="svg2"
     inkscape:snap-global="true"
     inkscape:snap-bbox="true"
     inkscape:bbox-nodes="true"
     inkscape:snap-bbox-edge-midpoints="true"
     inkscape:snap-bbox-midpoints="true"
     inkscape:snap-nodes="true"
     inkscape:snap-object-midpoints="true"
     inkscape:snap-center="true" />
  <defs
     id="defs4" />
  <path
     style="opacity:1;fill:#000000;fill-opacity:1;stroke:none;stroke-opacity:1"
     d="M -0.080078125 4.1699219 L -0.080078125 19.830078 L 16.361328 19.830078 L 16.361328 4.1699219 L -0.080078125 4.1699219 z M 8.7226562 5.6367188 L 10.609375 5.6367188 L 10.609375 8.9707031 C 10.609375 9.1117156 10.607992 9.2578628 10.603516 9.4101562 L 10.603516 9.8515625 C 10.603516 9.992575 10.602132 10.119612 10.597656 10.232422 L 10.597656 10.476562 L 10.609375 10.476562 C 10.716797 10.177616 10.849202 9.9276673 11.005859 9.7246094 C 11.166992 9.5159109 11.341309 9.3487003 11.529297 9.2246094 C 11.717285 9.0948779 11.915202 9.0017175 12.121094 8.9453125 C 12.331462 8.8889075 12.536865 8.8613281 12.738281 8.8613281 C 13.190348 8.8613281 13.579508 8.9798959 13.90625 9.2167969 C 14.232992 9.4536978 14.502523 9.7839939 14.712891 10.207031 C 14.923258 10.630069 15.077311 11.131919 15.175781 11.712891 C 15.278727 12.293862 15.330078 12.931219 15.330078 13.625 C 15.330078 14.3075 15.272624 14.93856 15.15625 15.519531 C 15.039876 16.094862 14.868327 16.594541 14.644531 17.017578 C 14.420736 17.440616 14.143717 17.770912 13.8125 18.007812 C 13.481283 18.244713 13.102946 18.363281 12.677734 18.363281 C 12.471842 18.363281 12.271159 18.331577 12.074219 18.269531 C 11.877279 18.213126 11.688802 18.119966 11.509766 17.990234 C 11.330729 17.854862 11.165853 17.683308 11.013672 17.474609 C 10.865967 17.265911 10.734945 17.009665 10.623047 16.705078 L 10.597656 16.705078 C 10.597656 16.823529 10.592936 16.957082 10.583984 17.109375 C 10.579508 17.261668 10.571452 17.411941 10.5625 17.558594 C 10.553548 17.705247 10.542725 17.838581 10.529297 17.957031 C 10.515869 18.069841 10.505046 18.148235 10.496094 18.193359 L 8.6699219 18.193359 C 8.6788737 18.001582 8.6896973 17.732742 8.703125 17.388672 C 8.7165527 17.038961 8.7226563 16.642865 8.7226562 16.197266 L 8.7226562 5.6367188 z M 3.7714844 8.8691406 C 4.6756185 8.8691406 5.3687337 9.148622 5.8476562 9.7070312 C 6.3310547 10.265441 6.5722656 11.086946 6.5722656 12.169922 L 6.5722656 15.486328 C 6.5722656 15.700667 6.5783691 15.891332 6.5917969 16.060547 C 6.6097005 16.229762 6.6394043 16.373736 6.6796875 16.492188 C 6.7244466 16.604997 6.7852376 16.693814 6.8613281 16.755859 C 6.9418945 16.812264 7.0445964 16.839844 7.1699219 16.839844 C 7.313151 16.839844 7.4516602 16.822905 7.5859375 16.789062 L 7.5859375 18.074219 C 7.4740397 18.108062 7.3727214 18.139766 7.2832031 18.167969 C 7.1936849 18.196171 7.1051432 18.219407 7.015625 18.236328 C 6.9261068 18.25325 6.8295085 18.266063 6.7265625 18.277344 C 6.6280924 18.288625 6.5112305 18.294922 6.3769531 18.294922 C 5.9025065 18.294922 5.5505371 18.148775 5.3222656 17.855469 C 5.09847 17.562163 4.964681 17.130237 4.9199219 16.560547 L 4.8808594 16.560547 C 4.7555339 16.842572 4.6184082 17.096646 4.4707031 17.322266 C 4.327474 17.542245 4.1639811 17.730738 3.9804688 17.888672 C 3.8014322 18.040965 3.6007487 18.157361 3.3769531 18.236328 C 3.1531575 18.320936 2.9025065 18.363281 2.625 18.363281 C 2.2758789 18.363281 1.9611003 18.303997 1.6835938 18.185547 C 1.4105631 18.061456 1.1787923 17.883604 0.98632812 17.652344 C 0.79386393 17.415443 0.64591472 17.12532 0.54296875 16.78125 C 0.44002278 16.43718 0.38867188 16.043475 0.38867188 15.603516 C 0.38867188 15.062028 0.46028645 14.60882 0.60351562 14.242188 C 0.7467448 13.869915 0.94270831 13.571323 1.1933594 13.345703 C 1.4440104 13.114443 1.7399088 12.947232 2.0800781 12.845703 C 2.4247233 12.738534 2.7936198 12.683375 3.1875 12.677734 L 4.6855469 12.642578 L 4.6855469 12.177734 C 4.6855469 11.844945 4.6605632 11.567636 4.6113281 11.347656 C 4.566569 11.122036 4.5010579 10.939841 4.4160156 10.798828 C 4.3309733 10.657816 4.226888 10.558358 4.1015625 10.501953 C 3.9807129 10.439908 3.8435873 10.410156 3.6914062 10.410156 C 3.552653 10.410156 3.4249675 10.429267 3.3085938 10.46875 C 3.1922199 10.508233 3.0909017 10.578159 3.0058594 10.679688 C 2.9208171 10.775575 2.8525391 10.90891 2.7988281 11.078125 C 2.7451172 11.241699 2.7059733 11.449303 2.6835938 11.703125 L 0.71679688 11.585938 C 0.77050781 11.185461 0.86572265 10.82129 1 10.494141 C 1.1387533 10.161351 1.3286133 9.8734008 1.5703125 9.6308594 C 1.8164876 9.3883179 2.119873 9.2019971 2.4824219 9.0722656 C 2.8449707 8.9368937 3.2746582 8.8691406 3.7714844 8.8691406 z M 12 10.476562 C 11.838867 10.476562 11.675374 10.525205 11.509766 10.621094 C 11.344157 10.716982 11.191488 10.88224 11.052734 11.119141 C 10.913981 11.350401 10.800456 11.667884 10.710938 12.068359 C 10.625895 12.463194 10.583984 12.96092 10.583984 13.564453 C 10.583984 14.173627 10.627279 14.683947 10.716797 15.095703 C 10.806315 15.501819 10.921794 15.827771 11.060547 16.070312 C 11.203776 16.312854 11.357829 16.484409 11.523438 16.585938 C 11.693522 16.687466 11.857015 16.738281 12.013672 16.738281 C 12.443359 16.738281 12.775065 16.47791 13.007812 15.958984 C 13.245036 15.440059 13.363281 14.662852 13.363281 13.625 C 13.363281 13.066591 13.328857 12.590147 13.261719 12.195312 C 13.199056 11.794837 13.107178 11.466713 12.986328 11.212891 C 12.869954 10.959068 12.726725 10.772747 12.556641 10.654297 C 12.391032 10.535846 12.205892 10.476562 12 10.476562 z M 4.6855469 13.955078 L 3.7851562 13.970703 C 3.5837402 13.976344 3.3952637 13.997407 3.2207031 14.03125 C 3.0461426 14.059452 2.8954264 14.12308 2.765625 14.224609 C 2.6402995 14.320498 2.5389811 14.464473 2.4628906 14.65625 C 2.391276 14.842386 2.3554688 15.09646 2.3554688 15.417969 C 2.3554688 15.852287 2.4223633 16.176286 2.5566406 16.390625 C 2.6953939 16.599323 2.8980306 16.705078 3.1621094 16.705078 C 3.4038086 16.705078 3.6186523 16.639497 3.8066406 16.509766 C 3.9946289 16.380034 4.1534017 16.210652 4.2832031 16.001953 C 4.4174805 15.787614 4.5168457 15.542009 4.5839844 15.265625 C 4.651123 14.989241 4.6855469 14.707587 4.6855469 14.419922 L 4.6855469 13.955078 z "
     id="rect4192" />
  <rect
     style="opacity:0;fill:#000000;fill-opacity:1;stroke:none;stroke-opacity:1"
     id="rect4145"
     width="17.898306"
     height="29.59322"
     x="-30.508474"
     y="-19.728813" />
  <g
     inkscape:groupmode="layer"
     id="layer1"
     inkscape:label="selección"
     style="display:inline">
    <rect
       style="opacity:0;fill:#ff0000;fill-opacity:1;stroke:none;stroke-opacity:1"
       id="rect4170"
       width="9.9661016"
       height="17.38983"
       x="7.2203388"
       y="3.6610169" />
  </g>
  <g
     inkscape:groupmode="layer"
     id="layer2"
     inkscape:label="texto"
     style="display:inline" />
  <rect
     style="opacity:0;fill:#000000;fill-opacity:1;stroke:none;stroke-opacity:1"
     id="rect4146"
     width="16.68"
     height="16.280001"
     x="0"
     y="4.6799998" />
  <g
     transform="scale(0.89080368,1.1225818)"
     style="font-style:normal;font-variant:normal;font-weight:bold;font-stretch:normal;font-size:15.43550014px;line-height:1000%;font-family:'Liberation Mono';-inkscape-font-specification:'Liberation Mono Bold';letter-spacing:0px;word-spacing:0px;fill:#000000;fill-opacity:1;stroke:none;stroke-width:1px;stroke-linecap:butt;stroke-linejoin:miter;stroke-opacity:1"
     id="text4141-3">
    <path
       d="m 22.850612,16.357366 q -0.972256,0 -1.703332,-0.301475 -0.723539,-0.301474 -1.205898,-0.851665 -0.48236,-0.550191 -0.723539,-1.318952 -0.24118,-0.776297 -0.24118,-1.710868 0,-1.017477 0.26379,-1.808848 0.263791,-0.7989075 0.761224,-1.3415618 0.497433,-0.5501912 1.220972,-0.8365921 0.731076,-0.2864009 1.65811,-0.2864009 0.791371,0 1.401857,0.2110323 0.618023,0.2110322 1.062698,0.5803386 0.444675,0.3617695 0.716002,0.8592026 0.278864,0.4974333 0.384381,1.0702353 l -2.132933,0.105516 q -0.09044,-0.62556 -0.452212,-0.9948665 -0.36177,-0.3768433 -1.025014,-0.3768433 -0.851666,0 -1.243583,0.7009288 -0.391917,0.700928 -0.391917,2.034953 0,2.818788 1.665647,2.818788 0.60295,0 1.00994,-0.376843 0.406991,-0.38438 0.50497,-1.138067 l 2.125396,0.09798 q -0.07537,0.565265 -0.346695,1.085309 -0.263791,0.512507 -0.723539,0.911961 -0.452212,0.391917 -1.100383,0.633096 -0.64817,0.233643 -1.484762,0.233643 z"
       style=""
       id="path4141" />
  </g>
</svg>
